M48
; DRILL file {KiCad 8.0.5} date 2025-02-14T12:54:28+0100
; FORMAT={-:-/ absolute / metric / decimal}
; #@! TF.CreationDate,2025-02-14T12:54:28+01:00
; #@! TF.GenerationSoftware,Kicad,Pcbnew,8.0.5
; #@! TF.FileFunction,MixedPlating,1,2
FMAT,2
METRIC
; #@! TA.AperFunction,Plated,PTH,ViaDrill
T1C0.300
; #@! TA.AperFunction,Plated,PTH,ComponentDrill
T2C1.000
; #@! TA.AperFunction,Plated,PTH,ComponentDrill
T3C1.020
; #@! TA.AperFunction,Plated,PTH,ComponentDrill
T4C1.100
; #@! TA.AperFunction,NonPlated,NPTH,ComponentDrill
T5C1.500
; #@! TA.AperFunction,NonPlated,NPTH,ComponentDrill
T6C1.800
; #@! TA.AperFunction,NonPlated,NPTH,ComponentDrill
T7C3.000
%
G90
G05
T1
X105.75Y-87.25
X105.75Y-88.0
X105.75Y-88.75
X105.75Y-89.5
X105.75Y-90.25
X105.75Y-91.0
X105.75Y-91.75
X105.75Y-92.5
X105.75Y-93.25
X105.75Y-94.0
X106.5Y-94.0
X107.25Y-94.0
X108.0Y-94.0
X108.25Y-125.0
X108.75Y-94.0
X109.5Y-86.25
X109.5Y-94.0
X109.5Y-107.25
X109.75Y-116.25
X110.25Y-86.25
X110.25Y-94.0
X111.0Y-86.25
X111.0Y-94.0
X111.75Y-86.25
X111.75Y-94.0
X112.5Y-86.25
X112.5Y-94.0
X113.25Y-86.25
X113.25Y-94.0
X114.0Y-86.25
X114.0Y-94.0
X114.75Y-86.25
X114.75Y-94.0
X115.5Y-86.5
X115.5Y-87.25
X115.5Y-88.0
X115.5Y-88.75
X115.5Y-89.5
X115.5Y-90.25
X115.5Y-91.0
X115.5Y-91.75
X115.5Y-92.5
X115.5Y-93.25
X115.5Y-94.0
X123.75Y-95.75
X125.5Y-84.25
X126.25Y-85.0
X126.5Y-101.5
X127.25Y-90.5
X128.75Y-84.25
X132.25Y-134.5
X132.25Y-135.75
X132.5Y-133.25
X133.25Y-85.0
X134.5Y-109.75
X135.75Y-108.5
X138.5Y-89.0
X139.25Y-89.5
X139.25Y-93.4
X139.5Y-137.25
X140.75Y-94.6
X149.6Y-79.3
X149.6Y-80.2
X149.6Y-81.0
X149.6Y-81.7
X149.6Y-82.4
X149.6Y-83.1
X149.6Y-83.8
X149.6Y-84.5
X150.3Y-79.3
X150.3Y-80.2
X150.3Y-81.0
X150.3Y-81.7
X150.3Y-82.4
X150.3Y-83.1
X150.3Y-83.8
X150.3Y-84.5
X151.0Y-79.3
X151.0Y-80.0
X151.0Y-80.7
X151.0Y-81.4
X151.6Y-125.5
X151.7Y-79.3
X151.7Y-80.0
X151.7Y-80.7
X151.7Y-81.4
X153.5Y-126.75
X153.75Y-120.0
X154.25Y-74.25
X154.3Y-79.3
X154.3Y-80.0
X154.3Y-80.7
X154.3Y-81.4
X155.0Y-79.3
X155.0Y-80.0
X155.0Y-80.7
X155.0Y-81.4
X155.125Y-74.625
X155.3Y-75.5
X155.5Y-106.5
X155.7Y-79.3
X155.7Y-80.2
X155.7Y-81.0
X155.7Y-81.7
X155.7Y-82.4
X155.7Y-83.1
X155.7Y-83.8
X155.7Y-84.5
X156.0Y-86.0
X156.4Y-79.3
X156.4Y-80.2
X156.4Y-81.0
X156.4Y-81.7
X156.4Y-82.4
X156.4Y-83.1
X156.4Y-83.8
X156.4Y-84.5
X156.5Y-92.75
X156.75Y-129.25
X157.0Y-77.35
X157.25Y-105.75
X157.75Y-77.35
X158.0Y-127.25
X158.4Y-77.35
X159.75Y-75.5
X159.75Y-131.5
X162.875Y-100.125
X163.0Y-91.25
X167.25Y-119.75
X167.5Y-106.5
X169.2Y-87.138
X169.3Y-84.1
X169.75Y-105.75
X170.0Y-88.5
X172.0Y-83.0
X174.0Y-99.75
X174.6Y-84.7
X174.6Y-85.4
X174.6Y-86.1
X174.6Y-86.8
X174.6Y-87.5
X174.6Y-88.2
X174.6Y-88.9
X174.6Y-89.6
X174.6Y-90.3
X174.75Y-91.5
X175.3Y-84.7
X175.3Y-85.4
X175.3Y-86.1
X175.3Y-86.8
X175.3Y-87.5
X175.3Y-88.2
X175.3Y-88.9
X175.3Y-89.6
X175.3Y-90.3
X176.0Y-84.7
X176.0Y-85.4
X176.0Y-86.1
X176.0Y-86.8
X176.0Y-87.5
X176.0Y-88.2
X176.0Y-88.9
X176.0Y-89.6
X176.0Y-90.3
X176.7Y-84.7
X176.7Y-85.4
X176.7Y-86.1
X176.7Y-86.8
X176.7Y-87.5
X179.5Y-84.7
X179.5Y-85.4
X179.5Y-86.1
X179.5Y-86.8
X179.5Y-87.5
X180.2Y-84.7
X180.2Y-85.4
X180.2Y-86.1
X180.2Y-86.8
X180.2Y-87.5
X180.25Y-106.0
X180.3Y-88.1
X180.3Y-88.8
X180.395Y-78.35
X180.8Y-89.6
X180.8Y-90.3
X180.9Y-84.7
X180.9Y-85.4
X180.9Y-86.1
X180.9Y-86.8
X180.9Y-87.5
X180.9Y-88.2
X180.9Y-88.9
X181.5Y-89.6
X181.5Y-90.3
X181.6Y-84.7
X181.6Y-85.4
X181.6Y-86.1
X181.6Y-86.8
X181.6Y-87.5
X181.6Y-88.2
X181.6Y-88.9
X183.75Y-80.75
X184.25Y-92.75
X184.5Y-97.75
X186.25Y-119.75
X186.9Y-94.95
X188.0Y-94.15
X188.5Y-130.25
X189.25Y-120.25
X191.75Y-119.25
X192.75Y-106.0
T2
X150.21Y-130.75
X150.21Y-133.29
X150.21Y-135.83
X150.21Y-138.37
X152.75Y-130.75
X152.75Y-133.29
X152.75Y-135.83
X152.75Y-138.37
T3
X149.87Y-104.11
X149.87Y-121.89
X150.1Y-110.46
X150.1Y-113.0
X150.1Y-115.54
X152.41Y-104.11
X152.41Y-121.89
X154.95Y-104.11
X154.95Y-121.89
X157.49Y-104.11
X157.49Y-121.89
X160.03Y-104.11
X160.03Y-121.89
X162.57Y-104.11
X162.57Y-121.89
X165.11Y-104.11
X165.11Y-121.89
X167.65Y-104.11
X167.65Y-121.89
X170.19Y-104.11
X170.19Y-121.89
X172.73Y-104.11
X172.73Y-121.89
X175.27Y-104.11
X175.27Y-121.89
X177.81Y-104.11
X177.81Y-121.89
X180.35Y-104.11
X180.35Y-121.89
X182.89Y-104.11
X182.89Y-121.89
X185.43Y-104.11
X185.43Y-121.89
X187.97Y-104.11
X187.97Y-121.89
X190.51Y-104.11
X190.51Y-121.89
X193.05Y-104.11
X193.05Y-121.89
X195.59Y-104.11
X195.59Y-121.89
X198.13Y-104.11
X198.13Y-121.89
T4
X101.75Y-101.0
X101.75Y-105.5
X101.75Y-109.5
X101.75Y-114.0
X101.75Y-118.05
X101.75Y-122.55
X104.0Y-73.5
X104.0Y-76.04
X104.0Y-78.58
X104.0Y-81.12
X104.0Y-83.66
X104.0Y-128.92
X104.0Y-131.46
X104.0Y-134.0
X104.0Y-136.54
X104.0Y-139.08
X108.25Y-101.0
X108.25Y-105.5
X108.25Y-109.5
X108.25Y-114.0
X108.25Y-118.05
X108.25Y-122.55
X196.0Y-73.38
X196.0Y-75.92
X196.0Y-78.46
X196.0Y-81.0
X196.0Y-83.54
X196.0Y-95.6
X196.0Y-98.14
X196.0Y-128.92
X196.0Y-131.46
X196.0Y-134.0
X196.0Y-136.54
X196.0Y-139.08
T5
X194.97Y-110.575
X194.97Y-115.425
T6
X198.0Y-110.275
X198.0Y-115.725
T7
X105.0Y-55.0
X105.0Y-145.0
X195.0Y-55.0
X195.0Y-145.0
M30
