%TF.GenerationSoftware,KiCad,Pcbnew,8.0.5*%
%TF.CreationDate,2025-02-14T12:54:28+01:00*%
%TF.ProjectId,main_board,6d61696e-5f62-46f6-9172-642e6b696361,rev?*%
%TF.SameCoordinates,Original*%
%TF.FileFunction,Profile,NP*%
%FSLAX46Y46*%
G04 Gerber Fmt 4.6, Leading zero omitted, Abs format (unit mm)*
G04 Created by KiCad (PCBNEW 8.0.5) date 2025-02-14 12:54:28*
%MOMM*%
%LPD*%
G01*
G04 APERTURE LIST*
%TA.AperFunction,Profile*%
%ADD10C,0.050000*%
%TD*%
%ADD11C,0.350000*%
G04 APERTURE END LIST*
D10*
X200000000Y-145000000D02*
G75*
G02*
X195000000Y-150000000I-5000000J0D01*
G01*
X100000000Y-145000000D02*
X100000000Y-55000000D01*
X200000000Y-55000000D02*
X200000000Y-145000000D01*
X195000000Y-50000000D02*
G75*
G02*
X200000000Y-55000000I0J-5000000D01*
G01*
X105000000Y-150000000D02*
G75*
G02*
X100000000Y-145000000I0J5000000D01*
G01*
X100000000Y-55000000D02*
G75*
G02*
X105000000Y-50000000I5000000J0D01*
G01*
X105000000Y-50000000D02*
X195000000Y-50000000D01*
X195000000Y-150000000D02*
X105000000Y-150000000D01*
D11*
X105000000Y-55000000D03*
X150210000Y-130750000D03*
X152750000Y-130750000D03*
X150210000Y-133290000D03*
X152750000Y-133290000D03*
X150210000Y-135830000D03*
X152750000Y-135830000D03*
X150210000Y-138370000D03*
X152750000Y-138370000D03*
X196000000Y-128920000D03*
X196000000Y-131460000D03*
X196000000Y-134000000D03*
X196000000Y-136540000D03*
X196000000Y-139080000D03*
X196000000Y-73380000D03*
X196000000Y-75920000D03*
X196000000Y-78460000D03*
X196000000Y-81000000D03*
X196000000Y-83540000D03*
X198000000Y-110275000D03*
X194970000Y-110575000D03*
X194970000Y-115425000D03*
X198000000Y-115725000D03*
X198130000Y-104110000D03*
X195590000Y-104110000D03*
X193050000Y-104110000D03*
X190510000Y-104110000D03*
X187970000Y-104110000D03*
X185430000Y-104110000D03*
X182890000Y-104110000D03*
X180350000Y-104110000D03*
X177810000Y-104110000D03*
X175270000Y-104110000D03*
X172730000Y-104110000D03*
X170190000Y-104110000D03*
X167650000Y-104110000D03*
X165110000Y-104110000D03*
X162570000Y-104110000D03*
X160030000Y-104110000D03*
X157490000Y-104110000D03*
X154950000Y-104110000D03*
X152410000Y-104110000D03*
X149870000Y-104110000D03*
X149870000Y-121890000D03*
X152410000Y-121890000D03*
X154950000Y-121890000D03*
X157490000Y-121890000D03*
X160030000Y-121890000D03*
X162570000Y-121890000D03*
X165110000Y-121890000D03*
X167650000Y-121890000D03*
X170190000Y-121890000D03*
X172730000Y-121890000D03*
X175270000Y-121890000D03*
X177810000Y-121890000D03*
X180350000Y-121890000D03*
X182890000Y-121890000D03*
X185430000Y-121890000D03*
X187970000Y-121890000D03*
X190510000Y-121890000D03*
X193050000Y-121890000D03*
X195590000Y-121890000D03*
X198130000Y-121890000D03*
X150100000Y-110460000D03*
X150100000Y-113000000D03*
X150100000Y-115540000D03*
X195000000Y-145000000D03*
X105000000Y-145000000D03*
X101750000Y-118050000D03*
X108250000Y-118050000D03*
X101750000Y-122550000D03*
X108250000Y-122550000D03*
X104000000Y-128920000D03*
X104000000Y-131460000D03*
X104000000Y-134000000D03*
X104000000Y-136540000D03*
X104000000Y-139080000D03*
X196000000Y-98140000D03*
X196000000Y-95600000D03*
X104000000Y-73500000D03*
X104000000Y-76040000D03*
X104000000Y-78580000D03*
X104000000Y-81120000D03*
X104000000Y-83660000D03*
X101750000Y-109500000D03*
X108250000Y-109500000D03*
X101750000Y-114000000D03*
X108250000Y-114000000D03*
X101750000Y-101000000D03*
X108250000Y-101000000D03*
X101750000Y-105500000D03*
X108250000Y-105500000D03*
X195000000Y-55000000D03*
M02*
