%TF.GenerationSoftware,KiCad,Pcbnew,8.0.5*%
%TF.CreationDate,2025-02-14T12:54:28+01:00*%
%TF.ProjectId,main_board,6d61696e-5f62-46f6-9172-642e6b696361,rev?*%
%TF.SameCoordinates,Original*%
%TF.FileFunction,Copper,L1,Top*%
%TF.FilePolarity,Positive*%
%FSLAX46Y46*%
G04 Gerber Fmt 4.6, Leading zero omitted, Abs format (unit mm)*
G04 Created by KiCad (PCBNEW 8.0.5) date 2025-02-14 12:54:28*
%MOMM*%
%LPD*%
G01*
G04 APERTURE LIST*
G04 Aperture macros list*
%AMRoundRect*
0 Rectangle with rounded corners*
0 $1 Rounding radius*
0 $2 $3 $4 $5 $6 $7 $8 $9 X,Y pos of 4 corners*
0 Add a 4 corners polygon primitive as box body*
4,1,4,$2,$3,$4,$5,$6,$7,$8,$9,$2,$3,0*
0 Add four circle primitives for the rounded corners*
1,1,$1+$1,$2,$3*
1,1,$1+$1,$4,$5*
1,1,$1+$1,$6,$7*
1,1,$1+$1,$8,$9*
0 Add four rect primitives between the rounded corners*
20,1,$1+$1,$2,$3,$4,$5,0*
20,1,$1+$1,$4,$5,$6,$7,0*
20,1,$1+$1,$6,$7,$8,$9,0*
20,1,$1+$1,$8,$9,$2,$3,0*%
G04 Aperture macros list end*
%TA.AperFunction,SMDPad,CuDef*%
%ADD10RoundRect,0.250000X-0.250000X-0.475000X0.250000X-0.475000X0.250000X0.475000X-0.250000X0.475000X0*%
%TD*%
%TA.AperFunction,SMDPad,CuDef*%
%ADD11RoundRect,0.250000X-1.500000X-0.550000X1.500000X-0.550000X1.500000X0.550000X-1.500000X0.550000X0*%
%TD*%
%TA.AperFunction,SMDPad,CuDef*%
%ADD12RoundRect,0.375000X-0.375000X0.625000X-0.375000X-0.625000X0.375000X-0.625000X0.375000X0.625000X0*%
%TD*%
%TA.AperFunction,SMDPad,CuDef*%
%ADD13RoundRect,0.500000X-1.400000X0.500000X-1.400000X-0.500000X1.400000X-0.500000X1.400000X0.500000X0*%
%TD*%
%TA.AperFunction,ComponentPad*%
%ADD14R,1.700000X1.700000*%
%TD*%
%TA.AperFunction,ComponentPad*%
%ADD15C,1.700000*%
%TD*%
%TA.AperFunction,ComponentPad*%
%ADD16R,2.100000X2.100000*%
%TD*%
%TA.AperFunction,ComponentPad*%
%ADD17C,2.100000*%
%TD*%
%TA.AperFunction,ComponentPad*%
%ADD18O,1.700000X1.700000*%
%TD*%
%TA.AperFunction,SMDPad,CuDef*%
%ADD19R,1.700000X3.500000*%
%TD*%
%TA.AperFunction,SMDPad,CuDef*%
%ADD20R,3.500000X1.700000*%
%TD*%
%TA.AperFunction,SMDPad,CuDef*%
%ADD21RoundRect,0.250000X0.625000X-0.312500X0.625000X0.312500X-0.625000X0.312500X-0.625000X-0.312500X0*%
%TD*%
%TA.AperFunction,SMDPad,CuDef*%
%ADD22RoundRect,0.250000X-0.625000X0.375000X-0.625000X-0.375000X0.625000X-0.375000X0.625000X0.375000X0*%
%TD*%
%TA.AperFunction,ComponentPad*%
%ADD23C,2.000000*%
%TD*%
%TA.AperFunction,SMDPad,CuDef*%
%ADD24RoundRect,0.250000X0.250000X0.475000X-0.250000X0.475000X-0.250000X-0.475000X0.250000X-0.475000X0*%
%TD*%
%TA.AperFunction,SMDPad,CuDef*%
%ADD25RoundRect,0.250000X-0.625000X0.312500X-0.625000X-0.312500X0.625000X-0.312500X0.625000X0.312500X0*%
%TD*%
%TA.AperFunction,SMDPad,CuDef*%
%ADD26RoundRect,0.250000X0.475000X-0.250000X0.475000X0.250000X-0.475000X0.250000X-0.475000X-0.250000X0*%
%TD*%
%TA.AperFunction,SMDPad,CuDef*%
%ADD27RoundRect,0.100000X0.100000X-0.637500X0.100000X0.637500X-0.100000X0.637500X-0.100000X-0.637500X0*%
%TD*%
%TA.AperFunction,ViaPad*%
%ADD28C,0.600000*%
%TD*%
%TA.AperFunction,Conductor*%
%ADD29C,0.200000*%
%TD*%
%TA.AperFunction,Conductor*%
%ADD30C,2.000000*%
%TD*%
%TA.AperFunction,Conductor*%
%ADD31C,0.800000*%
%TD*%
%ADD32C,0.300000*%
%ADD33C,0.350000*%
G04 APERTURE END LIST*
D10*
%TO.P,C10,2*%
%TO.N,3.3V+*%
X156750000Y-126750000D03*
%TO.P,C10,1*%
%TO.N,GND*%
X154850000Y-126750000D03*
%TD*%
D11*
%TO.P,C9,1*%
%TO.N,BAT+*%
X118700000Y-101500000D03*
%TO.P,C9,2*%
%TO.N,GND*%
X124300000Y-101500000D03*
%TD*%
D12*
%TO.P,U5,1,ADJ*%
%TO.N,GND*%
X155300000Y-77350000D03*
%TO.P,U5,2,VO*%
%TO.N,5V+*%
X153000000Y-77350000D03*
D13*
X153000000Y-83650000D03*
D12*
%TO.P,U5,3,VI*%
%TO.N,BAT+*%
X150700000Y-77350000D03*
%TD*%
D11*
%TO.P,C2,1*%
%TO.N,BAT+*%
X118700000Y-90250000D03*
%TO.P,C2,2*%
%TO.N,GND*%
X124300000Y-90250000D03*
%TD*%
D14*
%TO.P,U3,1,GND*%
%TO.N,GND*%
X150210000Y-130750000D03*
D15*
%TO.P,U3,2,VCC*%
%TO.N,3.3V+*%
X152750000Y-130750000D03*
%TO.P,U3,3,CE*%
%TO.N,CE*%
X150210000Y-133290000D03*
%TO.P,U3,4,~{CSN}*%
%TO.N,CSN*%
X152750000Y-133290000D03*
%TO.P,U3,5,SCK*%
%TO.N,SCK*%
X150210000Y-135830000D03*
%TO.P,U3,6,MOSI*%
%TO.N,MOSI*%
X152750000Y-135830000D03*
%TO.P,U3,7,MISO*%
%TO.N,MISO*%
X150210000Y-138370000D03*
%TO.P,U3,8,IRQ*%
%TO.N,unconnected-(U3-IRQ-Pad8)*%
X152750000Y-138370000D03*
%TD*%
D16*
%TO.P,SERVO_4,1,Pin_1*%
%TO.N,BAT+*%
X196000000Y-128920000D03*
D17*
%TO.P,SERVO_4,2,Pin_2*%
%TO.N,GND*%
X196000000Y-131460000D03*
%TO.P,SERVO_4,3,Pin_3*%
%TO.N,LED_4*%
X196000000Y-134000000D03*
%TO.P,SERVO_4,4,Pin_4*%
%TO.N,BUT_4*%
X196000000Y-136540000D03*
%TO.P,SERVO_4,5,Pin_5*%
%TO.N,PWM_4*%
X196000000Y-139080000D03*
%TD*%
D16*
%TO.P,SERVO_2,1,Pin_1*%
%TO.N,BAT+*%
X196000000Y-73380000D03*
D17*
%TO.P,SERVO_2,2,Pin_2*%
%TO.N,GND*%
X196000000Y-75920000D03*
%TO.P,SERVO_2,3,Pin_3*%
%TO.N,LED_2*%
X196000000Y-78460000D03*
%TO.P,SERVO_2,4,Pin_4*%
%TO.N,BUT_2*%
X196000000Y-81000000D03*
%TO.P,SERVO_2,5,Pin_5*%
%TO.N,PWM_2*%
X196000000Y-83540000D03*
%TD*%
D10*
%TO.P,C7,1*%
%TO.N,5V+*%
X165550000Y-84750000D03*
%TO.P,C7,2*%
%TO.N,GND*%
X167450000Y-84750000D03*
%TD*%
D18*
%TO.P,U4,1,GPIO0*%
%TO.N,TX_3.3*%
X198130000Y-104110000D03*
D19*
X198130000Y-103210000D03*
D18*
%TO.P,U4,2,GPIO1*%
%TO.N,RX_3.3*%
X195590000Y-104110000D03*
D19*
X195590000Y-103210000D03*
D14*
%TO.P,U4,3,GND*%
%TO.N,GND*%
X193050000Y-104110000D03*
D19*
X193050000Y-103210000D03*
D18*
%TO.P,U4,4,GPIO2*%
%TO.N,PWM_1_3v3*%
X190510000Y-104110000D03*
D19*
X190510000Y-103210000D03*
D18*
%TO.P,U4,5,GPIO3*%
%TO.N,PWM_2_3v3*%
X187970000Y-104110000D03*
D19*
X187970000Y-103210000D03*
D18*
%TO.P,U4,6,GPIO4*%
%TO.N,PWM_3_3v3*%
X185430000Y-104110000D03*
D19*
X185430000Y-103210000D03*
D18*
%TO.P,U4,7,GPIO5*%
%TO.N,PWM_4_3v3*%
X182890000Y-104110000D03*
D19*
X182890000Y-103210000D03*
D14*
%TO.P,U4,8,GND*%
%TO.N,GND*%
X180350000Y-104110000D03*
D19*
X180350000Y-103210000D03*
D18*
%TO.P,U4,9,GPIO6*%
%TO.N,LED_1*%
X177810000Y-104110000D03*
D19*
X177810000Y-103210000D03*
D18*
%TO.P,U4,10,GPIO7*%
%TO.N,LED_2*%
X175270000Y-104110000D03*
D19*
X175270000Y-103210000D03*
D18*
%TO.P,U4,11,GPIO8*%
%TO.N,LED_3*%
X172730000Y-104110000D03*
D19*
X172730000Y-103210000D03*
D18*
%TO.P,U4,12,GPIO9*%
%TO.N,LED_4*%
X170190000Y-104110000D03*
D19*
X170190000Y-103210000D03*
D14*
%TO.P,U4,13,GND*%
%TO.N,GND*%
X167650000Y-104110000D03*
D19*
X167650000Y-103210000D03*
D18*
%TO.P,U4,14,GPIO10*%
%TO.N,BUT_1*%
X165110000Y-104110000D03*
D19*
X165110000Y-103210000D03*
D18*
%TO.P,U4,15,GPIO11*%
%TO.N,BUT_2*%
X162570000Y-104110000D03*
D19*
X162570000Y-103210000D03*
D18*
%TO.P,U4,16,GPIO12*%
%TO.N,BUT_3*%
X160030000Y-104110000D03*
D19*
X160030000Y-103210000D03*
D18*
%TO.P,U4,17,GPIO13*%
%TO.N,BUT_4*%
X157490000Y-104110000D03*
D19*
X157490000Y-103210000D03*
D14*
%TO.P,U4,18,GND*%
%TO.N,GND*%
X154950000Y-104110000D03*
D19*
X154950000Y-103210000D03*
D18*
%TO.P,U4,19,GPIO14*%
%TO.N,TEST_1*%
X152410000Y-104110000D03*
D19*
X152410000Y-103210000D03*
D18*
%TO.P,U4,20,GPIO15*%
%TO.N,TEST_2*%
X149870000Y-104110000D03*
D19*
X149870000Y-103210000D03*
D18*
%TO.P,U4,21,GPIO16*%
%TO.N,MISO*%
X149870000Y-121890000D03*
D19*
X149870000Y-122790000D03*
D18*
%TO.P,U4,22,GPIO17*%
%TO.N,CSN*%
X152410000Y-121890000D03*
D19*
X152410000Y-122790000D03*
D14*
%TO.P,U4,23,GND*%
%TO.N,GND*%
X154950000Y-121890000D03*
D19*
X154950000Y-122790000D03*
D18*
%TO.P,U4,24,GPIO18*%
%TO.N,SCK*%
X157490000Y-121890000D03*
D19*
X157490000Y-122790000D03*
D18*
%TO.P,U4,25,GPIO19*%
%TO.N,MOSI*%
X160030000Y-121890000D03*
D19*
X160030000Y-122790000D03*
D18*
%TO.P,U4,26,GPIO20*%
%TO.N,TEST_3*%
X162570000Y-121890000D03*
D19*
X162570000Y-122790000D03*
D18*
%TO.P,U4,27,GPIO21*%
%TO.N,unconnected-(U4-GPIO21-Pad27)*%
X165110000Y-121890000D03*
D19*
%TO.N,unconnected-(U4-GPIO21-Pad27)_1*%
X165110000Y-122790000D03*
D14*
%TO.P,U4,28,GND*%
%TO.N,GND*%
X167650000Y-121890000D03*
D19*
X167650000Y-122790000D03*
D18*
%TO.P,U4,29,GPIO22*%
%TO.N,CE*%
X170190000Y-121890000D03*
D19*
X170190000Y-122790000D03*
D18*
%TO.P,U4,30,RUN*%
%TO.N,unconnected-(U4-RUN-Pad30)*%
X172730000Y-121890000D03*
D19*
%TO.N,unconnected-(U4-RUN-Pad30)_1*%
X172730000Y-122790000D03*
D18*
%TO.P,U4,31,GPIO26_ADC0*%
%TO.N,unconnected-(U4-GPIO26_ADC0-Pad31)_1*%
X175270000Y-121890000D03*
D19*
%TO.N,unconnected-(U4-GPIO26_ADC0-Pad31)*%
X175270000Y-122790000D03*
D18*
%TO.P,U4,32,GPIO27_ADC1*%
%TO.N,unconnected-(U4-GPIO27_ADC1-Pad32)*%
X177810000Y-121890000D03*
D19*
%TO.N,unconnected-(U4-GPIO27_ADC1-Pad32)_1*%
X177810000Y-122790000D03*
D14*
%TO.P,U4,33,AGND*%
%TO.N,unconnected-(U4-AGND-Pad33)*%
X180350000Y-121890000D03*
D19*
%TO.N,unconnected-(U4-AGND-Pad33)_1*%
X180350000Y-122790000D03*
D18*
%TO.P,U4,34,GPIO28_ADC2*%
%TO.N,unconnected-(U4-GPIO28_ADC2-Pad34)*%
X182890000Y-121890000D03*
D19*
%TO.N,unconnected-(U4-GPIO28_ADC2-Pad34)_1*%
X182890000Y-122790000D03*
D18*
%TO.P,U4,35,ADC_VREF*%
%TO.N,unconnected-(U4-ADC_VREF-Pad35)_1*%
X185430000Y-121890000D03*
D19*
%TO.N,unconnected-(U4-ADC_VREF-Pad35)*%
X185430000Y-122790000D03*
D18*
%TO.P,U4,36,3V3*%
%TO.N,unconnected-(U4-3V3-Pad36)*%
X187970000Y-121890000D03*
D19*
%TO.N,unconnected-(U4-3V3-Pad36)_1*%
X187970000Y-122790000D03*
D18*
%TO.P,U4,37,3V3_EN*%
%TO.N,unconnected-(U4-3V3_EN-Pad37)*%
X190510000Y-121890000D03*
D19*
%TO.N,unconnected-(U4-3V3_EN-Pad37)_1*%
X190510000Y-122790000D03*
D14*
%TO.P,U4,38,GND*%
%TO.N,GND*%
X193050000Y-121890000D03*
D19*
X193050000Y-122790000D03*
D18*
%TO.P,U4,39,VSYS*%
%TO.N,3.3V+*%
X195590000Y-121890000D03*
D19*
X195590000Y-122790000D03*
D18*
%TO.P,U4,40,VBUS*%
%TO.N,unconnected-(U4-VBUS-Pad40)_1*%
X198130000Y-121890000D03*
D19*
%TO.N,unconnected-(U4-VBUS-Pad40)*%
X198130000Y-122790000D03*
D18*
%TO.P,U4,41,SWCLK*%
%TO.N,unconnected-(U4-SWCLK-Pad41)*%
X150100000Y-110460000D03*
D20*
X149200000Y-110460000D03*
D14*
%TO.P,U4,42,GND*%
%TO.N,unconnected-(U4-GND-Pad42)*%
X150100000Y-113000000D03*
D20*
X149200000Y-113000000D03*
D18*
%TO.P,U4,43,SWDIO*%
%TO.N,unconnected-(U4-SWDIO-Pad43)*%
X150100000Y-115540000D03*
D20*
X149200000Y-115540000D03*
%TD*%
D12*
%TO.P,U1,1,ADJ*%
%TO.N,GND*%
X180550000Y-82850000D03*
%TO.P,U1,2,VO*%
%TO.N,3.3V+*%
X178250000Y-82850000D03*
D13*
X178250000Y-89150000D03*
D12*
%TO.P,U1,3,VI*%
%TO.N,BAT+*%
X175950000Y-82850000D03*
%TD*%
D21*
%TO.P,R1,1*%
%TO.N,5V+*%
X161500000Y-84462500D03*
%TO.P,R1,2*%
%TO.N,Net-(D1-A)*%
X161500000Y-81537500D03*
%TD*%
%TO.P,R2,1*%
%TO.N,3.3V+*%
X183750000Y-89712500D03*
%TO.P,R2,2*%
%TO.N,Net-(D2-A)*%
X183750000Y-86787500D03*
%TD*%
D10*
%TO.P,C8,1*%
%TO.N,BAT+*%
X151050000Y-74250000D03*
%TO.P,C8,2*%
%TO.N,GND*%
X152950000Y-74250000D03*
%TD*%
D22*
%TO.P,D1,1,K*%
%TO.N,GND*%
X161500000Y-76100000D03*
%TO.P,D1,2,A*%
%TO.N,Net-(D1-A)*%
X161500000Y-78900000D03*
%TD*%
D23*
%TO.P,SW3,1,1*%
%TO.N,TEST_3*%
X101750000Y-118050000D03*
X108250000Y-118050000D03*
%TO.P,SW3,2,2*%
%TO.N,GND*%
X101750000Y-122550000D03*
X108250000Y-122550000D03*
%TD*%
D16*
%TO.P,SERVO_3,1,Pin_1*%
%TO.N,BAT+*%
X104000000Y-128920000D03*
D17*
%TO.P,SERVO_3,2,Pin_2*%
%TO.N,GND*%
X104000000Y-131460000D03*
%TO.P,SERVO_3,3,Pin_3*%
%TO.N,LED_3*%
X104000000Y-134000000D03*
%TO.P,SERVO_3,4,Pin_4*%
%TO.N,BUT_3*%
X104000000Y-136540000D03*
%TO.P,SERVO_3,5,Pin_5*%
%TO.N,PWM_3*%
X104000000Y-139080000D03*
%TD*%
D16*
%TO.P,RX_TX_1,1,Pin_1*%
%TO.N,RX*%
X196000000Y-98140000D03*
D17*
%TO.P,RX_TX_1,2,Pin_2*%
%TO.N,TX*%
X196000000Y-95600000D03*
%TD*%
D24*
%TO.P,C6,1*%
%TO.N,3.3V+*%
X160200000Y-92750000D03*
%TO.P,C6,2*%
%TO.N,GND*%
X158300000Y-92750000D03*
%TD*%
D16*
%TO.P,SERVO_1,1,Pin_1*%
%TO.N,BAT+*%
X104000000Y-73500000D03*
D17*
%TO.P,SERVO_1,2,Pin_2*%
%TO.N,GND*%
X104000000Y-76040000D03*
%TO.P,SERVO_1,3,Pin_3*%
%TO.N,LED_1*%
X104000000Y-78580000D03*
%TO.P,SERVO_1,4,Pin_4*%
%TO.N,BUT_1*%
X104000000Y-81120000D03*
%TO.P,SERVO_1,5,Pin_5*%
%TO.N,PWM_1*%
X104000000Y-83660000D03*
%TD*%
D10*
%TO.P,C5,1*%
%TO.N,BAT+*%
X120300000Y-96000000D03*
%TO.P,C5,2*%
%TO.N,GND*%
X122200000Y-96000000D03*
%TD*%
D25*
%TO.P,R3,1*%
%TO.N,GND*%
X170500000Y-89825000D03*
%TO.P,R3,2*%
%TO.N,Net-(U2-OE)*%
X170500000Y-92750000D03*
%TD*%
D10*
%TO.P,C3,1*%
%TO.N,BAT+*%
X177250000Y-78750000D03*
%TO.P,C3,2*%
%TO.N,GND*%
X179150000Y-78750000D03*
%TD*%
D22*
%TO.P,D2,1,K*%
%TO.N,GND*%
X183750000Y-82100000D03*
%TO.P,D2,2,A*%
%TO.N,Net-(D2-A)*%
X183750000Y-84900000D03*
%TD*%
D23*
%TO.P,SW1,1,1*%
%TO.N,TEST_1*%
X101750000Y-109500000D03*
X108250000Y-109500000D03*
%TO.P,SW1,2,2*%
%TO.N,GND*%
X101750000Y-114000000D03*
X108250000Y-114000000D03*
%TD*%
%TO.P,SW2,1,1*%
%TO.N,TEST_2*%
X101750000Y-101000000D03*
X108250000Y-101000000D03*
%TO.P,SW2,2,2*%
%TO.N,GND*%
X101750000Y-105500000D03*
X108250000Y-105500000D03*
%TD*%
D26*
%TO.P,C4,1*%
%TO.N,3.3V+*%
X172000000Y-85950000D03*
%TO.P,C4,2*%
%TO.N,GND*%
X172000000Y-84050000D03*
%TD*%
D27*
%TO.P,U2,1,A1*%
%TO.N,PWM_4_3v3*%
X162075000Y-92862500D03*
%TO.P,U2,2,VCCA*%
%TO.N,3.3V+*%
X162725000Y-92862500D03*
%TO.P,U2,3,A2*%
%TO.N,PWM_3_3v3*%
X163375000Y-92862500D03*
%TO.P,U2,4,A3*%
%TO.N,PWM_2_3v3*%
X164025000Y-92862500D03*
%TO.P,U2,5,A4*%
%TO.N,PWM_1_3v3*%
X164675000Y-92862500D03*
%TO.P,U2,6,A5*%
%TO.N,RX_3.3*%
X165325000Y-92862500D03*
%TO.P,U2,7,A6*%
%TO.N,TX_3.3*%
X165975000Y-92862500D03*
%TO.P,U2,8,A7*%
%TO.N,unconnected-(U2-A7-Pad8)*%
X166625000Y-92862500D03*
%TO.P,U2,9,A8*%
%TO.N,unconnected-(U2-A8-Pad9)*%
X167275000Y-92862500D03*
%TO.P,U2,10,OE*%
%TO.N,Net-(U2-OE)*%
X167925000Y-92862500D03*
%TO.P,U2,11,GND*%
%TO.N,GND*%
X167925000Y-87137500D03*
%TO.P,U2,12,B8*%
%TO.N,unconnected-(U2-B8-Pad12)*%
X167275000Y-87137500D03*
%TO.P,U2,13,B7*%
%TO.N,unconnected-(U2-B7-Pad13)*%
X166625000Y-87137500D03*
%TO.P,U2,14,B6*%
%TO.N,TX*%
X165975000Y-87137500D03*
%TO.P,U2,15,B5*%
%TO.N,RX*%
X165325000Y-87137500D03*
%TO.P,U2,16,B4*%
%TO.N,PWM_4*%
X164675000Y-87137500D03*
%TO.P,U2,17,B3*%
%TO.N,PWM_3*%
X164025000Y-87137500D03*
%TO.P,U2,18,B2*%
%TO.N,PWM_2*%
X163375000Y-87137500D03*
%TO.P,U2,19,VCCB*%
%TO.N,5V+*%
X162725000Y-87137500D03*
%TO.P,U2,20,B1*%
%TO.N,PWM_1*%
X162075000Y-87137500D03*
%TD*%
D10*
%TO.P,C1,1*%
%TO.N,5V+*%
X152800000Y-86500000D03*
%TO.P,C1,2*%
%TO.N,GND*%
X154700000Y-86500000D03*
%TD*%
D28*
%TO.N,3.3V+*%
X158000000Y-127250000D03*
X156750000Y-129250000D03*
%TO.N,GND*%
X153500000Y-126750000D03*
X159750000Y-75500000D03*
X126500000Y-101500000D03*
%TO.N,3.3V+*%
X181600000Y-87500000D03*
X188500000Y-130250000D03*
X176000000Y-86100000D03*
X176700000Y-86100000D03*
X179500000Y-84700000D03*
X180300000Y-88800000D03*
X180900000Y-86800000D03*
X175300000Y-86800000D03*
X179500000Y-85400000D03*
X180200000Y-84700000D03*
X180200000Y-86100000D03*
X174600000Y-88200000D03*
X180900000Y-87500000D03*
X181600000Y-84700000D03*
X174600000Y-89600000D03*
X180900000Y-88200000D03*
X175300000Y-89600000D03*
X176700000Y-87500000D03*
X181500000Y-90300000D03*
X180900000Y-85400000D03*
X181600000Y-88900000D03*
X175300000Y-90300000D03*
X181600000Y-86100000D03*
X181500000Y-89600000D03*
X176000000Y-87500000D03*
X174600000Y-90300000D03*
X174750000Y-91500000D03*
X184500000Y-97750000D03*
X180900000Y-84700000D03*
X176000000Y-85400000D03*
X176000000Y-88900000D03*
X176700000Y-85400000D03*
X176000000Y-90300000D03*
X174600000Y-88900000D03*
X180200000Y-87500000D03*
X174600000Y-87500000D03*
X181600000Y-88200000D03*
X180300000Y-88100000D03*
X184250000Y-92750000D03*
X176700000Y-84700000D03*
X181600000Y-86800000D03*
X180800000Y-90300000D03*
X175300000Y-84700000D03*
X180800000Y-89600000D03*
X179500000Y-86800000D03*
X175300000Y-87500000D03*
X175300000Y-88900000D03*
X179500000Y-86100000D03*
X176700000Y-86800000D03*
X174600000Y-86800000D03*
X180900000Y-86100000D03*
X180200000Y-85400000D03*
X176000000Y-89600000D03*
X181600000Y-85400000D03*
X176000000Y-88200000D03*
X163000000Y-91250000D03*
X180200000Y-86800000D03*
X176000000Y-84700000D03*
X174600000Y-84700000D03*
X175300000Y-86100000D03*
X175300000Y-88200000D03*
X174600000Y-86100000D03*
X175300000Y-85400000D03*
X174600000Y-85400000D03*
X179500000Y-87500000D03*
X180900000Y-88900000D03*
X176000000Y-86800000D03*
%TO.N,BAT+*%
X109500000Y-86250000D03*
X114750000Y-86250000D03*
X108000000Y-94000000D03*
X105750000Y-88000000D03*
X107250000Y-94000000D03*
X105750000Y-87250000D03*
X111000000Y-86250000D03*
X110250000Y-86250000D03*
X105750000Y-89500000D03*
X111000000Y-94000000D03*
X105750000Y-94000000D03*
X105750000Y-91000000D03*
X105750000Y-88750000D03*
X115500000Y-88750000D03*
X114750000Y-94000000D03*
X112500000Y-94000000D03*
X114000000Y-94000000D03*
X115500000Y-94000000D03*
X115500000Y-87250000D03*
X112500000Y-86250000D03*
X105750000Y-90250000D03*
X115500000Y-92500000D03*
X115500000Y-91750000D03*
X115500000Y-88000000D03*
X106500000Y-94000000D03*
X111750000Y-86250000D03*
X108750000Y-94000000D03*
X114000000Y-86250000D03*
X109500000Y-94000000D03*
X115500000Y-93250000D03*
X115500000Y-91000000D03*
X105750000Y-91750000D03*
X113250000Y-94000000D03*
X115500000Y-90250000D03*
X105750000Y-92500000D03*
X110250000Y-94000000D03*
X115500000Y-86500000D03*
X111750000Y-94000000D03*
X105750000Y-93250000D03*
X113250000Y-86250000D03*
X115500000Y-89500000D03*
%TO.N,GND*%
X155500000Y-106500000D03*
X123750000Y-95750000D03*
X109750000Y-116250000D03*
X191750000Y-119250000D03*
X157750000Y-77350000D03*
X157000000Y-77350000D03*
X180250000Y-106000000D03*
X158400000Y-77350000D03*
X172000000Y-83000000D03*
X155300000Y-75500000D03*
X167500000Y-106500000D03*
X155125000Y-74625000D03*
X156500000Y-92750000D03*
X154250000Y-74250000D03*
X167250000Y-119750000D03*
X192750000Y-106000000D03*
X127250000Y-90500000D03*
X183750000Y-80750000D03*
X170000000Y-88500000D03*
X180395406Y-78350000D03*
X169200000Y-87137500D03*
X153750000Y-120000000D03*
X109500000Y-107250000D03*
X169300000Y-84100000D03*
X156000000Y-86000000D03*
X108250000Y-125000000D03*
%TO.N,PWM_1*%
X133250000Y-85000000D03*
X126250000Y-85000000D03*
%TO.N,BUT_1*%
X140750000Y-94600000D03*
X139250000Y-93400000D03*
X128750000Y-84250000D03*
X125500000Y-84250000D03*
%TO.N,BUT_2*%
X188000000Y-94150000D03*
X162875000Y-100125000D03*
%TO.N,LED_2*%
X186900000Y-94950000D03*
X174000000Y-99750000D03*
%TO.N,PWM_3*%
X138500000Y-89000000D03*
X132250000Y-135750000D03*
%TO.N,BUT_3*%
X135750000Y-108500000D03*
X132250000Y-134500000D03*
%TO.N,LED_3*%
X134500000Y-109750000D03*
X132500000Y-133250000D03*
%TO.N,PWM_4*%
X139500000Y-137250000D03*
X139250000Y-89500000D03*
%TO.N,LED_4*%
X169750000Y-105750000D03*
X189250000Y-120250000D03*
%TO.N,BUT_4*%
X157250000Y-105750000D03*
X186250000Y-119750000D03*
%TO.N,CSN*%
X151600000Y-125500000D03*
%TO.N,MOSI*%
X159750000Y-131500000D03*
%TO.N,5V+*%
X150300000Y-83100000D03*
X151000000Y-80000000D03*
X154300000Y-80700000D03*
X155000000Y-79300000D03*
X155700000Y-81000000D03*
X150300000Y-82400000D03*
X155700000Y-82400000D03*
X156400000Y-83800000D03*
X155000000Y-80000000D03*
X155000000Y-80700000D03*
X151700000Y-80700000D03*
X151000000Y-80700000D03*
X150300000Y-80200000D03*
X151700000Y-79300000D03*
X149600000Y-80200000D03*
X151000000Y-81400000D03*
X154300000Y-81400000D03*
X151700000Y-80000000D03*
X155700000Y-84500000D03*
X156400000Y-83100000D03*
X150300000Y-81000000D03*
X156400000Y-82400000D03*
X155700000Y-80200000D03*
X151700000Y-81400000D03*
X156400000Y-79300000D03*
X150300000Y-81700000D03*
X149600000Y-81000000D03*
X149600000Y-82400000D03*
X155700000Y-79300000D03*
X149600000Y-83800000D03*
X154300000Y-79300000D03*
X154300000Y-80000000D03*
X156400000Y-81000000D03*
X155000000Y-81400000D03*
X156400000Y-81700000D03*
X156400000Y-84500000D03*
X149600000Y-79300000D03*
X150300000Y-79300000D03*
X155700000Y-81700000D03*
X150300000Y-84500000D03*
X149600000Y-81700000D03*
X155700000Y-83100000D03*
X149600000Y-83100000D03*
X151000000Y-79300000D03*
X155700000Y-83800000D03*
X156400000Y-80200000D03*
X149600000Y-84500000D03*
X150300000Y-83800000D03*
%TD*%
D29*
%TO.N,3.3V+*%
X157500000Y-126750000D02*
X156750000Y-126750000D01*
X158000000Y-127250000D02*
X157500000Y-126750000D01*
X156000000Y-130750000D02*
X156000000Y-130000000D01*
X156000000Y-130750000D02*
X188000000Y-130750000D01*
X156000000Y-130000000D02*
X156750000Y-129250000D01*
X152750000Y-130750000D02*
X156000000Y-130750000D01*
%TO.N,GND*%
X154850000Y-126750000D02*
X153500000Y-126750000D01*
X160350000Y-76100000D02*
X159750000Y-75500000D01*
X161500000Y-76100000D02*
X160350000Y-76100000D01*
%TO.N,Net-(D1-A)*%
X161500000Y-81537500D02*
X161500000Y-78900000D01*
%TO.N,5V+*%
X153812500Y-84462500D02*
X153000000Y-83650000D01*
X161500000Y-84462500D02*
X153812500Y-84462500D01*
X162630956Y-86081544D02*
X162725000Y-85987500D01*
X161825000Y-86081544D02*
X162630956Y-86081544D01*
X163962500Y-84750000D02*
X165550000Y-84750000D01*
X162725000Y-85987500D02*
X163962500Y-84750000D01*
D30*
%TO.N,BAT+*%
X177250000Y-72000000D02*
X177250000Y-78750000D01*
X177250000Y-72000000D02*
X152000000Y-72000000D01*
X181120000Y-72000000D02*
X177250000Y-72000000D01*
X175950000Y-80304594D02*
X175950000Y-82850000D01*
X175845406Y-80200000D02*
X175950000Y-80304594D01*
D31*
X175845406Y-82745406D02*
X175950000Y-82850000D01*
D30*
%TO.N,GND*%
X124300000Y-101500000D02*
X126500000Y-101500000D01*
%TO.N,BAT+*%
X113200000Y-96000000D02*
X113200000Y-92100000D01*
X118700000Y-101500000D02*
X113200000Y-96000000D01*
D29*
%TO.N,3.3V+*%
X184250000Y-92750000D02*
X180750000Y-89250000D01*
X160200000Y-92750000D02*
X161450000Y-91500000D01*
X192750000Y-119050000D02*
X195590000Y-121890000D01*
X163000000Y-91250000D02*
X162725000Y-91525000D01*
X162125000Y-91500000D02*
X162725000Y-92100000D01*
X192750000Y-108650000D02*
X192750000Y-119050000D01*
X161450000Y-91500000D02*
X162125000Y-91500000D01*
X172000000Y-85950000D02*
X172000000Y-87000000D01*
X178145406Y-89250000D02*
X175895406Y-91500000D01*
X172000000Y-87000000D02*
X174250000Y-89250000D01*
X184500000Y-97750000D02*
X185710000Y-97750000D01*
X174250000Y-89250000D02*
X178145406Y-89250000D01*
X180750000Y-89250000D02*
X178145406Y-89250000D01*
X178820406Y-89925000D02*
X178145406Y-89250000D01*
X162725000Y-92100000D02*
X162725000Y-92862500D01*
X178145406Y-82950000D02*
X177800000Y-82950000D01*
X188000000Y-130750000D02*
X188500000Y-130250000D01*
X175895406Y-91500000D02*
X174750000Y-91500000D01*
X189360000Y-105260000D02*
X192750000Y-108650000D01*
X183750000Y-89925000D02*
X178820406Y-89925000D01*
X185710000Y-97750000D02*
X189360000Y-101400000D01*
X162725000Y-91525000D02*
X162725000Y-92862500D01*
X189360000Y-101400000D02*
X189360000Y-105260000D01*
D31*
X177620406Y-89775000D02*
X178145406Y-89250000D01*
D30*
%TO.N,BAT+*%
X101750000Y-75108019D02*
X101750000Y-84591981D01*
D31*
X115500000Y-92250000D02*
X115500000Y-90250000D01*
X119250000Y-96000000D02*
X115500000Y-92250000D01*
D30*
X104000000Y-73500000D02*
X103358019Y-73500000D01*
D31*
X120300000Y-96000000D02*
X119250000Y-96000000D01*
D30*
X182500000Y-73380000D02*
X181120000Y-72000000D01*
X152000000Y-72000000D02*
X150700000Y-73300000D01*
X105908019Y-88750000D02*
X109000000Y-88750000D01*
X118700000Y-90250000D02*
X115500000Y-90250000D01*
X101750000Y-84591981D02*
X105908019Y-88750000D01*
X177195406Y-78850000D02*
X175845406Y-80200000D01*
X150700000Y-73300000D02*
X150700000Y-77350000D01*
X150700000Y-77350000D02*
X146850000Y-73500000D01*
X103358019Y-73500000D02*
X101750000Y-75108019D01*
X146850000Y-73500000D02*
X104000000Y-73500000D01*
X182500000Y-73380000D02*
X196000000Y-73380000D01*
D31*
%TO.N,GND*%
X154250000Y-74250000D02*
X154750000Y-74250000D01*
X155300000Y-74800000D02*
X155300000Y-75500000D01*
X154950000Y-104110000D02*
X154950000Y-105950000D01*
D29*
X170500000Y-89825000D02*
X170500000Y-89000000D01*
D31*
X154950000Y-105950000D02*
X155500000Y-106500000D01*
X155125000Y-74625000D02*
X155300000Y-74800000D01*
X167650000Y-106350000D02*
X167500000Y-106500000D01*
D29*
X169200000Y-87137500D02*
X167925000Y-87137500D01*
D31*
X157000000Y-77350000D02*
X157750000Y-77350000D01*
D29*
X154700000Y-86500000D02*
X155500000Y-86500000D01*
D31*
X179895406Y-78850000D02*
X180395406Y-78350000D01*
D29*
X109750000Y-115750000D02*
X109750000Y-116250000D01*
D31*
X180350000Y-104110000D02*
X180350000Y-105900000D01*
X123500000Y-96000000D02*
X123750000Y-95750000D01*
D29*
X108000000Y-105450000D02*
X101500000Y-105450000D01*
X108000000Y-114000000D02*
X109750000Y-115750000D01*
D31*
X158300000Y-92750000D02*
X156500000Y-92750000D01*
X155300000Y-77350000D02*
X157000000Y-77350000D01*
X153200000Y-74000000D02*
X152950000Y-74250000D01*
X155300000Y-75500000D02*
X155300000Y-77350000D01*
X180445406Y-80200000D02*
X180445406Y-82950000D01*
X168650000Y-84750000D02*
X169300000Y-84100000D01*
X124300000Y-90250000D02*
X127000000Y-90250000D01*
X154950000Y-121890000D02*
X154950000Y-121200000D01*
D29*
X108000000Y-124750000D02*
X108250000Y-125000000D01*
X108000000Y-122550000D02*
X108000000Y-124750000D01*
D31*
X183750000Y-82062500D02*
X183750000Y-80750000D01*
X152950000Y-74250000D02*
X154250000Y-74250000D01*
X193050000Y-120550000D02*
X191750000Y-119250000D01*
X167450000Y-84750000D02*
X168650000Y-84750000D01*
X193050000Y-105700000D02*
X192750000Y-106000000D01*
X157750000Y-77350000D02*
X158400000Y-77350000D01*
X122200000Y-96000000D02*
X123500000Y-96000000D01*
D29*
X172000000Y-84050000D02*
X172000000Y-83000000D01*
X108000000Y-105450000D02*
X109500000Y-106950000D01*
D31*
X193050000Y-121890000D02*
X193050000Y-120550000D01*
X127000000Y-90250000D02*
X127250000Y-90500000D01*
X167650000Y-121890000D02*
X167650000Y-120150000D01*
D29*
X108000000Y-114000000D02*
X101500000Y-114000000D01*
D31*
X158500000Y-77250000D02*
X158400000Y-77350000D01*
X179095406Y-78850000D02*
X179895406Y-78850000D01*
X154750000Y-74250000D02*
X155125000Y-74625000D01*
D29*
X170500000Y-89000000D02*
X170000000Y-88500000D01*
D31*
X179095406Y-78850000D02*
X180445406Y-80200000D01*
D29*
X109500000Y-106950000D02*
X109500000Y-107250000D01*
X155500000Y-86500000D02*
X156000000Y-86000000D01*
D31*
X167650000Y-104110000D02*
X167650000Y-106350000D01*
X154950000Y-121200000D02*
X153750000Y-120000000D01*
X193050000Y-104110000D02*
X193050000Y-105700000D01*
X180350000Y-105900000D02*
X180250000Y-106000000D01*
D29*
X108000000Y-122550000D02*
X101500000Y-122550000D01*
D31*
X167650000Y-120150000D02*
X167250000Y-119750000D01*
D29*
%TO.N,TX*%
X186481372Y-95600000D02*
X196000000Y-95600000D01*
X169669044Y-91487500D02*
X171525430Y-91487500D01*
X173787930Y-93750000D02*
X184631372Y-93750000D01*
X171525430Y-91487500D02*
X173787930Y-93750000D01*
X165975000Y-87793456D02*
X169669044Y-91487500D01*
X184631372Y-93750000D02*
X186481372Y-95600000D01*
X165975000Y-87137500D02*
X165975000Y-87793456D01*
%TO.N,RX*%
X171675000Y-93297244D02*
X172577756Y-94200000D01*
X172577756Y-94200000D02*
X184515686Y-94200000D01*
X171675000Y-92202756D02*
X171675000Y-93297244D01*
X169305956Y-91855955D02*
X169305956Y-91887500D01*
X184515686Y-94200000D02*
X188455686Y-98140000D01*
X171359744Y-91887500D02*
X171675000Y-92202756D01*
X165325000Y-87874999D02*
X169305956Y-91855955D01*
X169305956Y-91887500D02*
X171359744Y-91887500D01*
X188455686Y-98140000D02*
X196000000Y-98140000D01*
X165325000Y-87137500D02*
X165325000Y-87874999D01*
%TO.N,PWM_1*%
X134771728Y-86521728D02*
X134771728Y-87750000D01*
X135271728Y-88250000D02*
X134771728Y-87750000D01*
X160828272Y-87750000D02*
X160328272Y-88250000D01*
X125000000Y-85000000D02*
X126250000Y-85000000D01*
X160328272Y-88250000D02*
X135271728Y-88250000D01*
X162075000Y-87137500D02*
X162075000Y-86481544D01*
X105340000Y-85000000D02*
X125000000Y-85000000D01*
X133250000Y-85000000D02*
X134771728Y-86521728D01*
X162075000Y-86481544D02*
X160806544Y-87750000D01*
X104000000Y-83660000D02*
X105340000Y-85000000D01*
%TO.N,LED_1*%
X164150000Y-97400000D02*
X161000000Y-94250000D01*
X106020000Y-80600000D02*
X104000000Y-78580000D01*
X161000000Y-94250000D02*
X160750000Y-94250000D01*
X177810000Y-104110000D02*
X177810000Y-102550000D01*
X177810000Y-102550000D02*
X172660000Y-97400000D01*
X137250000Y-94000000D02*
X123850000Y-80600000D01*
X160750000Y-94250000D02*
X160500000Y-94000000D01*
X172660000Y-97400000D02*
X164150000Y-97400000D01*
X160500000Y-94000000D02*
X137250000Y-94000000D01*
X123850000Y-80600000D02*
X106020000Y-80600000D01*
%TO.N,BUT_1*%
X128750000Y-84250000D02*
X130000000Y-84250000D01*
X139250000Y-93325000D02*
X130087500Y-84162500D01*
X165110000Y-101511471D02*
X165110000Y-104110000D01*
X140900000Y-94750000D02*
X158348529Y-94750000D01*
X130000000Y-84250000D02*
X130087500Y-84162500D01*
X139250000Y-93400000D02*
X139250000Y-93325000D01*
X107130000Y-84250000D02*
X125500000Y-84250000D01*
X158348529Y-94750000D02*
X165110000Y-101511471D01*
X140750000Y-94600000D02*
X140900000Y-94750000D01*
X104000000Y-81120000D02*
X107130000Y-84250000D01*
%TO.N,BUT_2*%
X193450000Y-94150000D02*
X197350000Y-90250000D01*
X162570000Y-100430000D02*
X162570000Y-104110000D01*
X197350000Y-82350000D02*
X196000000Y-81000000D01*
X162875000Y-100125000D02*
X162570000Y-100430000D01*
X188000000Y-94150000D02*
X193450000Y-94150000D01*
X197350000Y-90250000D02*
X197350000Y-82350000D01*
%TO.N,LED_2*%
X186900000Y-94950000D02*
X187100000Y-94750000D01*
X175270000Y-101020000D02*
X174000000Y-99750000D01*
X194150000Y-94750000D02*
X199000000Y-89900000D01*
X187100000Y-94750000D02*
X194150000Y-94750000D01*
X199000000Y-89900000D02*
X199000000Y-81460000D01*
X175270000Y-104110000D02*
X175270000Y-101020000D01*
X199000000Y-81460000D02*
X196000000Y-78460000D01*
%TO.N,PWM_2*%
X163375000Y-87137500D02*
X163375000Y-86400001D01*
X196000000Y-90500000D02*
X196000000Y-83540000D01*
X163675001Y-86100000D02*
X169600000Y-86100000D01*
X183651471Y-93000000D02*
X184001471Y-93350000D01*
X193150000Y-93350000D02*
X196000000Y-90500000D01*
X172750000Y-89250000D02*
X172750000Y-90750000D01*
X172750000Y-90750000D02*
X175000000Y-93000000D01*
X163375000Y-86400001D02*
X163675001Y-86100000D01*
X169600000Y-86100000D02*
X172750000Y-89250000D01*
X184001471Y-93350000D02*
X193150000Y-93350000D01*
X175000000Y-93000000D02*
X183651471Y-93000000D01*
%TO.N,PWM_3*%
X118170000Y-139080000D02*
X104000000Y-139080000D01*
X132250000Y-135750000D02*
X121500000Y-135750000D01*
X138750000Y-88750000D02*
X138500000Y-89000000D01*
X163000000Y-89000000D02*
X155750000Y-89000000D01*
X164025000Y-87137500D02*
X164025000Y-87975000D01*
X155500000Y-88750000D02*
X138750000Y-88750000D01*
X164025000Y-87975000D02*
X163000000Y-89000000D01*
X155750000Y-89000000D02*
X155500000Y-88750000D01*
X121500000Y-135750000D02*
X118170000Y-139080000D01*
%TO.N,BUT_3*%
X106040000Y-134500000D02*
X104000000Y-136540000D01*
X132250000Y-134500000D02*
X106040000Y-134500000D01*
X143500000Y-108250000D02*
X136000000Y-108250000D01*
X155890000Y-108250000D02*
X143500000Y-108250000D01*
X160030000Y-104110000D02*
X155890000Y-108250000D01*
X136000000Y-108250000D02*
X135750000Y-108500000D01*
%TO.N,LED_3*%
X135000000Y-109250000D02*
X134500000Y-109750000D01*
X143500000Y-109250000D02*
X135000000Y-109250000D01*
X132500000Y-133250000D02*
X131750000Y-134000000D01*
X168090000Y-108750000D02*
X144000000Y-108750000D01*
X172730000Y-104110000D02*
X168090000Y-108750000D01*
X131750000Y-134000000D02*
X104000000Y-134000000D01*
X144000000Y-108750000D02*
X143500000Y-109250000D01*
%TO.N,PWM_4*%
X163065686Y-89500000D02*
X164675000Y-87890686D01*
X162750000Y-142750000D02*
X145000000Y-142750000D01*
X139250000Y-89500000D02*
X163065686Y-89500000D01*
X196000000Y-139080000D02*
X193580000Y-141500000D01*
X193580000Y-141500000D02*
X164000000Y-141500000D01*
X164675000Y-87890686D02*
X164675000Y-87137500D01*
X164000000Y-141500000D02*
X162750000Y-142750000D01*
X145000000Y-142750000D02*
X139500000Y-137250000D01*
%TO.N,LED_4*%
X189250000Y-127250000D02*
X196000000Y-134000000D01*
X170190000Y-104110000D02*
X170190000Y-105310000D01*
X189250000Y-120250000D02*
X189250000Y-127250000D01*
X170190000Y-105310000D02*
X169750000Y-105750000D01*
%TO.N,BUT_4*%
X157490000Y-105510000D02*
X157250000Y-105750000D01*
X186250000Y-119750000D02*
X186580000Y-120080000D01*
X186580000Y-120080000D02*
X186580000Y-127120000D01*
X186580000Y-127120000D02*
X196000000Y-136540000D01*
X157490000Y-104110000D02*
X157490000Y-105510000D01*
%TO.N,TEST_1*%
X108250000Y-109500000D02*
X110000000Y-107750000D01*
X108000000Y-109500000D02*
X101500000Y-109500000D01*
X110000000Y-107750000D02*
X148770000Y-107750000D01*
X148770000Y-107750000D02*
X152410000Y-104110000D01*
%TO.N,TEST_2*%
X114600000Y-107350000D02*
X146630000Y-107350000D01*
X146630000Y-107350000D02*
X149870000Y-104110000D01*
X108250000Y-101000000D02*
X114600000Y-107350000D01*
X108000000Y-100950000D02*
X101500000Y-100950000D01*
%TO.N,TEST_3*%
X108250000Y-118050000D02*
X101750000Y-118050000D01*
X109475736Y-116824264D02*
X109501471Y-116850000D01*
X162570000Y-120320000D02*
X162570000Y-121890000D01*
X151500000Y-109250000D02*
X162570000Y-120320000D01*
X143000000Y-110500000D02*
X144250000Y-109250000D01*
X109998529Y-116850000D02*
X116348529Y-110500000D01*
X108250000Y-118050000D02*
X109475736Y-116824264D01*
X116348529Y-110500000D02*
X143000000Y-110500000D01*
X109501471Y-116850000D02*
X109998529Y-116850000D01*
X144250000Y-109250000D02*
X151500000Y-109250000D01*
%TO.N,CE*%
X149060000Y-129690000D02*
X150750000Y-128000000D01*
X150750000Y-128000000D02*
X165640000Y-128000000D01*
X170190000Y-123450000D02*
X170190000Y-121890000D01*
X149060000Y-132140000D02*
X149060000Y-129690000D01*
X165640000Y-128000000D02*
X170190000Y-123450000D01*
X150210000Y-133290000D02*
X149060000Y-132140000D01*
%TO.N,MISO*%
X150210000Y-138370000D02*
X148260000Y-136420000D01*
X148260000Y-136420000D02*
X148260000Y-123500000D01*
X148260000Y-123500000D02*
X149870000Y-121890000D01*
%TO.N,CSN*%
X152410000Y-121890000D02*
X152410000Y-124690000D01*
X152410000Y-124690000D02*
X151600000Y-125500000D01*
%TO.N,MOSI*%
X155420000Y-135830000D02*
X159750000Y-131500000D01*
X152750000Y-135830000D02*
X155420000Y-135830000D01*
%TO.N,SCK*%
X153184314Y-125000000D02*
X155940000Y-125000000D01*
X150210000Y-135830000D02*
X148660000Y-134280000D01*
X157490000Y-123450000D02*
X157490000Y-121890000D01*
X155940000Y-125000000D02*
X157490000Y-123450000D01*
X148660000Y-129524314D02*
X153184314Y-125000000D01*
X148660000Y-134280000D02*
X148660000Y-129524314D01*
%TO.N,RX_3.3*%
X190344314Y-101160000D02*
X184184314Y-95000000D01*
X194200000Y-101160000D02*
X190344314Y-101160000D01*
X195590000Y-104110000D02*
X195590000Y-102550000D01*
X166725001Y-95000000D02*
X165325000Y-93599999D01*
X184184314Y-95000000D02*
X166725001Y-95000000D01*
X165325000Y-93599999D02*
X165325000Y-92862500D01*
X195590000Y-102550000D02*
X194200000Y-101160000D01*
%TO.N,PWM_1_3v3*%
X190178628Y-101560000D02*
X184018628Y-95400000D01*
X164675000Y-93599999D02*
X164675000Y-92862500D01*
X190510000Y-104110000D02*
X190510000Y-101560000D01*
X184018628Y-95400000D02*
X166475001Y-95400000D01*
X166475001Y-95400000D02*
X164675000Y-93599999D01*
X190510000Y-101560000D02*
X190178628Y-101560000D01*
%TO.N,PWM_3_3v3*%
X179080000Y-96200000D02*
X165975001Y-96200000D01*
X185430000Y-102550000D02*
X179080000Y-96200000D01*
X163375000Y-93599999D02*
X163375000Y-92862500D01*
X185430000Y-104110000D02*
X185430000Y-102550000D01*
X165975001Y-96200000D02*
X163375000Y-93599999D01*
%TO.N,TX_3.3*%
X165975000Y-92862500D02*
X165975000Y-93599999D01*
X165975000Y-93599999D02*
X166975001Y-94600000D01*
X190510000Y-100760000D02*
X196340000Y-100760000D01*
X198130000Y-102550000D02*
X198130000Y-104110000D01*
X184350000Y-94600000D02*
X190510000Y-100760000D01*
X196340000Y-100760000D02*
X198130000Y-102550000D01*
X166975001Y-94600000D02*
X184350000Y-94600000D01*
%TO.N,PWM_4_3v3*%
X177340000Y-97000000D02*
X182890000Y-102550000D01*
X162075000Y-94075000D02*
X165000000Y-97000000D01*
X182890000Y-102550000D02*
X182890000Y-104110000D01*
X162075000Y-92862500D02*
X162075000Y-94075000D01*
X165000000Y-97000000D02*
X177340000Y-97000000D01*
%TO.N,PWM_2_3v3*%
X164025000Y-93599999D02*
X164025000Y-92862500D01*
X166225001Y-95800000D02*
X164025000Y-93599999D01*
X187970000Y-102550000D02*
X181220000Y-95800000D01*
X181220000Y-95800000D02*
X166225001Y-95800000D01*
X187970000Y-104110000D02*
X187970000Y-102550000D01*
D31*
%TO.N,5V+*%
X152800000Y-86500000D02*
X152800000Y-83850000D01*
D29*
X154050000Y-87750000D02*
X152800000Y-86500000D01*
X162725000Y-85987500D02*
X162725000Y-86000000D01*
D31*
X153000000Y-77350000D02*
X153000000Y-83650000D01*
D29*
X160178272Y-87750000D02*
X154050000Y-87750000D01*
D31*
X153050000Y-77300000D02*
X153000000Y-77350000D01*
X152800000Y-83850000D02*
X153000000Y-83650000D01*
D29*
X162725000Y-87137500D02*
X162725000Y-87793456D01*
X161825000Y-86081544D02*
X160906544Y-87000000D01*
X160928272Y-87000000D02*
X160178272Y-87750000D01*
X162725000Y-86000000D02*
X162725000Y-87137500D01*
D31*
%TO.N,Net-(D2-A)*%
X183750000Y-84862500D02*
X183750000Y-87000000D01*
D29*
%TO.N,Net-(U2-OE)*%
X170387500Y-92862500D02*
X170500000Y-92750000D01*
X167925000Y-92862500D02*
X170387500Y-92862500D01*
%TO.N,GND*%
X150210000Y-130750000D02*
X150210000Y-130040000D01*
%TD*%
%TA.AperFunction,Conductor*%
%TO.N,3.3V+*%
G36*
X174392539Y-81369685D02*
G01*
X174438294Y-81422489D01*
X174449500Y-81474000D01*
X174449500Y-82968097D01*
X174486446Y-83201368D01*
X174559433Y-83425996D01*
X174623189Y-83551123D01*
X174666657Y-83636433D01*
X174722899Y-83713844D01*
X174742915Y-83756801D01*
X174748359Y-83778695D01*
X174748360Y-83778696D01*
X174832967Y-83949292D01*
X174832969Y-83949295D01*
X174952277Y-84097721D01*
X174952278Y-84097722D01*
X175100704Y-84217030D01*
X175100707Y-84217032D01*
X175271302Y-84301639D01*
X175271303Y-84301639D01*
X175271307Y-84301641D01*
X175456111Y-84347600D01*
X175498877Y-84350500D01*
X175821906Y-84350499D01*
X175821918Y-84350500D01*
X175831908Y-84350500D01*
X176078082Y-84350500D01*
X176078094Y-84350499D01*
X176401123Y-84350499D01*
X176401123Y-84350498D01*
X176443889Y-84347600D01*
X176628693Y-84301641D01*
X176799296Y-84217030D01*
X176947722Y-84097722D01*
X177067030Y-83949296D01*
X177151641Y-83778693D01*
X177157084Y-83756804D01*
X177177099Y-83713844D01*
X177233343Y-83636433D01*
X177340568Y-83425992D01*
X177413553Y-83201368D01*
X177450500Y-82968097D01*
X177450500Y-81474000D01*
X177470185Y-81406961D01*
X177522989Y-81361206D01*
X177574500Y-81350000D01*
X179420906Y-81350000D01*
X179487945Y-81369685D01*
X179533700Y-81422489D01*
X179544906Y-81474000D01*
X179544906Y-81567790D01*
X179525221Y-81634829D01*
X179517554Y-81645477D01*
X179432966Y-81750709D01*
X179348360Y-81921302D01*
X179302400Y-82106107D01*
X179299500Y-82148879D01*
X179299500Y-83551122D01*
X179299501Y-83551125D01*
X179302399Y-83593886D01*
X179302399Y-83593887D01*
X179348360Y-83778696D01*
X179432967Y-83949292D01*
X179432969Y-83949295D01*
X179552277Y-84097721D01*
X179552278Y-84097722D01*
X179700704Y-84217030D01*
X179700707Y-84217032D01*
X179871302Y-84301639D01*
X179871303Y-84301639D01*
X179871307Y-84301641D01*
X180056111Y-84347600D01*
X180098877Y-84350500D01*
X181001122Y-84350499D01*
X181043889Y-84347600D01*
X181228693Y-84301641D01*
X181399296Y-84217030D01*
X181547722Y-84097722D01*
X181667030Y-83949296D01*
X181751641Y-83778693D01*
X181797600Y-83593889D01*
X181800500Y-83551123D01*
X181800499Y-82148878D01*
X181797600Y-82106111D01*
X181751641Y-81921307D01*
X181749046Y-81916075D01*
X181667032Y-81750707D01*
X181667030Y-81750704D01*
X181547724Y-81602280D01*
X181547722Y-81602278D01*
X181508369Y-81570645D01*
X181468452Y-81513304D01*
X181465872Y-81443482D01*
X181501450Y-81383349D01*
X181563891Y-81351997D01*
X181586058Y-81350000D01*
X182021406Y-81350000D01*
X182088445Y-81369685D01*
X182134200Y-81422489D01*
X182145406Y-81474000D01*
X182145406Y-90726000D01*
X182125721Y-90793039D01*
X182072917Y-90838794D01*
X182021406Y-90850000D01*
X174269406Y-90850000D01*
X174202367Y-90830315D01*
X174156612Y-90777511D01*
X174145406Y-90726000D01*
X174145406Y-81474000D01*
X174165091Y-81406961D01*
X174217895Y-81361206D01*
X174269406Y-81350000D01*
X174325500Y-81350000D01*
X174392539Y-81369685D01*
G37*
%TD.AperFunction*%
%TD*%
%TA.AperFunction,Conductor*%
%TO.N,5V+*%
G36*
X154342539Y-75519685D02*
G01*
X154388294Y-75572489D01*
X154399500Y-75624000D01*
X154399500Y-75964707D01*
X154379815Y-76031746D01*
X154353189Y-76061353D01*
X154302282Y-76102274D01*
X154302275Y-76102280D01*
X154182969Y-76250704D01*
X154182967Y-76250707D01*
X154098360Y-76421302D01*
X154052400Y-76606107D01*
X154049500Y-76648879D01*
X154049500Y-78051122D01*
X154049501Y-78051125D01*
X154052399Y-78093886D01*
X154052399Y-78093887D01*
X154062980Y-78136433D01*
X154090685Y-78247837D01*
X154098360Y-78278696D01*
X154182967Y-78449292D01*
X154182969Y-78449295D01*
X154302277Y-78597721D01*
X154302278Y-78597722D01*
X154450704Y-78717030D01*
X154450707Y-78717032D01*
X154621302Y-78801639D01*
X154621303Y-78801639D01*
X154621307Y-78801641D01*
X154806111Y-78847600D01*
X154848877Y-78850500D01*
X155751122Y-78850499D01*
X155793889Y-78847600D01*
X155978693Y-78801641D01*
X156149296Y-78717030D01*
X156297722Y-78597722D01*
X156417030Y-78449296D01*
X156481450Y-78319403D01*
X156528869Y-78268093D01*
X156592537Y-78250500D01*
X156876000Y-78250500D01*
X156943039Y-78270185D01*
X156988794Y-78322989D01*
X157000000Y-78374500D01*
X157000000Y-84876000D01*
X156980315Y-84943039D01*
X156927511Y-84988794D01*
X156876000Y-85000000D01*
X149124000Y-85000000D01*
X149056961Y-84980315D01*
X149011206Y-84927511D01*
X149000000Y-84876000D01*
X149000000Y-78071389D01*
X149019685Y-78004350D01*
X149072489Y-77958595D01*
X149141647Y-77948651D01*
X149205203Y-77977676D01*
X149211681Y-77983708D01*
X149475810Y-78247837D01*
X149499217Y-78280424D01*
X149582967Y-78449292D01*
X149582969Y-78449295D01*
X149702277Y-78597721D01*
X149702278Y-78597722D01*
X149850704Y-78717030D01*
X149850707Y-78717032D01*
X150021302Y-78801639D01*
X150021303Y-78801639D01*
X150021307Y-78801641D01*
X150206111Y-78847600D01*
X150248877Y-78850500D01*
X150571906Y-78850499D01*
X150571918Y-78850500D01*
X150581908Y-78850500D01*
X150828082Y-78850500D01*
X150828094Y-78850499D01*
X151151123Y-78850499D01*
X151151123Y-78850498D01*
X151193889Y-78847600D01*
X151378693Y-78801641D01*
X151549296Y-78717030D01*
X151697722Y-78597722D01*
X151817030Y-78449296D01*
X151901641Y-78278693D01*
X151907084Y-78256804D01*
X151927099Y-78213844D01*
X151983343Y-78136433D01*
X152090568Y-77925992D01*
X152163553Y-77701368D01*
X152177602Y-77612666D01*
X152200500Y-77468097D01*
X152200500Y-75624000D01*
X152220185Y-75556961D01*
X152272989Y-75511206D01*
X152324500Y-75500000D01*
X154275500Y-75500000D01*
X154342539Y-75519685D01*
G37*
%TD.AperFunction*%
%TD*%
%TA.AperFunction,Conductor*%
%TO.N,BAT+*%
G36*
X105156077Y-85572401D02*
G01*
X105260943Y-85600500D01*
X105260946Y-85600500D01*
X116376000Y-85600500D01*
X116443039Y-85620185D01*
X116488794Y-85672989D01*
X116500000Y-85724500D01*
X116500000Y-94376000D01*
X116480315Y-94443039D01*
X116427511Y-94488794D01*
X116376000Y-94500000D01*
X105124000Y-94500000D01*
X105056961Y-94480315D01*
X105011206Y-94427511D01*
X105000000Y-94376000D01*
X105000000Y-85692180D01*
X105019685Y-85625141D01*
X105072489Y-85579386D01*
X105141647Y-85569442D01*
X105156077Y-85572401D01*
G37*
%TD.AperFunction*%
%TD*%
D32*
X158000000Y-127250000D03*
X156750000Y-129250000D03*
X153500000Y-126750000D03*
X159750000Y-75500000D03*
X126500000Y-101500000D03*
X181600000Y-87500000D03*
X188500000Y-130250000D03*
X176000000Y-86100000D03*
X176700000Y-86100000D03*
X179500000Y-84700000D03*
X180300000Y-88800000D03*
X180900000Y-86800000D03*
X175300000Y-86800000D03*
X179500000Y-85400000D03*
X180200000Y-84700000D03*
X180200000Y-86100000D03*
X174600000Y-88200000D03*
X180900000Y-87500000D03*
X181600000Y-84700000D03*
X174600000Y-89600000D03*
X180900000Y-88200000D03*
X175300000Y-89600000D03*
X176700000Y-87500000D03*
X181500000Y-90300000D03*
X180900000Y-85400000D03*
X181600000Y-88900000D03*
X175300000Y-90300000D03*
X181600000Y-86100000D03*
X181500000Y-89600000D03*
X176000000Y-87500000D03*
X174600000Y-90300000D03*
X174750000Y-91500000D03*
X184500000Y-97750000D03*
X180900000Y-84700000D03*
X176000000Y-85400000D03*
X176000000Y-88900000D03*
X176700000Y-85400000D03*
X176000000Y-90300000D03*
X174600000Y-88900000D03*
X180200000Y-87500000D03*
X174600000Y-87500000D03*
X181600000Y-88200000D03*
X180300000Y-88100000D03*
X184250000Y-92750000D03*
X176700000Y-84700000D03*
X181600000Y-86800000D03*
X180800000Y-90300000D03*
X175300000Y-84700000D03*
X180800000Y-89600000D03*
X179500000Y-86800000D03*
X175300000Y-87500000D03*
X175300000Y-88900000D03*
X179500000Y-86100000D03*
X176700000Y-86800000D03*
X174600000Y-86800000D03*
X180900000Y-86100000D03*
X180200000Y-85400000D03*
X176000000Y-89600000D03*
X181600000Y-85400000D03*
X176000000Y-88200000D03*
X163000000Y-91250000D03*
X180200000Y-86800000D03*
X176000000Y-84700000D03*
X174600000Y-84700000D03*
X175300000Y-86100000D03*
X175300000Y-88200000D03*
X174600000Y-86100000D03*
X175300000Y-85400000D03*
X174600000Y-85400000D03*
X179500000Y-87500000D03*
X180900000Y-88900000D03*
X176000000Y-86800000D03*
X109500000Y-86250000D03*
X114750000Y-86250000D03*
X108000000Y-94000000D03*
X105750000Y-88000000D03*
X107250000Y-94000000D03*
X105750000Y-87250000D03*
X111000000Y-86250000D03*
X110250000Y-86250000D03*
X105750000Y-89500000D03*
X111000000Y-94000000D03*
X105750000Y-94000000D03*
X105750000Y-91000000D03*
X105750000Y-88750000D03*
X115500000Y-88750000D03*
X114750000Y-94000000D03*
X112500000Y-94000000D03*
X114000000Y-94000000D03*
X115500000Y-94000000D03*
X115500000Y-87250000D03*
X112500000Y-86250000D03*
X105750000Y-90250000D03*
X115500000Y-92500000D03*
X115500000Y-91750000D03*
X115500000Y-88000000D03*
X106500000Y-94000000D03*
X111750000Y-86250000D03*
X108750000Y-94000000D03*
X114000000Y-86250000D03*
X109500000Y-94000000D03*
X115500000Y-93250000D03*
X115500000Y-91000000D03*
X105750000Y-91750000D03*
X113250000Y-94000000D03*
X115500000Y-90250000D03*
X105750000Y-92500000D03*
X110250000Y-94000000D03*
X115500000Y-86500000D03*
X111750000Y-94000000D03*
X105750000Y-93250000D03*
X113250000Y-86250000D03*
X115500000Y-89500000D03*
X155500000Y-106500000D03*
X123750000Y-95750000D03*
X109750000Y-116250000D03*
X191750000Y-119250000D03*
X157750000Y-77350000D03*
X157000000Y-77350000D03*
X180250000Y-106000000D03*
X158400000Y-77350000D03*
X172000000Y-83000000D03*
X155300000Y-75500000D03*
X167500000Y-106500000D03*
X155125000Y-74625000D03*
X156500000Y-92750000D03*
X154250000Y-74250000D03*
X167250000Y-119750000D03*
X192750000Y-106000000D03*
X127250000Y-90500000D03*
X183750000Y-80750000D03*
X170000000Y-88500000D03*
X180395406Y-78350000D03*
X169200000Y-87137500D03*
X153750000Y-120000000D03*
X109500000Y-107250000D03*
X169300000Y-84100000D03*
X156000000Y-86000000D03*
X108250000Y-125000000D03*
X133250000Y-85000000D03*
X126250000Y-85000000D03*
X140750000Y-94600000D03*
X139250000Y-93400000D03*
X128750000Y-84250000D03*
X125500000Y-84250000D03*
X188000000Y-94150000D03*
X162875000Y-100125000D03*
X186900000Y-94950000D03*
X174000000Y-99750000D03*
X138500000Y-89000000D03*
X132250000Y-135750000D03*
X135750000Y-108500000D03*
X132250000Y-134500000D03*
X134500000Y-109750000D03*
X132500000Y-133250000D03*
X139500000Y-137250000D03*
X139250000Y-89500000D03*
X169750000Y-105750000D03*
X189250000Y-120250000D03*
X157250000Y-105750000D03*
X186250000Y-119750000D03*
X151600000Y-125500000D03*
X159750000Y-131500000D03*
X150300000Y-83100000D03*
X151000000Y-80000000D03*
X154300000Y-80700000D03*
X155000000Y-79300000D03*
X155700000Y-81000000D03*
X150300000Y-82400000D03*
X155700000Y-82400000D03*
X156400000Y-83800000D03*
X155000000Y-80000000D03*
X155000000Y-80700000D03*
X151700000Y-80700000D03*
X151000000Y-80700000D03*
X150300000Y-80200000D03*
X151700000Y-79300000D03*
X149600000Y-80200000D03*
X151000000Y-81400000D03*
X154300000Y-81400000D03*
X151700000Y-80000000D03*
X155700000Y-84500000D03*
X156400000Y-83100000D03*
X150300000Y-81000000D03*
X156400000Y-82400000D03*
X155700000Y-80200000D03*
X151700000Y-81400000D03*
X156400000Y-79300000D03*
X150300000Y-81700000D03*
X149600000Y-81000000D03*
X149600000Y-82400000D03*
X155700000Y-79300000D03*
X149600000Y-83800000D03*
X154300000Y-79300000D03*
X154300000Y-80000000D03*
X156400000Y-81000000D03*
X155000000Y-81400000D03*
X156400000Y-81700000D03*
X156400000Y-84500000D03*
X149600000Y-79300000D03*
X150300000Y-79300000D03*
X155700000Y-81700000D03*
X150300000Y-84500000D03*
X149600000Y-81700000D03*
X155700000Y-83100000D03*
X149600000Y-83100000D03*
X151000000Y-79300000D03*
X155700000Y-83800000D03*
X156400000Y-80200000D03*
X149600000Y-84500000D03*
X150300000Y-83800000D03*
D33*
X105000000Y-55000000D03*
X150210000Y-130750000D03*
X152750000Y-130750000D03*
X150210000Y-133290000D03*
X152750000Y-133290000D03*
X150210000Y-135830000D03*
X152750000Y-135830000D03*
X150210000Y-138370000D03*
X152750000Y-138370000D03*
X196000000Y-128920000D03*
X196000000Y-131460000D03*
X196000000Y-134000000D03*
X196000000Y-136540000D03*
X196000000Y-139080000D03*
X196000000Y-73380000D03*
X196000000Y-75920000D03*
X196000000Y-78460000D03*
X196000000Y-81000000D03*
X196000000Y-83540000D03*
X198000000Y-110275000D03*
X194970000Y-110575000D03*
X194970000Y-115425000D03*
X198000000Y-115725000D03*
X198130000Y-104110000D03*
X195590000Y-104110000D03*
X193050000Y-104110000D03*
X190510000Y-104110000D03*
X187970000Y-104110000D03*
X185430000Y-104110000D03*
X182890000Y-104110000D03*
X180350000Y-104110000D03*
X177810000Y-104110000D03*
X175270000Y-104110000D03*
X172730000Y-104110000D03*
X170190000Y-104110000D03*
X167650000Y-104110000D03*
X165110000Y-104110000D03*
X162570000Y-104110000D03*
X160030000Y-104110000D03*
X157490000Y-104110000D03*
X154950000Y-104110000D03*
X152410000Y-104110000D03*
X149870000Y-104110000D03*
X149870000Y-121890000D03*
X152410000Y-121890000D03*
X154950000Y-121890000D03*
X157490000Y-121890000D03*
X160030000Y-121890000D03*
X162570000Y-121890000D03*
X165110000Y-121890000D03*
X167650000Y-121890000D03*
X170190000Y-121890000D03*
X172730000Y-121890000D03*
X175270000Y-121890000D03*
X177810000Y-121890000D03*
X180350000Y-121890000D03*
X182890000Y-121890000D03*
X185430000Y-121890000D03*
X187970000Y-121890000D03*
X190510000Y-121890000D03*
X193050000Y-121890000D03*
X195590000Y-121890000D03*
X198130000Y-121890000D03*
X150100000Y-110460000D03*
X150100000Y-113000000D03*
X150100000Y-115540000D03*
X195000000Y-145000000D03*
X105000000Y-145000000D03*
X101750000Y-118050000D03*
X108250000Y-118050000D03*
X101750000Y-122550000D03*
X108250000Y-122550000D03*
X104000000Y-128920000D03*
X104000000Y-131460000D03*
X104000000Y-134000000D03*
X104000000Y-136540000D03*
X104000000Y-139080000D03*
X196000000Y-98140000D03*
X196000000Y-95600000D03*
X104000000Y-73500000D03*
X104000000Y-76040000D03*
X104000000Y-78580000D03*
X104000000Y-81120000D03*
X104000000Y-83660000D03*
X101750000Y-109500000D03*
X108250000Y-109500000D03*
X101750000Y-114000000D03*
X108250000Y-114000000D03*
X101750000Y-101000000D03*
X108250000Y-101000000D03*
X101750000Y-105500000D03*
X108250000Y-105500000D03*
X195000000Y-55000000D03*
M02*
