%TF.GenerationSoftware,KiCad,Pcbnew,8.0.5*%
%TF.CreationDate,2025-02-14T12:54:28+01:00*%
%TF.ProjectId,main_board,6d61696e-5f62-46f6-9172-642e6b696361,rev?*%
%TF.SameCoordinates,Original*%
%TF.FileFunction,Soldermask,Top*%
%TF.FilePolarity,Negative*%
%FSLAX46Y46*%
G04 Gerber Fmt 4.6, Leading zero omitted, Abs format (unit mm)*
G04 Created by KiCad (PCBNEW 8.0.5) date 2025-02-14 12:54:28*
%MOMM*%
%LPD*%
G01*
G04 APERTURE LIST*
G04 Aperture macros list*
%AMRoundRect*
0 Rectangle with rounded corners*
0 $1 Rounding radius*
0 $2 $3 $4 $5 $6 $7 $8 $9 X,Y pos of 4 corners*
0 Add a 4 corners polygon primitive as box body*
4,1,4,$2,$3,$4,$5,$6,$7,$8,$9,$2,$3,0*
0 Add four circle primitives for the rounded corners*
1,1,$1+$1,$2,$3*
1,1,$1+$1,$4,$5*
1,1,$1+$1,$6,$7*
1,1,$1+$1,$8,$9*
0 Add four rect primitives between the rounded corners*
20,1,$1+$1,$2,$3,$4,$5,0*
20,1,$1+$1,$4,$5,$6,$7,0*
20,1,$1+$1,$6,$7,$8,$9,0*
20,1,$1+$1,$8,$9,$2,$3,0*%
G04 Aperture macros list end*
%ADD10RoundRect,0.250000X-0.250000X-0.475000X0.250000X-0.475000X0.250000X0.475000X-0.250000X0.475000X0*%
%ADD11RoundRect,0.250000X-1.500000X-0.550000X1.500000X-0.550000X1.500000X0.550000X-1.500000X0.550000X0*%
%ADD12C,3.000000*%
%ADD13RoundRect,0.375000X-0.375000X0.625000X-0.375000X-0.625000X0.375000X-0.625000X0.375000X0.625000X0*%
%ADD14RoundRect,0.500000X-1.400000X0.500000X-1.400000X-0.500000X1.400000X-0.500000X1.400000X0.500000X0*%
%ADD15R,1.700000X1.700000*%
%ADD16C,1.700000*%
%ADD17R,2.100000X2.100000*%
%ADD18C,2.100000*%
%ADD19O,1.800000X1.800000*%
%ADD20O,1.500000X1.500000*%
%ADD21O,1.700000X1.700000*%
%ADD22R,1.700000X3.500000*%
%ADD23R,3.500000X1.700000*%
%ADD24RoundRect,0.250000X0.625000X-0.312500X0.625000X0.312500X-0.625000X0.312500X-0.625000X-0.312500X0*%
%ADD25RoundRect,0.250000X-0.625000X0.375000X-0.625000X-0.375000X0.625000X-0.375000X0.625000X0.375000X0*%
%ADD26C,2.000000*%
%ADD27RoundRect,0.250000X0.250000X0.475000X-0.250000X0.475000X-0.250000X-0.475000X0.250000X-0.475000X0*%
%ADD28RoundRect,0.250000X-0.625000X0.312500X-0.625000X-0.312500X0.625000X-0.312500X0.625000X0.312500X0*%
%ADD29RoundRect,0.250000X0.475000X-0.250000X0.475000X0.250000X-0.475000X0.250000X-0.475000X-0.250000X0*%
%ADD30RoundRect,0.100000X0.100000X-0.637500X0.100000X0.637500X-0.100000X0.637500X-0.100000X-0.637500X0*%
G04 APERTURE END LIST*
D10*
%TO.C,C10*%
X156750000Y-126750000D03*
X154850000Y-126750000D03*
%TD*%
D11*
%TO.C,C9*%
X118700000Y-101500000D03*
X124300000Y-101500000D03*
%TD*%
D12*
%TO.C,H1*%
X105000000Y-55000000D03*
%TD*%
D13*
%TO.C,U5*%
X155300000Y-77350000D03*
X153000000Y-77350000D03*
D14*
X153000000Y-83650000D03*
D13*
X150700000Y-77350000D03*
%TD*%
D11*
%TO.C,C2*%
X118700000Y-90250000D03*
X124300000Y-90250000D03*
%TD*%
D15*
%TO.C,U3*%
X150210000Y-130750000D03*
D16*
X152750000Y-130750000D03*
X150210000Y-133290000D03*
X152750000Y-133290000D03*
X150210000Y-135830000D03*
X152750000Y-135830000D03*
X150210000Y-138370000D03*
X152750000Y-138370000D03*
%TD*%
D17*
%TO.C,SERVO_4*%
X196000000Y-128920000D03*
D18*
X196000000Y-131460000D03*
X196000000Y-134000000D03*
X196000000Y-136540000D03*
X196000000Y-139080000D03*
%TD*%
D17*
%TO.C,SERVO_2*%
X196000000Y-73380000D03*
D18*
X196000000Y-75920000D03*
X196000000Y-78460000D03*
X196000000Y-81000000D03*
X196000000Y-83540000D03*
%TD*%
D10*
%TO.C,C7*%
X165550000Y-84750000D03*
X167450000Y-84750000D03*
%TD*%
D19*
%TO.C,U4*%
X198000000Y-110275000D03*
D20*
X194970000Y-110575000D03*
X194970000Y-115425000D03*
D19*
X198000000Y-115725000D03*
D21*
X198130000Y-104110000D03*
D22*
X198130000Y-103210000D03*
D21*
X195590000Y-104110000D03*
D22*
X195590000Y-103210000D03*
D15*
X193050000Y-104110000D03*
D22*
X193050000Y-103210000D03*
D21*
X190510000Y-104110000D03*
D22*
X190510000Y-103210000D03*
D21*
X187970000Y-104110000D03*
D22*
X187970000Y-103210000D03*
D21*
X185430000Y-104110000D03*
D22*
X185430000Y-103210000D03*
D21*
X182890000Y-104110000D03*
D22*
X182890000Y-103210000D03*
D15*
X180350000Y-104110000D03*
D22*
X180350000Y-103210000D03*
D21*
X177810000Y-104110000D03*
D22*
X177810000Y-103210000D03*
D21*
X175270000Y-104110000D03*
D22*
X175270000Y-103210000D03*
D21*
X172730000Y-104110000D03*
D22*
X172730000Y-103210000D03*
D21*
X170190000Y-104110000D03*
D22*
X170190000Y-103210000D03*
D15*
X167650000Y-104110000D03*
D22*
X167650000Y-103210000D03*
D21*
X165110000Y-104110000D03*
D22*
X165110000Y-103210000D03*
D21*
X162570000Y-104110000D03*
D22*
X162570000Y-103210000D03*
D21*
X160030000Y-104110000D03*
D22*
X160030000Y-103210000D03*
D21*
X157490000Y-104110000D03*
D22*
X157490000Y-103210000D03*
D15*
X154950000Y-104110000D03*
D22*
X154950000Y-103210000D03*
D21*
X152410000Y-104110000D03*
D22*
X152410000Y-103210000D03*
D21*
X149870000Y-104110000D03*
D22*
X149870000Y-103210000D03*
D21*
X149870000Y-121890000D03*
D22*
X149870000Y-122790000D03*
D21*
X152410000Y-121890000D03*
D22*
X152410000Y-122790000D03*
D15*
X154950000Y-121890000D03*
D22*
X154950000Y-122790000D03*
D21*
X157490000Y-121890000D03*
D22*
X157490000Y-122790000D03*
D21*
X160030000Y-121890000D03*
D22*
X160030000Y-122790000D03*
D21*
X162570000Y-121890000D03*
D22*
X162570000Y-122790000D03*
D21*
X165110000Y-121890000D03*
D22*
X165110000Y-122790000D03*
D15*
X167650000Y-121890000D03*
D22*
X167650000Y-122790000D03*
D21*
X170190000Y-121890000D03*
D22*
X170190000Y-122790000D03*
D21*
X172730000Y-121890000D03*
D22*
X172730000Y-122790000D03*
D21*
X175270000Y-121890000D03*
D22*
X175270000Y-122790000D03*
D21*
X177810000Y-121890000D03*
D22*
X177810000Y-122790000D03*
D15*
X180350000Y-121890000D03*
D22*
X180350000Y-122790000D03*
D21*
X182890000Y-121890000D03*
D22*
X182890000Y-122790000D03*
D21*
X185430000Y-121890000D03*
D22*
X185430000Y-122790000D03*
D21*
X187970000Y-121890000D03*
D22*
X187970000Y-122790000D03*
D21*
X190510000Y-121890000D03*
D22*
X190510000Y-122790000D03*
D15*
X193050000Y-121890000D03*
D22*
X193050000Y-122790000D03*
D21*
X195590000Y-121890000D03*
D22*
X195590000Y-122790000D03*
D21*
X198130000Y-121890000D03*
D22*
X198130000Y-122790000D03*
D21*
X150100000Y-110460000D03*
D23*
X149200000Y-110460000D03*
D15*
X150100000Y-113000000D03*
D23*
X149200000Y-113000000D03*
D21*
X150100000Y-115540000D03*
D23*
X149200000Y-115540000D03*
%TD*%
D12*
%TO.C,H4*%
X195000000Y-145000000D03*
%TD*%
D13*
%TO.C,U1*%
X180550000Y-82850000D03*
X178250000Y-82850000D03*
D14*
X178250000Y-89150000D03*
D13*
X175950000Y-82850000D03*
%TD*%
D24*
%TO.C,R1*%
X161500000Y-84462500D03*
X161500000Y-81537500D03*
%TD*%
%TO.C,R2*%
X183750000Y-89712500D03*
X183750000Y-86787500D03*
%TD*%
D10*
%TO.C,C8*%
X151050000Y-74250000D03*
X152950000Y-74250000D03*
%TD*%
D25*
%TO.C,D1*%
X161500000Y-76100000D03*
X161500000Y-78900000D03*
%TD*%
D12*
%TO.C,H3*%
X105000000Y-145000000D03*
%TD*%
D26*
%TO.C,SW3*%
X101750000Y-118050000D03*
X108250000Y-118050000D03*
X101750000Y-122550000D03*
X108250000Y-122550000D03*
%TD*%
D17*
%TO.C,SERVO_3*%
X104000000Y-128920000D03*
D18*
X104000000Y-131460000D03*
X104000000Y-134000000D03*
X104000000Y-136540000D03*
X104000000Y-139080000D03*
%TD*%
D17*
%TO.C,RX_TX_1*%
X196000000Y-98140000D03*
D18*
X196000000Y-95600000D03*
%TD*%
D27*
%TO.C,C6*%
X160200000Y-92750000D03*
X158300000Y-92750000D03*
%TD*%
D17*
%TO.C,SERVO_1*%
X104000000Y-73500000D03*
D18*
X104000000Y-76040000D03*
X104000000Y-78580000D03*
X104000000Y-81120000D03*
X104000000Y-83660000D03*
%TD*%
D10*
%TO.C,C5*%
X120300000Y-96000000D03*
X122200000Y-96000000D03*
%TD*%
D28*
%TO.C,R3*%
X170500000Y-89825000D03*
X170500000Y-92750000D03*
%TD*%
D10*
%TO.C,C3*%
X177250000Y-78750000D03*
X179150000Y-78750000D03*
%TD*%
D25*
%TO.C,D2*%
X183750000Y-82100000D03*
X183750000Y-84900000D03*
%TD*%
D26*
%TO.C,SW1*%
X101750000Y-109500000D03*
X108250000Y-109500000D03*
X101750000Y-114000000D03*
X108250000Y-114000000D03*
%TD*%
%TO.C,SW2*%
X101750000Y-101000000D03*
X108250000Y-101000000D03*
X101750000Y-105500000D03*
X108250000Y-105500000D03*
%TD*%
D29*
%TO.C,C4*%
X172000000Y-85950000D03*
X172000000Y-84050000D03*
%TD*%
D30*
%TO.C,U2*%
X162075000Y-92862500D03*
X162725000Y-92862500D03*
X163375000Y-92862500D03*
X164025000Y-92862500D03*
X164675000Y-92862500D03*
X165325000Y-92862500D03*
X165975000Y-92862500D03*
X166625000Y-92862500D03*
X167275000Y-92862500D03*
X167925000Y-92862500D03*
X167925000Y-87137500D03*
X167275000Y-87137500D03*
X166625000Y-87137500D03*
X165975000Y-87137500D03*
X165325000Y-87137500D03*
X164675000Y-87137500D03*
X164025000Y-87137500D03*
X163375000Y-87137500D03*
X162725000Y-87137500D03*
X162075000Y-87137500D03*
%TD*%
D12*
%TO.C,H2*%
X195000000Y-55000000D03*
%TD*%
D10*
%TO.C,C1*%
X152800000Y-86500000D03*
X154700000Y-86500000D03*
%TD*%
M02*
