%TF.GenerationSoftware,KiCad,Pcbnew,8.0.5*%
%TF.CreationDate,2025-02-14T12:54:28+01:00*%
%TF.ProjectId,main_board,6d61696e-5f62-46f6-9172-642e6b696361,rev?*%
%TF.SameCoordinates,Original*%
%TF.FileFunction,Soldermask,Bot*%
%TF.FilePolarity,Negative*%
%FSLAX46Y46*%
G04 Gerber Fmt 4.6, Leading zero omitted, Abs format (unit mm)*
G04 Created by KiCad (PCBNEW 8.0.5) date 2025-02-14 12:54:28*
%MOMM*%
%LPD*%
G01*
G04 APERTURE LIST*
%ADD10C,3.000000*%
%ADD11R,1.700000X1.700000*%
%ADD12C,1.700000*%
%ADD13R,2.100000X2.100000*%
%ADD14C,2.100000*%
%ADD15O,1.800000X1.800000*%
%ADD16O,1.500000X1.500000*%
%ADD17O,1.700000X1.700000*%
%ADD18C,2.000000*%
%ADD19R,7.340000X6.350000*%
G04 APERTURE END LIST*
D10*
%TO.C,H1*%
X105000000Y-55000000D03*
%TD*%
D11*
%TO.C,U3*%
X150210000Y-130750000D03*
D12*
X152750000Y-130750000D03*
X150210000Y-133290000D03*
X152750000Y-133290000D03*
X150210000Y-135830000D03*
X152750000Y-135830000D03*
X150210000Y-138370000D03*
X152750000Y-138370000D03*
%TD*%
D13*
%TO.C,SERVO_4*%
X196000000Y-128920000D03*
D14*
X196000000Y-131460000D03*
X196000000Y-134000000D03*
X196000000Y-136540000D03*
X196000000Y-139080000D03*
%TD*%
D13*
%TO.C,SERVO_2*%
X196000000Y-73380000D03*
D14*
X196000000Y-75920000D03*
X196000000Y-78460000D03*
X196000000Y-81000000D03*
X196000000Y-83540000D03*
%TD*%
D15*
%TO.C,U4*%
X198000000Y-110275000D03*
D16*
X194970000Y-110575000D03*
X194970000Y-115425000D03*
D15*
X198000000Y-115725000D03*
D17*
X198130000Y-104110000D03*
X195590000Y-104110000D03*
D11*
X193050000Y-104110000D03*
D17*
X190510000Y-104110000D03*
X187970000Y-104110000D03*
X185430000Y-104110000D03*
X182890000Y-104110000D03*
D11*
X180350000Y-104110000D03*
D17*
X177810000Y-104110000D03*
X175270000Y-104110000D03*
X172730000Y-104110000D03*
X170190000Y-104110000D03*
D11*
X167650000Y-104110000D03*
D17*
X165110000Y-104110000D03*
X162570000Y-104110000D03*
X160030000Y-104110000D03*
X157490000Y-104110000D03*
D11*
X154950000Y-104110000D03*
D17*
X152410000Y-104110000D03*
X149870000Y-104110000D03*
X149870000Y-121890000D03*
X152410000Y-121890000D03*
D11*
X154950000Y-121890000D03*
D17*
X157490000Y-121890000D03*
X160030000Y-121890000D03*
X162570000Y-121890000D03*
X165110000Y-121890000D03*
D11*
X167650000Y-121890000D03*
D17*
X170190000Y-121890000D03*
X172730000Y-121890000D03*
X175270000Y-121890000D03*
X177810000Y-121890000D03*
D11*
X180350000Y-121890000D03*
D17*
X182890000Y-121890000D03*
X185430000Y-121890000D03*
X187970000Y-121890000D03*
X190510000Y-121890000D03*
D11*
X193050000Y-121890000D03*
D17*
X195590000Y-121890000D03*
X198130000Y-121890000D03*
X150100000Y-110460000D03*
D11*
X150100000Y-113000000D03*
D17*
X150100000Y-115540000D03*
%TD*%
D10*
%TO.C,H4*%
X195000000Y-145000000D03*
%TD*%
%TO.C,H3*%
X105000000Y-145000000D03*
%TD*%
D18*
%TO.C,SW3*%
X101750000Y-118050000D03*
X108250000Y-118050000D03*
X101750000Y-122550000D03*
X108250000Y-122550000D03*
%TD*%
D13*
%TO.C,SERVO_3*%
X104000000Y-128920000D03*
D14*
X104000000Y-131460000D03*
X104000000Y-134000000D03*
X104000000Y-136540000D03*
X104000000Y-139080000D03*
%TD*%
D13*
%TO.C,RX_TX_1*%
X196000000Y-98140000D03*
D14*
X196000000Y-95600000D03*
%TD*%
D13*
%TO.C,SERVO_1*%
X104000000Y-73500000D03*
D14*
X104000000Y-76040000D03*
X104000000Y-78580000D03*
X104000000Y-81120000D03*
X104000000Y-83660000D03*
%TD*%
D18*
%TO.C,SW1*%
X101750000Y-109500000D03*
X108250000Y-109500000D03*
X101750000Y-114000000D03*
X108250000Y-114000000D03*
%TD*%
%TO.C,SW2*%
X101750000Y-101000000D03*
X108250000Y-101000000D03*
X101750000Y-105500000D03*
X108250000Y-105500000D03*
%TD*%
D10*
%TO.C,H2*%
X195000000Y-55000000D03*
%TD*%
D19*
%TO.C,BT2*%
X189330000Y-65000000D03*
X110670000Y-65000000D03*
%TD*%
%TO.C,BT1*%
X111170000Y-90000000D03*
X189830000Y-90000000D03*
%TD*%
M02*
