M48
METRIC,TZ
T1C0.300
T2C0.762
T3C1.000
T4C1.100
%
G90
G05
T1
X98750Y-81500
X99250Y-81000
X99750Y-80500
X100250Y-80000
X100750Y-79500
X101250Y-79000
X101750Y-78500
X102250Y-78000
X103000Y-77250
X115000Y-74500
X131500Y-78500
X132250Y-79250
X132750Y-79750
X133250Y-80250
X133750Y-80750
X134250Y-81250
X134750Y-81750
X135250Y-82250
X141000Y-68450
T2
X95950Y-64950
X95950Y-83950
X136950Y-64950
X136950Y-83950
T3
X143250Y-63435
X143250Y-65975
X143250Y-71160
X143250Y-73700
X143250Y-76240
T4
X86200Y-69500
X86200Y-72040
X86200Y-74580
X86200Y-77120
X86200Y-79660
M30
