%TF.GenerationSoftware,KiCad,Pcbnew,8.0.5*%
%TF.CreationDate,2025-02-14T13:05:26+01:00*%
%TF.ProjectId,servo_plate,73657276-6f5f-4706-9c61-74652e6b6963,rev?*%
%TF.SameCoordinates,Original*%
%TF.FileFunction,Copper,L2,Bot*%
%TF.FilePolarity,Positive*%
%FSLAX46Y46*%
G04 Gerber Fmt 4.6, Leading zero omitted, Abs format (unit mm)*
G04 Created by KiCad (PCBNEW 8.0.5) date 2025-02-14 13:05:26*
%MOMM*%
%LPD*%
G01*
G04 APERTURE LIST*
G04 Aperture macros list*
%AMRoundRect*
0 Rectangle with rounded corners*
0 $1 Rounding radius*
0 $2 $3 $4 $5 $6 $7 $8 $9 X,Y pos of 4 corners*
0 Add a 4 corners polygon primitive as box body*
4,1,4,$2,$3,$4,$5,$6,$7,$8,$9,$2,$3,0*
0 Add four circle primitives for the rounded corners*
1,1,$1+$1,$2,$3*
1,1,$1+$1,$4,$5*
1,1,$1+$1,$6,$7*
1,1,$1+$1,$8,$9*
0 Add four rect primitives between the rounded corners*
20,1,$1+$1,$2,$3,$4,$5,0*
20,1,$1+$1,$4,$5,$6,$7,0*
20,1,$1+$1,$6,$7,$8,$9,0*
20,1,$1+$1,$8,$9,$2,$3,0*%
G04 Aperture macros list end*
%TA.AperFunction,ComponentPad*%
%ADD10RoundRect,0.820210X-1.679790X-1.679790X1.679790X-1.679790X1.679790X1.679790X-1.679790X1.679790X0*%
%TD*%
%TA.AperFunction,ComponentPad*%
%ADD11R,1.700000X1.700000*%
%TD*%
%TA.AperFunction,ComponentPad*%
%ADD12O,1.700000X1.700000*%
%TD*%
%TA.AperFunction,ComponentPad*%
%ADD13R,2.100000X2.100000*%
%TD*%
%TA.AperFunction,ComponentPad*%
%ADD14C,2.100000*%
%TD*%
%TA.AperFunction,SMDPad,CuDef*%
%ADD15RoundRect,0.250000X0.475000X-0.250000X0.475000X0.250000X-0.475000X0.250000X-0.475000X-0.250000X0*%
%TD*%
%TA.AperFunction,SMDPad,CuDef*%
%ADD16R,1.500000X0.900000*%
%TD*%
%TA.AperFunction,ViaPad*%
%ADD17C,0.600000*%
%TD*%
%TA.AperFunction,Conductor*%
%ADD18C,0.200000*%
%TD*%
%TA.AperFunction,Conductor*%
%ADD19C,0.800000*%
%TD*%
%TA.AperFunction,Conductor*%
%ADD20C,1.000000*%
%TD*%
%ADD21C,0.300000*%
%ADD22O,0.762000X0.762000*%
%ADD23C,0.350000*%
G04 APERTURE END LIST*
D10*
%TO.P,DC1,0,IN+*%
%TO.N,BAT+*%
X95950000Y-64950000D03*
%TO.P,DC1,1,IN-*%
%TO.N,GND*%
X95950000Y-83950000D03*
%TO.P,DC1,2,OUT+*%
%TO.N,5V+*%
X136950000Y-64950000D03*
%TO.P,DC1,3,OUT-*%
%TO.N,GND*%
X136950000Y-83950000D03*
%TD*%
D11*
%TO.P,M1,1,PWM*%
%TO.N,PWM*%
X143250000Y-71160000D03*
D12*
%TO.P,M1,2,+*%
%TO.N,5V+*%
X143250000Y-73700000D03*
%TO.P,M1,3,-*%
%TO.N,GND*%
X143250000Y-76240000D03*
%TD*%
D11*
%TO.P,SW1,1,1*%
%TO.N,GND*%
X143250000Y-65975000D03*
D12*
%TO.P,SW1,2,2*%
%TO.N,BUTTON*%
X143250000Y-63435000D03*
%TD*%
D13*
%TO.P,J1,1,Pin_1*%
%TO.N,BAT+*%
X86200000Y-69500000D03*
D14*
%TO.P,J1,2,Pin_2*%
%TO.N,GND*%
X86200000Y-72040000D03*
%TO.P,J1,3,Pin_3*%
%TO.N,LED*%
X86200000Y-74580000D03*
%TO.P,J1,4,Pin_4*%
%TO.N,PWM*%
X86200000Y-77120000D03*
%TO.P,J1,5,Pin_5*%
%TO.N,BUTTON*%
X86200000Y-79660000D03*
%TD*%
D15*
%TO.P,C1,1*%
%TO.N,5V+*%
X111500000Y-75150000D03*
%TO.P,C1,2*%
%TO.N,GND*%
X111500000Y-73250000D03*
%TD*%
D16*
%TO.P,D1,1,VDD*%
%TO.N,5V+*%
X114000000Y-76000000D03*
%TO.P,D1,2,DOUT*%
%TO.N,unconnected-(D1-DOUT-Pad2)*%
X114000000Y-72700000D03*
%TO.P,D1,3,VSS*%
%TO.N,GND*%
X118900000Y-72700000D03*
%TO.P,D1,4,DIN*%
%TO.N,LED*%
X118900000Y-76000000D03*
%TD*%
D17*
%TO.N,GND*%
X134250000Y-81250000D03*
X133750000Y-80750000D03*
X133250000Y-80250000D03*
X132750000Y-79750000D03*
X134750000Y-81750000D03*
X135250000Y-82250000D03*
X132250000Y-79250000D03*
X131500000Y-78500000D03*
X103000000Y-77250000D03*
X102250000Y-78000000D03*
X101750000Y-78500000D03*
X101250000Y-79000000D03*
X100750000Y-79500000D03*
X100250000Y-80000000D03*
X99750000Y-80500000D03*
X99250000Y-81000000D03*
X98750000Y-81500000D03*
%TO.N,5V+*%
X115000000Y-74500000D03*
%TO.N,GND*%
X141000000Y-68450000D03*
%TD*%
D18*
%TO.N,PWM*%
X139965686Y-87600000D02*
X140250000Y-87315686D01*
X92500000Y-79200000D02*
X92500000Y-86765686D01*
X145000000Y-77950000D02*
X145000000Y-72910000D01*
X92000000Y-78950000D02*
X92250000Y-78950000D01*
X145000000Y-72910000D02*
X143250000Y-71160000D01*
D19*
X89750000Y-76700000D02*
X89330000Y-77120000D01*
X92000000Y-78700000D02*
X90000000Y-76700000D01*
D18*
X140250000Y-87315686D02*
X140250000Y-82700000D01*
D19*
X90000000Y-76700000D02*
X89750000Y-76700000D01*
D18*
X140250000Y-82700000D02*
X145000000Y-77950000D01*
X92500000Y-86765686D02*
X93334314Y-87600000D01*
X92250000Y-78950000D02*
X92500000Y-79200000D01*
D19*
X89330000Y-77120000D02*
X86200000Y-77120000D01*
D18*
X93334314Y-87600000D02*
X139965686Y-87600000D01*
%TO.N,LED*%
X93000000Y-86700000D02*
X93500000Y-87200000D01*
D19*
X118900000Y-76600000D02*
X117000000Y-78500000D01*
X93000000Y-77950000D02*
X89630000Y-74580000D01*
X118900000Y-76000000D02*
X118900000Y-76600000D01*
D18*
X108300000Y-87200000D02*
X117000000Y-78500000D01*
X93000000Y-77950000D02*
X93000000Y-86700000D01*
X93500000Y-87200000D02*
X108300000Y-87200000D01*
D19*
X89630000Y-74580000D02*
X86200000Y-74580000D01*
%TO.N,5V+*%
X113150000Y-75150000D02*
X114000000Y-76000000D01*
D20*
X115000000Y-75000000D02*
X114000000Y-76000000D01*
X115000000Y-74500000D02*
X115000000Y-75000000D01*
D19*
X111500000Y-75150000D02*
X113150000Y-75150000D01*
%TD*%
%TA.AperFunction,Conductor*%
%TO.N,GND*%
G36*
X144002702Y-58500617D02*
G01*
X144386771Y-58517386D01*
X144397506Y-58518326D01*
X144775971Y-58568152D01*
X144786597Y-58570025D01*
X145159284Y-58652648D01*
X145169710Y-58655442D01*
X145533765Y-58770227D01*
X145543911Y-58773920D01*
X145896578Y-58920000D01*
X145906369Y-58924566D01*
X146244942Y-59100816D01*
X146254310Y-59106224D01*
X146576244Y-59311318D01*
X146585105Y-59317523D01*
X146887930Y-59549889D01*
X146896217Y-59556843D01*
X147177635Y-59814715D01*
X147185284Y-59822364D01*
X147443156Y-60103782D01*
X147450110Y-60112069D01*
X147682476Y-60414894D01*
X147688681Y-60423755D01*
X147893775Y-60745689D01*
X147899183Y-60755057D01*
X148075430Y-61093623D01*
X148080002Y-61103427D01*
X148226075Y-61456078D01*
X148229775Y-61466244D01*
X148344554Y-61830278D01*
X148347354Y-61840727D01*
X148429971Y-62213389D01*
X148431849Y-62224042D01*
X148481671Y-62602473D01*
X148482614Y-62613249D01*
X148499382Y-62997297D01*
X148499500Y-63002706D01*
X148499500Y-84497293D01*
X148499382Y-84502702D01*
X148482614Y-84886750D01*
X148481671Y-84897526D01*
X148431849Y-85275957D01*
X148429971Y-85286610D01*
X148347354Y-85659272D01*
X148344554Y-85669721D01*
X148229775Y-86033755D01*
X148226075Y-86043921D01*
X148080002Y-86396572D01*
X148075430Y-86406376D01*
X147899183Y-86744942D01*
X147893775Y-86754310D01*
X147688681Y-87076244D01*
X147682476Y-87085105D01*
X147450110Y-87387930D01*
X147443156Y-87396217D01*
X147185284Y-87677635D01*
X147177635Y-87685284D01*
X146896217Y-87943156D01*
X146887930Y-87950110D01*
X146585105Y-88182476D01*
X146576244Y-88188681D01*
X146254310Y-88393775D01*
X146244942Y-88399183D01*
X145906376Y-88575430D01*
X145896572Y-88580002D01*
X145543921Y-88726075D01*
X145533755Y-88729775D01*
X145169721Y-88844554D01*
X145159272Y-88847354D01*
X144786610Y-88929971D01*
X144775957Y-88931849D01*
X144397526Y-88981671D01*
X144386750Y-88982614D01*
X144002703Y-88999382D01*
X143997294Y-88999500D01*
X87502706Y-88999500D01*
X87497297Y-88999382D01*
X87113249Y-88982614D01*
X87102473Y-88981671D01*
X86724042Y-88931849D01*
X86713389Y-88929971D01*
X86340727Y-88847354D01*
X86330278Y-88844554D01*
X85966244Y-88729775D01*
X85956078Y-88726075D01*
X85603427Y-88580002D01*
X85593623Y-88575430D01*
X85255057Y-88399183D01*
X85245689Y-88393775D01*
X84923755Y-88188681D01*
X84914894Y-88182476D01*
X84612069Y-87950110D01*
X84603782Y-87943156D01*
X84322364Y-87685284D01*
X84314715Y-87677635D01*
X84056843Y-87396217D01*
X84049889Y-87387930D01*
X83817523Y-87085105D01*
X83811318Y-87076244D01*
X83606224Y-86754310D01*
X83600816Y-86744942D01*
X83566497Y-86679016D01*
X83424566Y-86406369D01*
X83419997Y-86396572D01*
X83273920Y-86043911D01*
X83270224Y-86033755D01*
X83155442Y-85669710D01*
X83152648Y-85659284D01*
X83070025Y-85286597D01*
X83068152Y-85275971D01*
X83018326Y-84897506D01*
X83017386Y-84886771D01*
X83000618Y-84502702D01*
X83000500Y-84497293D01*
X83000500Y-74580000D01*
X84644706Y-74580000D01*
X84663853Y-74823297D01*
X84663853Y-74823300D01*
X84663854Y-74823302D01*
X84718160Y-75049501D01*
X84720830Y-75060619D01*
X84814222Y-75286089D01*
X84941737Y-75494173D01*
X84941738Y-75494176D01*
X84948529Y-75502127D01*
X85100241Y-75679759D01*
X85146580Y-75719336D01*
X85189168Y-75755710D01*
X85227361Y-75814217D01*
X85227859Y-75884085D01*
X85190505Y-75943131D01*
X85189168Y-75944290D01*
X85100241Y-76020241D01*
X84941738Y-76205823D01*
X84941737Y-76205826D01*
X84814222Y-76413910D01*
X84720830Y-76639380D01*
X84663853Y-76876702D01*
X84644706Y-77120000D01*
X84663853Y-77363297D01*
X84663853Y-77363300D01*
X84663854Y-77363302D01*
X84702304Y-77523457D01*
X84720830Y-77600619D01*
X84814222Y-77826089D01*
X84941737Y-78034173D01*
X84941738Y-78034176D01*
X84956049Y-78050932D01*
X85100241Y-78219759D01*
X85168250Y-78277844D01*
X85189168Y-78295710D01*
X85227361Y-78354217D01*
X85227859Y-78424085D01*
X85190505Y-78483131D01*
X85189168Y-78484290D01*
X85100241Y-78560241D01*
X84941738Y-78745823D01*
X84941737Y-78745826D01*
X84814222Y-78953910D01*
X84720830Y-79179380D01*
X84663853Y-79416702D01*
X84644706Y-79660000D01*
X84663853Y-79903297D01*
X84720830Y-80140619D01*
X84814222Y-80366089D01*
X84941737Y-80574173D01*
X84941738Y-80574176D01*
X84941741Y-80574179D01*
X85100241Y-80759759D01*
X85243897Y-80882453D01*
X85285823Y-80918261D01*
X85285826Y-80918262D01*
X85493910Y-81045777D01*
X85719381Y-81139169D01*
X85719378Y-81139169D01*
X85719384Y-81139170D01*
X85719388Y-81139172D01*
X85956698Y-81196146D01*
X86200000Y-81215294D01*
X86443302Y-81196146D01*
X86680612Y-81139172D01*
X86906089Y-81045777D01*
X87114179Y-80918259D01*
X87299759Y-80759759D01*
X87458259Y-80574179D01*
X87585777Y-80366089D01*
X87679172Y-80140612D01*
X87736146Y-79903302D01*
X87755294Y-79660000D01*
X87736146Y-79416698D01*
X87679172Y-79179388D01*
X87585777Y-78953911D01*
X87585777Y-78953910D01*
X87458262Y-78745826D01*
X87458261Y-78745823D01*
X87353360Y-78623000D01*
X87299759Y-78560241D01*
X87299757Y-78560239D01*
X87299756Y-78560238D01*
X87210832Y-78484290D01*
X87172638Y-78425784D01*
X87172139Y-78355916D01*
X87209493Y-78296869D01*
X87210832Y-78295710D01*
X87299755Y-78219762D01*
X87299759Y-78219759D01*
X87432817Y-78063967D01*
X87491322Y-78025775D01*
X87527106Y-78020500D01*
X89418693Y-78020500D01*
X89418694Y-78020499D01*
X89592666Y-77985895D01*
X89674606Y-77951953D01*
X89756547Y-77918013D01*
X89756549Y-77918011D01*
X89756554Y-77918009D01*
X89784608Y-77899263D01*
X89851284Y-77878383D01*
X89918665Y-77896866D01*
X89941182Y-77914682D01*
X91425958Y-79399459D01*
X91425965Y-79399465D01*
X91573451Y-79498011D01*
X91573452Y-79498011D01*
X91573453Y-79498012D01*
X91737334Y-79565895D01*
X91799691Y-79578298D01*
X91861601Y-79610681D01*
X91896176Y-79671397D01*
X91899500Y-79699915D01*
X91899500Y-86679016D01*
X91899499Y-86679034D01*
X91899499Y-86844740D01*
X91899498Y-86844740D01*
X91940423Y-86997471D01*
X91965220Y-87040419D01*
X91965221Y-87040423D01*
X91965222Y-87040423D01*
X92019479Y-87134400D01*
X92019481Y-87134403D01*
X92138349Y-87253271D01*
X92138355Y-87253276D01*
X92849453Y-87964374D01*
X92849463Y-87964385D01*
X92853793Y-87968715D01*
X92853794Y-87968716D01*
X92965598Y-88080520D01*
X93052409Y-88130639D01*
X93052411Y-88130641D01*
X93090465Y-88152611D01*
X93102529Y-88159577D01*
X93255257Y-88200500D01*
X139879017Y-88200500D01*
X139879033Y-88200501D01*
X139886629Y-88200501D01*
X140044740Y-88200501D01*
X140044743Y-88200501D01*
X140197471Y-88159577D01*
X140247590Y-88130639D01*
X140334402Y-88080520D01*
X140446206Y-87968716D01*
X140446206Y-87968714D01*
X140730520Y-87684402D01*
X140809577Y-87547470D01*
X140850501Y-87394743D01*
X140850501Y-87236628D01*
X140850501Y-87229033D01*
X140850500Y-87229015D01*
X140850500Y-84378711D01*
X142149500Y-84378711D01*
X142149500Y-84621288D01*
X142181161Y-84861785D01*
X142243947Y-85096104D01*
X142336773Y-85320205D01*
X142336776Y-85320212D01*
X142458064Y-85530289D01*
X142458066Y-85530292D01*
X142458067Y-85530293D01*
X142605733Y-85722736D01*
X142605739Y-85722743D01*
X142777256Y-85894260D01*
X142777262Y-85894265D01*
X142969711Y-86041936D01*
X143179788Y-86163224D01*
X143403900Y-86256054D01*
X143638211Y-86318838D01*
X143818586Y-86342584D01*
X143878711Y-86350500D01*
X143878712Y-86350500D01*
X144121289Y-86350500D01*
X144169388Y-86344167D01*
X144361789Y-86318838D01*
X144596100Y-86256054D01*
X144820212Y-86163224D01*
X145030289Y-86041936D01*
X145222738Y-85894265D01*
X145394265Y-85722738D01*
X145541936Y-85530289D01*
X145663224Y-85320212D01*
X145756054Y-85096100D01*
X145818838Y-84861789D01*
X145850500Y-84621288D01*
X145850500Y-84378712D01*
X145818838Y-84138211D01*
X145756054Y-83903900D01*
X145663224Y-83679788D01*
X145541936Y-83469711D01*
X145394265Y-83277262D01*
X145394260Y-83277256D01*
X145222743Y-83105739D01*
X145222736Y-83105733D01*
X145030293Y-82958067D01*
X145030292Y-82958066D01*
X145030289Y-82958064D01*
X144820212Y-82836776D01*
X144820205Y-82836773D01*
X144596104Y-82743947D01*
X144361785Y-82681161D01*
X144121289Y-82649500D01*
X144121288Y-82649500D01*
X143878712Y-82649500D01*
X143878711Y-82649500D01*
X143638214Y-82681161D01*
X143403895Y-82743947D01*
X143179794Y-82836773D01*
X143179785Y-82836777D01*
X142969706Y-82958067D01*
X142777263Y-83105733D01*
X142777256Y-83105739D01*
X142605739Y-83277256D01*
X142605733Y-83277263D01*
X142458067Y-83469706D01*
X142336777Y-83679785D01*
X142336773Y-83679794D01*
X142243947Y-83903895D01*
X142181161Y-84138214D01*
X142149500Y-84378711D01*
X140850500Y-84378711D01*
X140850500Y-83000096D01*
X140870185Y-82933057D01*
X140886814Y-82912420D01*
X145358506Y-78440727D01*
X145358511Y-78440724D01*
X145368714Y-78430520D01*
X145368716Y-78430520D01*
X145480520Y-78318716D01*
X145559577Y-78181784D01*
X145594636Y-78050941D01*
X145600500Y-78029058D01*
X145600500Y-77870943D01*
X145600500Y-72999060D01*
X145600501Y-72999047D01*
X145600501Y-72830944D01*
X145559576Y-72678214D01*
X145559573Y-72678209D01*
X145480524Y-72541290D01*
X145480518Y-72541282D01*
X144636818Y-71697582D01*
X144603333Y-71636259D01*
X144600499Y-71609901D01*
X144600499Y-70262129D01*
X144600498Y-70262123D01*
X144600497Y-70262116D01*
X144594091Y-70202517D01*
X144543796Y-70067669D01*
X144543795Y-70067668D01*
X144543793Y-70067664D01*
X144457547Y-69952455D01*
X144457544Y-69952452D01*
X144342335Y-69866206D01*
X144342328Y-69866202D01*
X144207482Y-69815908D01*
X144207483Y-69815908D01*
X144147883Y-69809501D01*
X144147881Y-69809500D01*
X144147873Y-69809500D01*
X144147864Y-69809500D01*
X142352129Y-69809500D01*
X142352123Y-69809501D01*
X142292516Y-69815908D01*
X142157671Y-69866202D01*
X142157664Y-69866206D01*
X142042455Y-69952452D01*
X142042452Y-69952455D01*
X141956206Y-70067664D01*
X141956202Y-70067671D01*
X141905908Y-70202517D01*
X141899501Y-70262116D01*
X141899501Y-70262123D01*
X141899500Y-70262135D01*
X141899500Y-72057870D01*
X141899501Y-72057876D01*
X141905908Y-72117483D01*
X141956202Y-72252328D01*
X141956206Y-72252335D01*
X142042452Y-72367544D01*
X142042455Y-72367547D01*
X142157664Y-72453793D01*
X142157671Y-72453797D01*
X142289081Y-72502810D01*
X142345015Y-72544681D01*
X142369432Y-72610145D01*
X142354580Y-72678418D01*
X142333430Y-72706673D01*
X142211503Y-72828600D01*
X142075965Y-73022169D01*
X142075964Y-73022171D01*
X141976098Y-73236335D01*
X141976094Y-73236344D01*
X141914938Y-73464586D01*
X141914936Y-73464596D01*
X141894341Y-73699999D01*
X141894341Y-73700000D01*
X141914936Y-73935403D01*
X141914938Y-73935413D01*
X141976094Y-74163655D01*
X141976096Y-74163659D01*
X141976097Y-74163663D01*
X142007515Y-74231039D01*
X142075965Y-74377830D01*
X142075967Y-74377834D01*
X142126874Y-74450536D01*
X142211505Y-74571401D01*
X142378599Y-74738495D01*
X142408966Y-74759758D01*
X142572165Y-74874032D01*
X142572167Y-74874033D01*
X142572170Y-74874035D01*
X142786337Y-74973903D01*
X143014592Y-75035063D01*
X143202918Y-75051539D01*
X143249999Y-75055659D01*
X143250000Y-75055659D01*
X143250001Y-75055659D01*
X143289234Y-75052226D01*
X143485408Y-75035063D01*
X143713663Y-74973903D01*
X143927830Y-74874035D01*
X144121401Y-74738495D01*
X144187819Y-74672077D01*
X144249142Y-74638592D01*
X144318834Y-74643576D01*
X144374767Y-74685448D01*
X144399184Y-74750912D01*
X144399500Y-74759758D01*
X144399500Y-77649902D01*
X144379815Y-77716941D01*
X144363181Y-77737583D01*
X139769481Y-82331282D01*
X139769479Y-82331285D01*
X139719361Y-82418094D01*
X139719359Y-82418096D01*
X139690425Y-82468209D01*
X139690424Y-82468210D01*
X139690423Y-82468215D01*
X139649499Y-82620943D01*
X139649499Y-82620945D01*
X139649499Y-82789046D01*
X139649500Y-82789059D01*
X139649500Y-86875500D01*
X139629815Y-86942539D01*
X139577011Y-86988294D01*
X139525500Y-86999500D01*
X109649097Y-86999500D01*
X109582058Y-86979815D01*
X109536303Y-86927011D01*
X109526359Y-86857853D01*
X109555384Y-86794297D01*
X109561416Y-86787819D01*
X116912416Y-79436819D01*
X116973739Y-79403334D01*
X117000097Y-79400500D01*
X117088693Y-79400500D01*
X117088694Y-79400499D01*
X117262666Y-79365895D01*
X117426547Y-79298012D01*
X117574036Y-79199464D01*
X119599464Y-77174035D01*
X119698013Y-77026547D01*
X119706885Y-77005125D01*
X119750725Y-76950723D01*
X119778114Y-76936396D01*
X119892328Y-76893797D01*
X119892327Y-76893797D01*
X119892331Y-76893796D01*
X120007546Y-76807546D01*
X120093796Y-76692331D01*
X120144091Y-76557483D01*
X120150500Y-76497873D01*
X120150499Y-75502128D01*
X120144091Y-75442517D01*
X120093796Y-75307669D01*
X120093795Y-75307668D01*
X120093793Y-75307664D01*
X120007547Y-75192455D01*
X120007544Y-75192452D01*
X119892335Y-75106206D01*
X119892328Y-75106202D01*
X119757482Y-75055908D01*
X119757483Y-75055908D01*
X119697883Y-75049501D01*
X119697881Y-75049500D01*
X119697873Y-75049500D01*
X119697864Y-75049500D01*
X118102129Y-75049500D01*
X118102123Y-75049501D01*
X118042516Y-75055908D01*
X117907671Y-75106202D01*
X117907664Y-75106206D01*
X117792455Y-75192452D01*
X117792452Y-75192455D01*
X117706206Y-75307664D01*
X117706202Y-75307671D01*
X117655908Y-75442517D01*
X117649709Y-75500185D01*
X117649501Y-75502123D01*
X117649500Y-75502135D01*
X117649500Y-76497870D01*
X117649501Y-76497884D01*
X117650840Y-76510337D01*
X117638432Y-76579096D01*
X117615231Y-76611268D01*
X116300540Y-77925958D01*
X116300534Y-77925965D01*
X116201988Y-78073451D01*
X116134105Y-78237333D01*
X116134103Y-78237341D01*
X116099500Y-78411303D01*
X116099500Y-78499903D01*
X116079815Y-78566942D01*
X116063181Y-78587584D01*
X108087584Y-86563181D01*
X108026261Y-86596666D01*
X107999903Y-86599500D01*
X93800098Y-86599500D01*
X93733059Y-86579815D01*
X93712417Y-86563181D01*
X93636819Y-86487583D01*
X93603334Y-86426260D01*
X93600500Y-86399902D01*
X93600500Y-78674362D01*
X93620185Y-78607323D01*
X93636814Y-78586685D01*
X93699464Y-78524036D01*
X93798013Y-78376547D01*
X93865895Y-78212666D01*
X93900500Y-78038692D01*
X93900500Y-77861309D01*
X93865895Y-77687334D01*
X93798013Y-77523454D01*
X93798011Y-77523451D01*
X93798009Y-77523447D01*
X93699464Y-77375965D01*
X93699461Y-77375961D01*
X91173483Y-74849983D01*
X110274500Y-74849983D01*
X110274500Y-75450001D01*
X110274501Y-75450019D01*
X110285000Y-75552796D01*
X110285001Y-75552799D01*
X110340185Y-75719331D01*
X110340187Y-75719336D01*
X110362623Y-75755710D01*
X110432288Y-75868656D01*
X110556344Y-75992712D01*
X110705666Y-76084814D01*
X110872203Y-76139999D01*
X110974991Y-76150500D01*
X112025008Y-76150499D01*
X112025016Y-76150498D01*
X112025019Y-76150498D01*
X112081302Y-76144748D01*
X112127797Y-76139999D01*
X112294334Y-76084814D01*
X112320036Y-76068960D01*
X112385132Y-76050500D01*
X112625501Y-76050500D01*
X112692540Y-76070185D01*
X112738295Y-76122989D01*
X112749501Y-76174500D01*
X112749501Y-76497876D01*
X112755908Y-76557483D01*
X112806202Y-76692328D01*
X112806206Y-76692335D01*
X112892452Y-76807544D01*
X112892455Y-76807547D01*
X113007664Y-76893793D01*
X113007671Y-76893797D01*
X113052618Y-76910561D01*
X113142517Y-76944091D01*
X113202127Y-76950500D01*
X113655609Y-76950499D01*
X113703065Y-76959939D01*
X113705963Y-76961139D01*
X113708164Y-76962051D01*
X113708168Y-76962051D01*
X113708169Y-76962052D01*
X113901455Y-77000499D01*
X113901458Y-77000500D01*
X113901460Y-77000500D01*
X114098542Y-77000500D01*
X114098543Y-77000499D01*
X114291836Y-76962051D01*
X114295515Y-76960526D01*
X114296935Y-76959939D01*
X114344391Y-76950499D01*
X114797871Y-76950499D01*
X114797872Y-76950499D01*
X114857483Y-76944091D01*
X114992331Y-76893796D01*
X115107546Y-76807546D01*
X115193796Y-76692331D01*
X115244091Y-76557483D01*
X115250500Y-76497873D01*
X115250499Y-76215781D01*
X115270183Y-76148743D01*
X115286813Y-76128105D01*
X115777140Y-75637781D01*
X115886632Y-75473914D01*
X115962052Y-75291835D01*
X116000501Y-75098540D01*
X116000501Y-74901459D01*
X116000501Y-74896349D01*
X116000500Y-74896323D01*
X116000500Y-74401456D01*
X115962052Y-74208170D01*
X115962051Y-74208169D01*
X115962051Y-74208165D01*
X115943618Y-74163663D01*
X115886635Y-74026092D01*
X115886628Y-74026079D01*
X115777139Y-73862218D01*
X115777136Y-73862214D01*
X115637785Y-73722863D01*
X115637781Y-73722860D01*
X115473920Y-73613371D01*
X115473907Y-73613364D01*
X115291839Y-73537950D01*
X115286003Y-73536180D01*
X115286429Y-73534774D01*
X115230993Y-73505766D01*
X115196428Y-73445045D01*
X115200177Y-73375276D01*
X115200892Y-73373303D01*
X115244091Y-73257483D01*
X115250500Y-73197873D01*
X115250499Y-72202128D01*
X115244091Y-72142517D01*
X115212520Y-72057872D01*
X115193797Y-72007671D01*
X115193793Y-72007664D01*
X115107547Y-71892455D01*
X115107544Y-71892452D01*
X114992335Y-71806206D01*
X114992328Y-71806202D01*
X114857482Y-71755908D01*
X114857483Y-71755908D01*
X114797883Y-71749501D01*
X114797881Y-71749500D01*
X114797873Y-71749500D01*
X114797864Y-71749500D01*
X113202129Y-71749500D01*
X113202123Y-71749501D01*
X113142516Y-71755908D01*
X113007671Y-71806202D01*
X113007664Y-71806206D01*
X112892455Y-71892452D01*
X112892452Y-71892455D01*
X112806206Y-72007664D01*
X112806202Y-72007671D01*
X112755908Y-72142517D01*
X112749501Y-72202116D01*
X112749501Y-72202123D01*
X112749500Y-72202135D01*
X112749500Y-73197870D01*
X112749501Y-73197876D01*
X112755908Y-73257483D01*
X112806202Y-73392328D01*
X112806206Y-73392335D01*
X112892452Y-73507544D01*
X112892455Y-73507547D01*
X113007664Y-73593793D01*
X113007671Y-73593797D01*
X113142517Y-73644091D01*
X113142516Y-73644091D01*
X113149444Y-73644835D01*
X113202127Y-73650500D01*
X114135216Y-73650499D01*
X114202255Y-73670183D01*
X114248010Y-73722987D01*
X114257954Y-73792146D01*
X114228929Y-73855702D01*
X114222907Y-73862170D01*
X114222868Y-73862208D01*
X114222860Y-73862218D01*
X114113371Y-74026079D01*
X114113364Y-74026092D01*
X114037950Y-74208160D01*
X114037947Y-74208170D01*
X113999500Y-74401456D01*
X113999500Y-74426638D01*
X113979815Y-74493677D01*
X113927011Y-74539432D01*
X113857853Y-74549376D01*
X113794297Y-74520351D01*
X113787819Y-74514319D01*
X113724035Y-74450535D01*
X113724030Y-74450531D01*
X113664961Y-74411064D01*
X113664960Y-74411063D01*
X113576544Y-74351985D01*
X113576542Y-74351984D01*
X113492887Y-74317334D01*
X113412666Y-74284105D01*
X113412658Y-74284103D01*
X113238696Y-74249500D01*
X113238692Y-74249500D01*
X113238691Y-74249500D01*
X112385132Y-74249500D01*
X112320036Y-74231039D01*
X112294334Y-74215186D01*
X112127797Y-74160001D01*
X112127795Y-74160000D01*
X112025010Y-74149500D01*
X110974998Y-74149500D01*
X110974980Y-74149501D01*
X110872203Y-74160000D01*
X110872200Y-74160001D01*
X110705668Y-74215185D01*
X110705663Y-74215187D01*
X110556342Y-74307289D01*
X110432289Y-74431342D01*
X110340187Y-74580663D01*
X110340186Y-74580666D01*
X110285001Y-74747203D01*
X110285001Y-74747204D01*
X110285000Y-74747204D01*
X110274500Y-74849983D01*
X91173483Y-74849983D01*
X90204035Y-73880535D01*
X90204030Y-73880531D01*
X90144961Y-73841064D01*
X90144960Y-73841063D01*
X90056544Y-73781985D01*
X90056542Y-73781984D01*
X89974607Y-73748046D01*
X89974606Y-73748046D01*
X89892666Y-73714105D01*
X89892658Y-73714103D01*
X89718696Y-73679500D01*
X89718692Y-73679500D01*
X89718691Y-73679500D01*
X87527106Y-73679500D01*
X87460067Y-73659815D01*
X87432818Y-73636034D01*
X87299759Y-73480241D01*
X87281441Y-73464596D01*
X87114176Y-73321738D01*
X87114173Y-73321737D01*
X86906089Y-73194222D01*
X86680618Y-73100830D01*
X86680621Y-73100830D01*
X86574992Y-73075470D01*
X86443302Y-73043854D01*
X86443300Y-73043853D01*
X86443297Y-73043853D01*
X86200000Y-73024706D01*
X85956702Y-73043853D01*
X85719380Y-73100830D01*
X85493910Y-73194222D01*
X85285826Y-73321737D01*
X85285823Y-73321738D01*
X85100241Y-73480241D01*
X84941738Y-73665823D01*
X84941737Y-73665826D01*
X84814222Y-73873910D01*
X84720830Y-74099380D01*
X84663853Y-74336702D01*
X84644706Y-74580000D01*
X83000500Y-74580000D01*
X83000500Y-68402135D01*
X84649500Y-68402135D01*
X84649500Y-70597870D01*
X84649501Y-70597876D01*
X84655908Y-70657483D01*
X84706202Y-70792328D01*
X84706206Y-70792335D01*
X84792452Y-70907544D01*
X84792455Y-70907547D01*
X84907664Y-70993793D01*
X84907671Y-70993797D01*
X85042517Y-71044091D01*
X85042516Y-71044091D01*
X85049444Y-71044835D01*
X85102127Y-71050500D01*
X87297872Y-71050499D01*
X87357483Y-71044091D01*
X87492331Y-70993796D01*
X87607546Y-70907546D01*
X87693796Y-70792331D01*
X87744091Y-70657483D01*
X87750500Y-70597873D01*
X87750499Y-68402128D01*
X87744091Y-68342517D01*
X87693796Y-68207669D01*
X87693795Y-68207668D01*
X87693793Y-68207664D01*
X87607547Y-68092455D01*
X87607544Y-68092452D01*
X87492335Y-68006206D01*
X87492328Y-68006202D01*
X87357482Y-67955908D01*
X87357483Y-67955908D01*
X87297883Y-67949501D01*
X87297881Y-67949500D01*
X87297873Y-67949500D01*
X87297864Y-67949500D01*
X85102129Y-67949500D01*
X85102123Y-67949501D01*
X85042516Y-67955908D01*
X84907671Y-68006202D01*
X84907664Y-68006206D01*
X84792455Y-68092452D01*
X84792452Y-68092455D01*
X84706206Y-68207664D01*
X84706202Y-68207671D01*
X84655908Y-68342517D01*
X84649501Y-68402116D01*
X84649501Y-68402123D01*
X84649500Y-68402135D01*
X83000500Y-68402135D01*
X83000500Y-63002706D01*
X83000618Y-62997297D01*
X83001751Y-62971337D01*
X83005795Y-62878711D01*
X85649500Y-62878711D01*
X85649500Y-63121288D01*
X85681161Y-63361785D01*
X85743947Y-63596104D01*
X85774723Y-63670403D01*
X85836776Y-63820212D01*
X85958064Y-64030289D01*
X85958066Y-64030292D01*
X85958067Y-64030293D01*
X86105733Y-64222736D01*
X86105739Y-64222743D01*
X86277256Y-64394260D01*
X86277262Y-64394265D01*
X86469711Y-64541936D01*
X86679788Y-64663224D01*
X86903900Y-64756054D01*
X87138211Y-64818838D01*
X87318586Y-64842584D01*
X87378711Y-64850500D01*
X87378712Y-64850500D01*
X87621289Y-64850500D01*
X87669388Y-64844167D01*
X87861789Y-64818838D01*
X88096100Y-64756054D01*
X88320212Y-64663224D01*
X88530289Y-64541936D01*
X88722738Y-64394265D01*
X88894265Y-64222738D01*
X89041936Y-64030289D01*
X89163224Y-63820212D01*
X89256054Y-63596100D01*
X89318838Y-63361789D01*
X89338487Y-63212541D01*
X92949500Y-63212541D01*
X92949500Y-66687453D01*
X92949501Y-66687455D01*
X92964595Y-66859999D01*
X92964596Y-66860003D01*
X92964596Y-66860004D01*
X93024406Y-67083220D01*
X93024410Y-67083231D01*
X93122070Y-67292664D01*
X93122072Y-67292668D01*
X93254623Y-67481969D01*
X93418031Y-67645377D01*
X93607332Y-67777928D01*
X93733338Y-67836685D01*
X93816768Y-67875589D01*
X93816770Y-67875589D01*
X93816775Y-67875592D01*
X94039995Y-67935404D01*
X94212545Y-67950500D01*
X97687454Y-67950499D01*
X97860005Y-67935404D01*
X98083225Y-67875592D01*
X98292668Y-67777928D01*
X98481969Y-67645377D01*
X98645377Y-67481969D01*
X98777928Y-67292668D01*
X98875592Y-67083225D01*
X98935404Y-66860005D01*
X98950500Y-66687455D01*
X98950499Y-63212546D01*
X98950499Y-63212541D01*
X133949500Y-63212541D01*
X133949500Y-66687453D01*
X133949501Y-66687455D01*
X133964595Y-66859999D01*
X133964596Y-66860003D01*
X133964596Y-66860004D01*
X134024406Y-67083220D01*
X134024410Y-67083231D01*
X134122070Y-67292664D01*
X134122072Y-67292668D01*
X134254623Y-67481969D01*
X134418031Y-67645377D01*
X134607332Y-67777928D01*
X134733338Y-67836685D01*
X134816768Y-67875589D01*
X134816770Y-67875589D01*
X134816775Y-67875592D01*
X135039995Y-67935404D01*
X135212545Y-67950500D01*
X138687454Y-67950499D01*
X138860005Y-67935404D01*
X139083225Y-67875592D01*
X139292668Y-67777928D01*
X139481969Y-67645377D01*
X139645377Y-67481969D01*
X139777928Y-67292668D01*
X139875592Y-67083225D01*
X139935404Y-66860005D01*
X139950500Y-66687455D01*
X139950499Y-63434999D01*
X141894341Y-63434999D01*
X141894341Y-63435000D01*
X141914936Y-63670403D01*
X141914938Y-63670413D01*
X141976094Y-63898655D01*
X141976096Y-63898659D01*
X141976097Y-63898663D01*
X142037477Y-64030293D01*
X142075965Y-64112830D01*
X142075967Y-64112834D01*
X142152922Y-64222736D01*
X142211505Y-64306401D01*
X142378599Y-64473495D01*
X142475384Y-64541265D01*
X142572165Y-64609032D01*
X142572167Y-64609033D01*
X142572170Y-64609035D01*
X142786337Y-64708903D01*
X143014592Y-64770063D01*
X143202918Y-64786539D01*
X143249999Y-64790659D01*
X143250000Y-64790659D01*
X143250001Y-64790659D01*
X143289234Y-64787226D01*
X143485408Y-64770063D01*
X143713663Y-64708903D01*
X143927830Y-64609035D01*
X144121401Y-64473495D01*
X144288495Y-64306401D01*
X144424035Y-64112830D01*
X144523903Y-63898663D01*
X144585063Y-63670408D01*
X144605659Y-63435000D01*
X144585063Y-63199592D01*
X144523903Y-62971337D01*
X144424035Y-62757171D01*
X144323261Y-62613249D01*
X144288494Y-62563597D01*
X144121402Y-62396506D01*
X144121395Y-62396501D01*
X143927834Y-62260967D01*
X143927830Y-62260965D01*
X143914230Y-62254623D01*
X143713663Y-62161097D01*
X143713659Y-62161096D01*
X143713655Y-62161094D01*
X143485413Y-62099938D01*
X143485403Y-62099936D01*
X143250001Y-62079341D01*
X143249999Y-62079341D01*
X143014596Y-62099936D01*
X143014586Y-62099938D01*
X142786344Y-62161094D01*
X142786335Y-62161098D01*
X142572171Y-62260964D01*
X142572169Y-62260965D01*
X142378597Y-62396505D01*
X142211505Y-62563597D01*
X142075965Y-62757169D01*
X142075964Y-62757171D01*
X141976098Y-62971335D01*
X141976094Y-62971344D01*
X141914938Y-63199586D01*
X141914936Y-63199596D01*
X141894341Y-63434999D01*
X139950499Y-63434999D01*
X139950499Y-63212546D01*
X139935404Y-63039995D01*
X139875592Y-62816775D01*
X139854945Y-62772498D01*
X139777929Y-62607335D01*
X139777928Y-62607333D01*
X139777928Y-62607332D01*
X139645377Y-62418031D01*
X139481969Y-62254623D01*
X139292668Y-62122072D01*
X139292664Y-62122070D01*
X139083231Y-62024410D01*
X139083220Y-62024406D01*
X138860007Y-61964596D01*
X138859999Y-61964595D01*
X138687457Y-61949500D01*
X135212546Y-61949500D01*
X135212542Y-61949501D01*
X135074505Y-61961577D01*
X135039995Y-61964596D01*
X134816779Y-62024406D01*
X134816768Y-62024410D01*
X134607335Y-62122070D01*
X134607333Y-62122071D01*
X134418030Y-62254623D01*
X134254623Y-62418030D01*
X134122071Y-62607333D01*
X134122070Y-62607335D01*
X134024410Y-62816768D01*
X134024406Y-62816779D01*
X133964596Y-63039992D01*
X133964595Y-63040000D01*
X133949500Y-63212541D01*
X98950499Y-63212541D01*
X98935404Y-63039995D01*
X98875592Y-62816775D01*
X98854945Y-62772498D01*
X98777929Y-62607335D01*
X98777928Y-62607333D01*
X98777928Y-62607332D01*
X98645377Y-62418031D01*
X98481969Y-62254623D01*
X98292668Y-62122072D01*
X98292664Y-62122070D01*
X98083231Y-62024410D01*
X98083220Y-62024406D01*
X97860007Y-61964596D01*
X97859999Y-61964595D01*
X97687457Y-61949500D01*
X94212546Y-61949500D01*
X94212542Y-61949501D01*
X94074505Y-61961577D01*
X94039995Y-61964596D01*
X93816779Y-62024406D01*
X93816768Y-62024410D01*
X93607335Y-62122070D01*
X93607333Y-62122071D01*
X93418030Y-62254623D01*
X93254623Y-62418030D01*
X93122071Y-62607333D01*
X93122070Y-62607335D01*
X93024410Y-62816768D01*
X93024406Y-62816779D01*
X92964596Y-63039992D01*
X92964595Y-63040000D01*
X92949500Y-63212541D01*
X89338487Y-63212541D01*
X89350500Y-63121288D01*
X89350500Y-62878712D01*
X89318838Y-62638211D01*
X89256054Y-62403900D01*
X89163224Y-62179788D01*
X89041936Y-61969711D01*
X88894265Y-61777262D01*
X88894260Y-61777256D01*
X88722743Y-61605739D01*
X88722736Y-61605733D01*
X88530293Y-61458067D01*
X88530292Y-61458066D01*
X88530289Y-61458064D01*
X88320212Y-61336776D01*
X88320205Y-61336773D01*
X88096104Y-61243947D01*
X87861785Y-61181161D01*
X87621289Y-61149500D01*
X87621288Y-61149500D01*
X87378712Y-61149500D01*
X87378711Y-61149500D01*
X87138214Y-61181161D01*
X86903895Y-61243947D01*
X86679794Y-61336773D01*
X86679785Y-61336777D01*
X86469706Y-61458067D01*
X86277263Y-61605733D01*
X86277256Y-61605739D01*
X86105739Y-61777256D01*
X86105733Y-61777263D01*
X85958067Y-61969706D01*
X85836777Y-62179785D01*
X85836773Y-62179794D01*
X85743947Y-62403895D01*
X85681161Y-62638214D01*
X85649500Y-62878711D01*
X83005795Y-62878711D01*
X83017386Y-62613226D01*
X83018326Y-62602495D01*
X83068152Y-62224025D01*
X83070025Y-62213405D01*
X83152649Y-61840709D01*
X83155440Y-61830295D01*
X83270230Y-61466227D01*
X83273917Y-61456095D01*
X83420003Y-61103412D01*
X83424561Y-61093638D01*
X83600822Y-60755045D01*
X83606217Y-60745700D01*
X83811325Y-60423744D01*
X83817515Y-60414905D01*
X84049896Y-60112060D01*
X84056834Y-60103791D01*
X84314726Y-59822352D01*
X84322352Y-59814726D01*
X84603791Y-59556834D01*
X84612060Y-59549896D01*
X84914905Y-59317515D01*
X84923744Y-59311325D01*
X85245700Y-59106217D01*
X85255045Y-59100822D01*
X85593638Y-58924561D01*
X85603412Y-58920003D01*
X85956095Y-58773917D01*
X85966227Y-58770230D01*
X86330295Y-58655440D01*
X86340709Y-58652649D01*
X86713405Y-58570025D01*
X86724025Y-58568152D01*
X87102495Y-58518326D01*
X87113226Y-58517386D01*
X87497297Y-58500617D01*
X87502706Y-58500500D01*
X87565892Y-58500500D01*
X143934108Y-58500500D01*
X143997294Y-58500500D01*
X144002702Y-58500617D01*
G37*
%TD.AperFunction*%
%TD*%
D21*
X134250000Y-81250000D03*
X133750000Y-80750000D03*
X133250000Y-80250000D03*
X132750000Y-79750000D03*
X134750000Y-81750000D03*
X135250000Y-82250000D03*
X132250000Y-79250000D03*
X131500000Y-78500000D03*
X103000000Y-77250000D03*
X102250000Y-78000000D03*
X101750000Y-78500000D03*
X101250000Y-79000000D03*
X100750000Y-79500000D03*
X100250000Y-80000000D03*
X99750000Y-80500000D03*
X99250000Y-81000000D03*
X98750000Y-81500000D03*
X115000000Y-74500000D03*
X141000000Y-68450000D03*
D22*
X95950000Y-64950000D03*
X95950000Y-83950000D03*
X136950000Y-64950000D03*
X136950000Y-83950000D03*
D23*
X87500000Y-63000000D03*
X143250000Y-71160000D03*
X143250000Y-73700000D03*
X143250000Y-76240000D03*
X143250000Y-65975000D03*
X143250000Y-63435000D03*
X86200000Y-69500000D03*
X86200000Y-72040000D03*
X86200000Y-74580000D03*
X86200000Y-77120000D03*
X86200000Y-79660000D03*
X144000000Y-84500000D03*
M02*
