%TF.GenerationSoftware,KiCad,Pcbnew,8.0.5*%
%TF.CreationDate,2025-02-14T13:05:26+01:00*%
%TF.ProjectId,servo_plate,73657276-6f5f-4706-9c61-74652e6b6963,rev?*%
%TF.SameCoordinates,Original*%
%TF.FileFunction,Legend,Top*%
%TF.FilePolarity,Positive*%
%FSLAX46Y46*%
G04 Gerber Fmt 4.6, Leading zero omitted, Abs format (unit mm)*
G04 Created by KiCad (PCBNEW 8.0.5) date 2025-02-14 13:05:26*
%MOMM*%
%LPD*%
G01*
G04 APERTURE LIST*
%ADD10C,0.100000*%
%ADD11C,0.150000*%
%ADD12C,0.200000*%
%ADD13C,0.120000*%
%ADD14O,0.762000X0.762000*%
%ADD15C,0.350000*%
G04 APERTURE END LIST*
D10*
X145780074Y-73292419D02*
X145303884Y-73292419D01*
X145303884Y-73292419D02*
X145256265Y-73768609D01*
X145256265Y-73768609D02*
X145303884Y-73720990D01*
X145303884Y-73720990D02*
X145399122Y-73673371D01*
X145399122Y-73673371D02*
X145637217Y-73673371D01*
X145637217Y-73673371D02*
X145732455Y-73720990D01*
X145732455Y-73720990D02*
X145780074Y-73768609D01*
X145780074Y-73768609D02*
X145827693Y-73863847D01*
X145827693Y-73863847D02*
X145827693Y-74101942D01*
X145827693Y-74101942D02*
X145780074Y-74197180D01*
X145780074Y-74197180D02*
X145732455Y-74244800D01*
X145732455Y-74244800D02*
X145637217Y-74292419D01*
X145637217Y-74292419D02*
X145399122Y-74292419D01*
X145399122Y-74292419D02*
X145303884Y-74244800D01*
X145303884Y-74244800D02*
X145256265Y-74197180D01*
X146113408Y-73292419D02*
X146446741Y-74292419D01*
X146446741Y-74292419D02*
X146780074Y-73292419D01*
X147113408Y-73911466D02*
X147875313Y-73911466D01*
X147494360Y-74292419D02*
X147494360Y-73530514D01*
X90530074Y-75292419D02*
X90053884Y-75292419D01*
X90053884Y-75292419D02*
X90053884Y-74292419D01*
X90863408Y-74768609D02*
X91196741Y-74768609D01*
X91339598Y-75292419D02*
X90863408Y-75292419D01*
X90863408Y-75292419D02*
X90863408Y-74292419D01*
X90863408Y-74292419D02*
X91339598Y-74292419D01*
X91768170Y-75292419D02*
X91768170Y-74292419D01*
X91768170Y-74292419D02*
X92006265Y-74292419D01*
X92006265Y-74292419D02*
X92149122Y-74340038D01*
X92149122Y-74340038D02*
X92244360Y-74435276D01*
X92244360Y-74435276D02*
X92291979Y-74530514D01*
X92291979Y-74530514D02*
X92339598Y-74720990D01*
X92339598Y-74720990D02*
X92339598Y-74863847D01*
X92339598Y-74863847D02*
X92291979Y-75054323D01*
X92291979Y-75054323D02*
X92244360Y-75149561D01*
X92244360Y-75149561D02*
X92149122Y-75244800D01*
X92149122Y-75244800D02*
X92006265Y-75292419D01*
X92006265Y-75292419D02*
X91768170Y-75292419D01*
X145303884Y-71792419D02*
X145303884Y-70792419D01*
X145303884Y-70792419D02*
X145684836Y-70792419D01*
X145684836Y-70792419D02*
X145780074Y-70840038D01*
X145780074Y-70840038D02*
X145827693Y-70887657D01*
X145827693Y-70887657D02*
X145875312Y-70982895D01*
X145875312Y-70982895D02*
X145875312Y-71125752D01*
X145875312Y-71125752D02*
X145827693Y-71220990D01*
X145827693Y-71220990D02*
X145780074Y-71268609D01*
X145780074Y-71268609D02*
X145684836Y-71316228D01*
X145684836Y-71316228D02*
X145303884Y-71316228D01*
X146208646Y-70792419D02*
X146446741Y-71792419D01*
X146446741Y-71792419D02*
X146637217Y-71078133D01*
X146637217Y-71078133D02*
X146827693Y-71792419D01*
X146827693Y-71792419D02*
X147065789Y-70792419D01*
X147446741Y-71792419D02*
X147446741Y-70792419D01*
X147446741Y-70792419D02*
X147780074Y-71506704D01*
X147780074Y-71506704D02*
X148113407Y-70792419D01*
X148113407Y-70792419D02*
X148113407Y-71792419D01*
X145827693Y-75840038D02*
X145732455Y-75792419D01*
X145732455Y-75792419D02*
X145589598Y-75792419D01*
X145589598Y-75792419D02*
X145446741Y-75840038D01*
X145446741Y-75840038D02*
X145351503Y-75935276D01*
X145351503Y-75935276D02*
X145303884Y-76030514D01*
X145303884Y-76030514D02*
X145256265Y-76220990D01*
X145256265Y-76220990D02*
X145256265Y-76363847D01*
X145256265Y-76363847D02*
X145303884Y-76554323D01*
X145303884Y-76554323D02*
X145351503Y-76649561D01*
X145351503Y-76649561D02*
X145446741Y-76744800D01*
X145446741Y-76744800D02*
X145589598Y-76792419D01*
X145589598Y-76792419D02*
X145684836Y-76792419D01*
X145684836Y-76792419D02*
X145827693Y-76744800D01*
X145827693Y-76744800D02*
X145875312Y-76697180D01*
X145875312Y-76697180D02*
X145875312Y-76363847D01*
X145875312Y-76363847D02*
X145684836Y-76363847D01*
X146303884Y-76792419D02*
X146303884Y-75792419D01*
X146303884Y-75792419D02*
X146875312Y-76792419D01*
X146875312Y-76792419D02*
X146875312Y-75792419D01*
X147351503Y-76792419D02*
X147351503Y-75792419D01*
X147351503Y-75792419D02*
X147589598Y-75792419D01*
X147589598Y-75792419D02*
X147732455Y-75840038D01*
X147732455Y-75840038D02*
X147827693Y-75935276D01*
X147827693Y-75935276D02*
X147875312Y-76030514D01*
X147875312Y-76030514D02*
X147922931Y-76220990D01*
X147922931Y-76220990D02*
X147922931Y-76363847D01*
X147922931Y-76363847D02*
X147875312Y-76554323D01*
X147875312Y-76554323D02*
X147827693Y-76649561D01*
X147827693Y-76649561D02*
X147732455Y-76744800D01*
X147732455Y-76744800D02*
X147589598Y-76792419D01*
X147589598Y-76792419D02*
X147351503Y-76792419D01*
D11*
G36*
X101361339Y-59267117D02*
G01*
X101368001Y-59293468D01*
X101376767Y-59393538D01*
X101378436Y-59493286D01*
X101378436Y-60616803D01*
X101378417Y-60627098D01*
X101375212Y-60732554D01*
X101358897Y-60831249D01*
X101278297Y-60878632D01*
X101197697Y-60838087D01*
X101187908Y-60797387D01*
X101180603Y-60698547D01*
X101179134Y-60599706D01*
X101179134Y-59493286D01*
X101179212Y-59471921D01*
X101182440Y-59372078D01*
X101199162Y-59270048D01*
X101280739Y-59221688D01*
X101361339Y-59267117D01*
G37*
G36*
X111845708Y-59326713D02*
G01*
X111860401Y-59422349D01*
X111862805Y-59521130D01*
X111862805Y-60521549D01*
X111862659Y-60556395D01*
X111859626Y-60662933D01*
X111846196Y-60765303D01*
X111770969Y-60816106D01*
X111697208Y-60771653D01*
X111690369Y-60740360D01*
X111683103Y-60641959D01*
X111681577Y-60537669D01*
X111681577Y-59521130D01*
X111684405Y-59421141D01*
X111705512Y-59318408D01*
X111774877Y-59284214D01*
X111845708Y-59326713D01*
G37*
G36*
X92728271Y-59512769D02*
G01*
X92736514Y-59616831D01*
X92744757Y-59717544D01*
X92753000Y-59814908D01*
X92763991Y-59939518D01*
X92774982Y-60058174D01*
X92785973Y-60170877D01*
X92796964Y-60277626D01*
X92807955Y-60378422D01*
X92610118Y-60378422D01*
X92614819Y-60317826D01*
X92625231Y-60202751D01*
X92635878Y-60098016D01*
X92648586Y-59982016D01*
X92663355Y-59854750D01*
X92675785Y-59751908D01*
X92689373Y-59642729D01*
X92704121Y-59527212D01*
X92720027Y-59405359D01*
X92728271Y-59512769D01*
G37*
G36*
X95613633Y-59317615D02*
G01*
X95710537Y-59349672D01*
X95736132Y-59398766D01*
X95746196Y-59496706D01*
X95746196Y-59677934D01*
X95743723Y-59740295D01*
X95714933Y-59839623D01*
X95701675Y-59852737D01*
X95604535Y-59878213D01*
X95562037Y-59876748D01*
X95562037Y-59315478D01*
X95613633Y-59317615D01*
G37*
G36*
X106170786Y-59317615D02*
G01*
X106267690Y-59349672D01*
X106293285Y-59398766D01*
X106303349Y-59496706D01*
X106303349Y-59677934D01*
X106300876Y-59740295D01*
X106272086Y-59839623D01*
X106258828Y-59852737D01*
X106161688Y-59878213D01*
X106119190Y-59876748D01*
X106119190Y-59315478D01*
X106170786Y-59317615D01*
G37*
G36*
X110344408Y-59317615D02*
G01*
X110441311Y-59349672D01*
X110466907Y-59398766D01*
X110476971Y-59496706D01*
X110476971Y-59677934D01*
X110474498Y-59740295D01*
X110445708Y-59839623D01*
X110432450Y-59852737D01*
X110335310Y-59878213D01*
X110292812Y-59876748D01*
X110292812Y-59315478D01*
X110344408Y-59317615D01*
G37*
G36*
X113268453Y-59317090D02*
G01*
X113365387Y-59349183D01*
X113391433Y-59392366D01*
X113403489Y-59489378D01*
X113403489Y-59612965D01*
X113399672Y-59693947D01*
X113364410Y-59788820D01*
X113326857Y-59805192D01*
X113227634Y-59815687D01*
X113227634Y-59315478D01*
X113268453Y-59317090D01*
G37*
G36*
X118757078Y-59317090D02*
G01*
X118854012Y-59349183D01*
X118880058Y-59392366D01*
X118892114Y-59489378D01*
X118892114Y-59612965D01*
X118888298Y-59693947D01*
X118853035Y-59788820D01*
X118815483Y-59805192D01*
X118716259Y-59815687D01*
X118716259Y-59315478D01*
X118757078Y-59317090D01*
G37*
G36*
X119651670Y-61413485D02*
G01*
X91761169Y-61413485D01*
X91761169Y-61160000D01*
X91983391Y-61160000D01*
X92582763Y-61160000D01*
X92616957Y-60753579D01*
X92824563Y-60753579D01*
X92853384Y-61160000D01*
X93445429Y-61160000D01*
X93201188Y-59523084D01*
X93487927Y-59523084D01*
X93490797Y-59606371D01*
X93504115Y-59708128D01*
X93533845Y-59809337D01*
X93536738Y-59816281D01*
X93585746Y-59909110D01*
X93649616Y-59984703D01*
X93681112Y-60011110D01*
X93765437Y-60072992D01*
X93848373Y-60128947D01*
X93935868Y-60185471D01*
X93962168Y-60202209D01*
X94044331Y-60256104D01*
X94127368Y-60314683D01*
X94206001Y-60381842D01*
X94236593Y-60439138D01*
X94255484Y-60538114D01*
X94259734Y-60637320D01*
X94258379Y-60673945D01*
X94231402Y-60771165D01*
X94145917Y-60816106D01*
X94065317Y-60780446D01*
X94047784Y-60716810D01*
X94042847Y-60618757D01*
X94042847Y-60347159D01*
X93505512Y-60347159D01*
X93505512Y-60492728D01*
X93506753Y-60568248D01*
X93513897Y-60677470D01*
X93529525Y-60783266D01*
X93556315Y-60879609D01*
X93563108Y-60896397D01*
X93616296Y-60982045D01*
X93687889Y-61050089D01*
X93771249Y-61103335D01*
X93868982Y-61145839D01*
X93964939Y-61171943D01*
X94069444Y-61187055D01*
X94167899Y-61191263D01*
X94245379Y-61188635D01*
X94342970Y-61176957D01*
X94444949Y-61152653D01*
X94538660Y-61116524D01*
X94611810Y-61076713D01*
X94691256Y-61014793D01*
X94753593Y-60930900D01*
X94766645Y-60901262D01*
X94793564Y-60800003D01*
X94805800Y-60695602D01*
X94809281Y-60586517D01*
X94808890Y-60547032D01*
X94803022Y-60436888D01*
X94787277Y-60324145D01*
X94757548Y-60216075D01*
X94709141Y-60120990D01*
X94641211Y-60042772D01*
X94566822Y-59976334D01*
X94489482Y-59915879D01*
X94434591Y-59876748D01*
X94983670Y-59876748D01*
X94983670Y-61160000D01*
X95562037Y-61160000D01*
X96388555Y-61160000D01*
X96966922Y-61160000D01*
X96966922Y-59727271D01*
X97177459Y-59727271D01*
X97177459Y-60367187D01*
X97177927Y-60426212D01*
X97181671Y-60535709D01*
X97190771Y-60649043D01*
X97204966Y-60746857D01*
X97230704Y-60849811D01*
X97241754Y-60879243D01*
X97292663Y-60968545D01*
X97365230Y-61044298D01*
X97449057Y-61100893D01*
X97470043Y-61111836D01*
X97560932Y-61148549D01*
X97662934Y-61173965D01*
X97761302Y-61186938D01*
X97868178Y-61191263D01*
X97883398Y-61191157D01*
X97985659Y-61184485D01*
X98093370Y-61164152D01*
X98191311Y-61130263D01*
X98279483Y-61082819D01*
X98299904Y-61069065D01*
X98380370Y-61003772D01*
X98447842Y-60924698D01*
X98495394Y-60829783D01*
X98511995Y-60768503D01*
X98528786Y-60664837D01*
X98538470Y-60553543D01*
X98543050Y-60442855D01*
X98544242Y-60339832D01*
X98544242Y-60253370D01*
X97965875Y-60253370D01*
X97965875Y-60533272D01*
X97965699Y-60566534D01*
X97962042Y-60668365D01*
X97945847Y-60766769D01*
X97861339Y-60816106D01*
X97774877Y-60767745D01*
X97772570Y-60761269D01*
X97758505Y-60664171D01*
X97755826Y-60560628D01*
X97755826Y-59548974D01*
X97755845Y-59538767D01*
X97758971Y-59433849D01*
X97774877Y-59334040D01*
X97777522Y-59328006D01*
X97865736Y-59284214D01*
X97947313Y-59325247D01*
X97950630Y-59334027D01*
X97963682Y-59432327D01*
X97965875Y-59530900D01*
X97965875Y-59909476D01*
X98544242Y-59909476D01*
X98544242Y-59701381D01*
X98544038Y-59663667D01*
X98542525Y-59611500D01*
X99194417Y-59611500D01*
X99194417Y-59690635D01*
X99691695Y-59690635D01*
X99691695Y-59473747D01*
X99696774Y-59367950D01*
X99722470Y-59272491D01*
X99726502Y-59266339D01*
X99816748Y-59221688D01*
X99824498Y-59221871D01*
X99910537Y-59268583D01*
X99929588Y-59310554D01*
X99941800Y-59410732D01*
X99936891Y-59469690D01*
X99912849Y-59570135D01*
X99879189Y-59664230D01*
X99839218Y-59756580D01*
X99824735Y-59787017D01*
X99773468Y-59887402D01*
X99716964Y-59992698D01*
X99665550Y-60086245D01*
X99606391Y-60192286D01*
X99539486Y-60310821D01*
X99490580Y-60396784D01*
X99438232Y-60488301D01*
X99382442Y-60585370D01*
X99323209Y-60687993D01*
X99260534Y-60796167D01*
X99194417Y-60909895D01*
X99194417Y-61160000D01*
X100415631Y-61160000D01*
X100415631Y-60847369D01*
X99806978Y-60847369D01*
X99863900Y-60760567D01*
X99943837Y-60637563D01*
X100017240Y-60523197D01*
X100084109Y-60417470D01*
X100144443Y-60320380D01*
X100198243Y-60231929D01*
X100259811Y-60127431D01*
X100320435Y-60018405D01*
X100369225Y-59919246D01*
X100375115Y-59905591D01*
X100411113Y-59811260D01*
X100441032Y-59706144D01*
X100442983Y-59695031D01*
X100624214Y-59695031D01*
X100624214Y-60462442D01*
X100624342Y-60490955D01*
X100627411Y-60595201D01*
X100636999Y-60703441D01*
X100656943Y-60800963D01*
X100668420Y-60834002D01*
X100712232Y-60923975D01*
X100768318Y-61004173D01*
X100805273Y-61043843D01*
X100887424Y-61104617D01*
X100978855Y-61145833D01*
X100995603Y-61151335D01*
X101097061Y-61175247D01*
X101203021Y-61187669D01*
X101309560Y-61191263D01*
X101383443Y-61188545D01*
X101487399Y-61174280D01*
X101583112Y-61147787D01*
X101627654Y-61129526D01*
X101715560Y-61076529D01*
X101791695Y-61005150D01*
X101817412Y-60973803D01*
X101870658Y-60888955D01*
X101906001Y-60792170D01*
X101916660Y-60735686D01*
X101927345Y-60632532D01*
X101932047Y-60530980D01*
X101933356Y-60428248D01*
X101933356Y-59695031D01*
X101933133Y-59649421D01*
X101932175Y-59611500D01*
X102099930Y-59611500D01*
X102099930Y-59690635D01*
X102597208Y-59690635D01*
X102597208Y-59473747D01*
X102602287Y-59367950D01*
X102627983Y-59272491D01*
X102632015Y-59266339D01*
X102722260Y-59221688D01*
X102730011Y-59221871D01*
X102816050Y-59268583D01*
X102835101Y-59310554D01*
X102847313Y-59410732D01*
X102842404Y-59469690D01*
X102818361Y-59570135D01*
X102784702Y-59664230D01*
X102744731Y-59756580D01*
X102730248Y-59787017D01*
X102678981Y-59887402D01*
X102622477Y-59992698D01*
X102571063Y-60086245D01*
X102511903Y-60192286D01*
X102444999Y-60310821D01*
X102396093Y-60396784D01*
X102343745Y-60488301D01*
X102287955Y-60585370D01*
X102228722Y-60687993D01*
X102166047Y-60796167D01*
X102099930Y-60909895D01*
X102099930Y-61160000D01*
X103321144Y-61160000D01*
X103321144Y-60847369D01*
X102712491Y-60847369D01*
X102769413Y-60760567D01*
X102849350Y-60637563D01*
X102922753Y-60523197D01*
X102989622Y-60417470D01*
X103049956Y-60320380D01*
X103052683Y-60315896D01*
X103521423Y-60315896D01*
X103521423Y-60436552D01*
X103521690Y-60474633D01*
X103525697Y-60581297D01*
X103536450Y-60691369D01*
X103556752Y-60798217D01*
X103589811Y-60894263D01*
X103598789Y-60912419D01*
X103654726Y-60994670D01*
X103729077Y-61062705D01*
X103821842Y-61116524D01*
X103895866Y-61145646D01*
X103998185Y-61172578D01*
X104095882Y-61186591D01*
X104199930Y-61191263D01*
X104223575Y-61191066D01*
X104324314Y-61185317D01*
X104425370Y-61169594D01*
X104523307Y-61140949D01*
X104571055Y-61120552D01*
X104660251Y-61065874D01*
X104729937Y-60996845D01*
X104747690Y-60973016D01*
X104797084Y-60885528D01*
X104826657Y-60791681D01*
X104832038Y-60761998D01*
X104843136Y-60660141D01*
X104848181Y-60554735D01*
X104849616Y-60444368D01*
X104849616Y-60126364D01*
X104847776Y-60038604D01*
X104838119Y-59920875D01*
X104830286Y-59876748D01*
X105540823Y-59876748D01*
X105540823Y-61160000D01*
X106119190Y-61160000D01*
X106945708Y-61160000D01*
X107524075Y-61160000D01*
X108059455Y-61160000D01*
X109062316Y-61160000D01*
X109062316Y-60722316D01*
X108637822Y-60722316D01*
X108637822Y-60222107D01*
X108999302Y-60222107D01*
X108999302Y-59876748D01*
X109714445Y-59876748D01*
X109714445Y-61160000D01*
X110292812Y-61160000D01*
X110292812Y-60253370D01*
X110448150Y-60253370D01*
X110459925Y-60253320D01*
X110559548Y-60248361D01*
X110656825Y-60233335D01*
X110754919Y-60202079D01*
X110776344Y-60191980D01*
X110859185Y-60134518D01*
X110916608Y-60054068D01*
X110919313Y-60047912D01*
X110946661Y-59947652D01*
X110955909Y-59862581D01*
X111103210Y-59862581D01*
X111103210Y-60237739D01*
X111103273Y-60279201D01*
X111104217Y-60394084D01*
X111106295Y-60494714D01*
X111110829Y-60606715D01*
X111119330Y-60711081D01*
X111132000Y-60777485D01*
X111167377Y-60872396D01*
X111222400Y-60961674D01*
X111282135Y-61027839D01*
X111360295Y-61087728D01*
X111451500Y-61134110D01*
X111478475Y-61144324D01*
X111573043Y-61171114D01*
X111674766Y-61186742D01*
X111772435Y-61191263D01*
X111807285Y-61190730D01*
X111906891Y-61182745D01*
X112008862Y-61162633D01*
X112101674Y-61130690D01*
X112176722Y-61092171D01*
X112255853Y-61033756D01*
X112326378Y-60955812D01*
X112363686Y-60897438D01*
X112403849Y-60804382D01*
X112425052Y-60704731D01*
X112430530Y-60646490D01*
X112436071Y-60547786D01*
X112439267Y-60441684D01*
X112440778Y-60336080D01*
X112441172Y-60237739D01*
X112441172Y-59862581D01*
X112441107Y-59821119D01*
X112441061Y-59815687D01*
X112649267Y-59815687D01*
X112649267Y-61160000D01*
X113227634Y-61160000D01*
X113227634Y-60159581D01*
X113281734Y-60162237D01*
X113375157Y-60202079D01*
X113386196Y-60227170D01*
X113400722Y-60324700D01*
X113403489Y-60422875D01*
X113403489Y-61160000D01*
X113940823Y-61160000D01*
X113940823Y-60575282D01*
X113940809Y-60558695D01*
X113939907Y-60454016D01*
X113936687Y-60348829D01*
X113926168Y-60247020D01*
X113909224Y-60200743D01*
X113852896Y-60116594D01*
X113810761Y-60078757D01*
X113718520Y-60032153D01*
X113622330Y-60002777D01*
X113699267Y-59991480D01*
X113795987Y-59960032D01*
X113876343Y-59895799D01*
X113901467Y-59848555D01*
X113926655Y-59752842D01*
X113937737Y-59652367D01*
X113940823Y-59547020D01*
X113940734Y-59529402D01*
X113936452Y-59430049D01*
X113929771Y-59378004D01*
X114057083Y-59378004D01*
X114399023Y-59378004D01*
X114399023Y-61160000D01*
X114977390Y-61160000D01*
X115445359Y-61160000D01*
X116448220Y-61160000D01*
X116448220Y-60722316D01*
X116023726Y-60722316D01*
X116023726Y-60245066D01*
X116599651Y-60245066D01*
X116599864Y-60334245D01*
X116600733Y-60434470D01*
X116602656Y-60538243D01*
X116606115Y-60636564D01*
X116613328Y-60734528D01*
X116619117Y-60770585D01*
X116651441Y-60868626D01*
X116702721Y-60955812D01*
X116763838Y-61023063D01*
X116843079Y-61081079D01*
X116930844Y-61125806D01*
X116969678Y-61141147D01*
X117073176Y-61170552D01*
X117174156Y-61186085D01*
X117282554Y-61191263D01*
X117293773Y-61191209D01*
X117400820Y-61184740D01*
X117498517Y-61167490D01*
X117595184Y-61136064D01*
X117658352Y-61105259D01*
X117740852Y-61047030D01*
X117808653Y-60974375D01*
X117827917Y-60947714D01*
X117876611Y-60862227D01*
X117906350Y-60765792D01*
X117912821Y-60714210D01*
X117919309Y-60615788D01*
X117922164Y-60516099D01*
X117922958Y-60413593D01*
X117922958Y-59815687D01*
X118137892Y-59815687D01*
X118137892Y-61160000D01*
X118716259Y-61160000D01*
X118716259Y-60159581D01*
X118770359Y-60162237D01*
X118863782Y-60202079D01*
X118874821Y-60227170D01*
X118889347Y-60324700D01*
X118892114Y-60422875D01*
X118892114Y-61160000D01*
X119429448Y-61160000D01*
X119429448Y-60575282D01*
X119429434Y-60558695D01*
X119428532Y-60454016D01*
X119425312Y-60348829D01*
X119414794Y-60247020D01*
X119397849Y-60200743D01*
X119341521Y-60116594D01*
X119299386Y-60078757D01*
X119207145Y-60032153D01*
X119110956Y-60002777D01*
X119187892Y-59991480D01*
X119284612Y-59960032D01*
X119364968Y-59895799D01*
X119390093Y-59848555D01*
X119415280Y-59752842D01*
X119426363Y-59652367D01*
X119429448Y-59547020D01*
X119429359Y-59529402D01*
X119425077Y-59430049D01*
X119411964Y-59327898D01*
X119386273Y-59229300D01*
X119338101Y-59133272D01*
X119275762Y-59061698D01*
X119195068Y-59005225D01*
X119101674Y-58972072D01*
X119061275Y-58964630D01*
X118955701Y-58952723D01*
X118854842Y-58946398D01*
X118756599Y-58942832D01*
X118645452Y-58940817D01*
X118547243Y-58940321D01*
X118137892Y-58940321D01*
X118137892Y-59815687D01*
X117922958Y-59815687D01*
X117922958Y-58940321D01*
X117344591Y-58940321D01*
X117344591Y-60563070D01*
X117342324Y-60669636D01*
X117328471Y-60772142D01*
X117257641Y-60816106D01*
X117193649Y-60776050D01*
X117180597Y-60691803D01*
X117178018Y-60591891D01*
X117178018Y-58940321D01*
X116599651Y-58940321D01*
X116599651Y-60245066D01*
X116023726Y-60245066D01*
X116023726Y-60222107D01*
X116385205Y-60222107D01*
X116385205Y-59784424D01*
X116023726Y-59784424D01*
X116023726Y-59378004D01*
X116410118Y-59378004D01*
X116410118Y-58940321D01*
X115445359Y-58940321D01*
X115445359Y-61160000D01*
X114977390Y-61160000D01*
X114977390Y-59378004D01*
X115320795Y-59378004D01*
X115320795Y-58940321D01*
X114057083Y-58940321D01*
X114057083Y-59378004D01*
X113929771Y-59378004D01*
X113923339Y-59327898D01*
X113897647Y-59229300D01*
X113849476Y-59133272D01*
X113787137Y-59061698D01*
X113706442Y-59005225D01*
X113613049Y-58972072D01*
X113572650Y-58964630D01*
X113467076Y-58952723D01*
X113366217Y-58946398D01*
X113267973Y-58942832D01*
X113156826Y-58940817D01*
X113058618Y-58940321D01*
X112649267Y-58940321D01*
X112649267Y-59815687D01*
X112441061Y-59815687D01*
X112440134Y-59706236D01*
X112437993Y-59605606D01*
X112433322Y-59493605D01*
X112424563Y-59389239D01*
X112412076Y-59322866D01*
X112376745Y-59228115D01*
X112321493Y-59139134D01*
X112262016Y-59072759D01*
X112184029Y-59012860D01*
X112092882Y-58966699D01*
X112074972Y-58959719D01*
X111981186Y-58931574D01*
X111880341Y-58914686D01*
X111772435Y-58909057D01*
X111737493Y-58909594D01*
X111637613Y-58917644D01*
X111535336Y-58937918D01*
X111442219Y-58970118D01*
X111367407Y-59008402D01*
X111288460Y-59066632D01*
X111218004Y-59144508D01*
X111180665Y-59202882D01*
X111140342Y-59295938D01*
X111118841Y-59395589D01*
X111113529Y-59453830D01*
X111109865Y-59521130D01*
X111108155Y-59552534D01*
X111105057Y-59658636D01*
X111103591Y-59764240D01*
X111103210Y-59862581D01*
X110955909Y-59862581D01*
X110957824Y-59844965D01*
X110960572Y-59746810D01*
X110960572Y-59555324D01*
X110958756Y-59447909D01*
X110952478Y-59348590D01*
X110937613Y-59250997D01*
X110907424Y-59164930D01*
X110851151Y-59082958D01*
X110838682Y-59070240D01*
X110753181Y-59012126D01*
X110660153Y-58976957D01*
X110599375Y-58962682D01*
X110494465Y-58948371D01*
X110395219Y-58942074D01*
X110297208Y-58940321D01*
X109714445Y-58940321D01*
X109714445Y-59876748D01*
X108999302Y-59876748D01*
X108999302Y-59784424D01*
X108637822Y-59784424D01*
X108637822Y-59378004D01*
X109024214Y-59378004D01*
X109024214Y-58940321D01*
X108059455Y-58940321D01*
X108059455Y-61160000D01*
X107524075Y-61160000D01*
X107524075Y-60222107D01*
X107881646Y-60222107D01*
X107881646Y-59784424D01*
X107524075Y-59784424D01*
X107524075Y-59378004D01*
X107925610Y-59378004D01*
X107925610Y-58940321D01*
X106945708Y-58940321D01*
X106945708Y-61160000D01*
X106119190Y-61160000D01*
X106119190Y-60253370D01*
X106274528Y-60253370D01*
X106286304Y-60253320D01*
X106385926Y-60248361D01*
X106483203Y-60233335D01*
X106581297Y-60202079D01*
X106602723Y-60191980D01*
X106685563Y-60134518D01*
X106742986Y-60054068D01*
X106745691Y-60047912D01*
X106773040Y-59947652D01*
X106784202Y-59844965D01*
X106786950Y-59746810D01*
X106786950Y-59555324D01*
X106785134Y-59447909D01*
X106778856Y-59348590D01*
X106763991Y-59250997D01*
X106733802Y-59164930D01*
X106677529Y-59082958D01*
X106665060Y-59070240D01*
X106579560Y-59012126D01*
X106486531Y-58976957D01*
X106425753Y-58962682D01*
X106320843Y-58948371D01*
X106221597Y-58942074D01*
X106123586Y-58940321D01*
X105540823Y-58940321D01*
X105540823Y-59876748D01*
X104830286Y-59876748D01*
X104820184Y-59819839D01*
X104788799Y-59723061D01*
X104731891Y-59632016D01*
X104683994Y-59588190D01*
X104597402Y-59539452D01*
X104493113Y-59511116D01*
X104385554Y-59503056D01*
X104323723Y-59506777D01*
X104221623Y-59532228D01*
X104131348Y-59581790D01*
X104052896Y-59655464D01*
X104052896Y-59252951D01*
X104741172Y-59252951D01*
X104741172Y-58940321D01*
X103550244Y-58940321D01*
X103526796Y-60034528D01*
X104076343Y-60034528D01*
X104076600Y-59996810D01*
X104083670Y-59897264D01*
X104117376Y-59841577D01*
X104181856Y-59815687D01*
X104268318Y-59864047D01*
X104289647Y-59944796D01*
X104294696Y-60044787D01*
X104294696Y-60512756D01*
X104293804Y-60584469D01*
X104292318Y-60687225D01*
X104289811Y-60791193D01*
X104262456Y-60851277D01*
X104196022Y-60878632D01*
X104143338Y-60867376D01*
X104091486Y-60783377D01*
X104088780Y-60764362D01*
X104080617Y-60665203D01*
X104077289Y-60566581D01*
X104076343Y-60461465D01*
X104076343Y-60315896D01*
X103521423Y-60315896D01*
X103052683Y-60315896D01*
X103103756Y-60231929D01*
X103165324Y-60127431D01*
X103225948Y-60018405D01*
X103274738Y-59919246D01*
X103280628Y-59905591D01*
X103316625Y-59811260D01*
X103346545Y-59706144D01*
X103364497Y-59603898D01*
X103370481Y-59504521D01*
X103367825Y-59441324D01*
X103350394Y-59337486D01*
X103316694Y-59242250D01*
X103266726Y-59155617D01*
X103200488Y-59077585D01*
X103189737Y-59067217D01*
X103105661Y-59003854D01*
X103006158Y-58956620D01*
X102908590Y-58928971D01*
X102799688Y-58913172D01*
X102700279Y-58909057D01*
X102608994Y-58913192D01*
X102507708Y-58929475D01*
X102410118Y-58961325D01*
X102366452Y-58982678D01*
X102282683Y-59040959D01*
X102213747Y-59115687D01*
X102200131Y-59134859D01*
X102149535Y-59225126D01*
X102118981Y-59323293D01*
X102108134Y-59404953D01*
X102101790Y-59504853D01*
X102099930Y-59611500D01*
X101932175Y-59611500D01*
X101930355Y-59539466D01*
X101923434Y-59436057D01*
X101907955Y-59331598D01*
X101900879Y-59303387D01*
X101864695Y-59210423D01*
X101810746Y-59126434D01*
X101764872Y-59077292D01*
X101685795Y-59018742D01*
X101595324Y-58972072D01*
X101567965Y-58960811D01*
X101471871Y-58931273D01*
X101368240Y-58914042D01*
X101268527Y-58909057D01*
X101186965Y-58912252D01*
X101085482Y-58926448D01*
X100981240Y-58955995D01*
X100887508Y-58999916D01*
X100868253Y-59011508D01*
X100784171Y-59076509D01*
X100720410Y-59153245D01*
X100676971Y-59241716D01*
X100667543Y-59271266D01*
X100644822Y-59375989D01*
X100632921Y-59474109D01*
X100631755Y-59493286D01*
X100626069Y-59586816D01*
X100624214Y-59695031D01*
X100442983Y-59695031D01*
X100458984Y-59603898D01*
X100464968Y-59504521D01*
X100462312Y-59441324D01*
X100444881Y-59337486D01*
X100411181Y-59242250D01*
X100361213Y-59155617D01*
X100294975Y-59077585D01*
X100284224Y-59067217D01*
X100200148Y-59003854D01*
X100100645Y-58956620D01*
X100003077Y-58928971D01*
X99894175Y-58913172D01*
X99794766Y-58909057D01*
X99703481Y-58913192D01*
X99602196Y-58929475D01*
X99504605Y-58961325D01*
X99460939Y-58982678D01*
X99377170Y-59040959D01*
X99308234Y-59115687D01*
X99294618Y-59134859D01*
X99244022Y-59225126D01*
X99213468Y-59323293D01*
X99202621Y-59404953D01*
X99196277Y-59504853D01*
X99194417Y-59611500D01*
X98542525Y-59611500D01*
X98540976Y-59558102D01*
X98532758Y-59449313D01*
X98517241Y-59343929D01*
X98491974Y-59249532D01*
X98484996Y-59231525D01*
X98430722Y-59139239D01*
X98358041Y-59065260D01*
X98273621Y-59006755D01*
X98252511Y-58994924D01*
X98161088Y-58955235D01*
X98058491Y-58927757D01*
X97959552Y-58913732D01*
X97852058Y-58909057D01*
X97817086Y-58909611D01*
X97716755Y-58917919D01*
X97613343Y-58938842D01*
X97518422Y-58972072D01*
X97442035Y-59011189D01*
X97362107Y-59068968D01*
X97291765Y-59144508D01*
X97263458Y-59185867D01*
X97217796Y-59277717D01*
X97193579Y-59372630D01*
X97187298Y-59430005D01*
X97181001Y-59531595D01*
X97178231Y-59629491D01*
X97177459Y-59727271D01*
X96966922Y-59727271D01*
X96966922Y-58940321D01*
X96388555Y-58940321D01*
X96388555Y-61160000D01*
X95562037Y-61160000D01*
X95562037Y-60253370D01*
X95717376Y-60253370D01*
X95729151Y-60253320D01*
X95828773Y-60248361D01*
X95926051Y-60233335D01*
X96024145Y-60202079D01*
X96045570Y-60191980D01*
X96128410Y-60134518D01*
X96185833Y-60054068D01*
X96188538Y-60047912D01*
X96215887Y-59947652D01*
X96227049Y-59844965D01*
X96229797Y-59746810D01*
X96229797Y-59555324D01*
X96227981Y-59447909D01*
X96221703Y-59348590D01*
X96206838Y-59250997D01*
X96176649Y-59164930D01*
X96120376Y-59082958D01*
X96107907Y-59070240D01*
X96022407Y-59012126D01*
X95929378Y-58976957D01*
X95868601Y-58962682D01*
X95763691Y-58948371D01*
X95664444Y-58942074D01*
X95566434Y-58940321D01*
X94983670Y-58940321D01*
X94983670Y-59876748D01*
X94434591Y-59876748D01*
X94398189Y-59850797D01*
X94315109Y-59795399D01*
X94223098Y-59737041D01*
X94214775Y-59731880D01*
X94131049Y-59674567D01*
X94059455Y-59601242D01*
X94038752Y-59545356D01*
X94029169Y-59444926D01*
X94029825Y-59420600D01*
X94056036Y-59324270D01*
X94134682Y-59284214D01*
X94203558Y-59315966D01*
X94218285Y-59364087D01*
X94224075Y-59463000D01*
X94224075Y-59628108D01*
X94761409Y-59628108D01*
X94761409Y-59540181D01*
X94760145Y-59461212D01*
X94754128Y-59363319D01*
X94739110Y-59259162D01*
X94709630Y-59165024D01*
X94667078Y-59099699D01*
X94588310Y-59031005D01*
X94499581Y-58981842D01*
X94426945Y-58953481D01*
X94324214Y-58927254D01*
X94224075Y-58913606D01*
X94115631Y-58909057D01*
X94065042Y-58910080D01*
X93958138Y-58919860D01*
X93860817Y-58939996D01*
X93763921Y-58974515D01*
X93696144Y-59010418D01*
X93613254Y-59076181D01*
X93552896Y-59156231D01*
X93527581Y-59213356D01*
X93502202Y-59317426D01*
X93491036Y-59419711D01*
X93487927Y-59523084D01*
X93201188Y-59523084D01*
X93114235Y-58940321D01*
X92277459Y-58940321D01*
X92086936Y-60378422D01*
X91983391Y-61160000D01*
X91761169Y-61160000D01*
X91761169Y-58686835D01*
X119651670Y-58686835D01*
X119651670Y-61413485D01*
G37*
D10*
X90053884Y-77792419D02*
X90053884Y-76792419D01*
X90053884Y-76792419D02*
X90434836Y-76792419D01*
X90434836Y-76792419D02*
X90530074Y-76840038D01*
X90530074Y-76840038D02*
X90577693Y-76887657D01*
X90577693Y-76887657D02*
X90625312Y-76982895D01*
X90625312Y-76982895D02*
X90625312Y-77125752D01*
X90625312Y-77125752D02*
X90577693Y-77220990D01*
X90577693Y-77220990D02*
X90530074Y-77268609D01*
X90530074Y-77268609D02*
X90434836Y-77316228D01*
X90434836Y-77316228D02*
X90053884Y-77316228D01*
X90958646Y-76792419D02*
X91196741Y-77792419D01*
X91196741Y-77792419D02*
X91387217Y-77078133D01*
X91387217Y-77078133D02*
X91577693Y-77792419D01*
X91577693Y-77792419D02*
X91815789Y-76792419D01*
X92196741Y-77792419D02*
X92196741Y-76792419D01*
X92196741Y-76792419D02*
X92530074Y-77506704D01*
X92530074Y-77506704D02*
X92863407Y-76792419D01*
X92863407Y-76792419D02*
X92863407Y-77792419D01*
X90256265Y-80244800D02*
X90399122Y-80292419D01*
X90399122Y-80292419D02*
X90637217Y-80292419D01*
X90637217Y-80292419D02*
X90732455Y-80244800D01*
X90732455Y-80244800D02*
X90780074Y-80197180D01*
X90780074Y-80197180D02*
X90827693Y-80101942D01*
X90827693Y-80101942D02*
X90827693Y-80006704D01*
X90827693Y-80006704D02*
X90780074Y-79911466D01*
X90780074Y-79911466D02*
X90732455Y-79863847D01*
X90732455Y-79863847D02*
X90637217Y-79816228D01*
X90637217Y-79816228D02*
X90446741Y-79768609D01*
X90446741Y-79768609D02*
X90351503Y-79720990D01*
X90351503Y-79720990D02*
X90303884Y-79673371D01*
X90303884Y-79673371D02*
X90256265Y-79578133D01*
X90256265Y-79578133D02*
X90256265Y-79482895D01*
X90256265Y-79482895D02*
X90303884Y-79387657D01*
X90303884Y-79387657D02*
X90351503Y-79340038D01*
X90351503Y-79340038D02*
X90446741Y-79292419D01*
X90446741Y-79292419D02*
X90684836Y-79292419D01*
X90684836Y-79292419D02*
X90827693Y-79340038D01*
X91161027Y-79292419D02*
X91399122Y-80292419D01*
X91399122Y-80292419D02*
X91589598Y-79578133D01*
X91589598Y-79578133D02*
X91780074Y-80292419D01*
X91780074Y-80292419D02*
X92018170Y-79292419D01*
X92922931Y-80292419D02*
X92351503Y-80292419D01*
X92637217Y-80292419D02*
X92637217Y-79292419D01*
X92637217Y-79292419D02*
X92541979Y-79435276D01*
X92541979Y-79435276D02*
X92446741Y-79530514D01*
X92446741Y-79530514D02*
X92351503Y-79578133D01*
X90577693Y-72340038D02*
X90482455Y-72292419D01*
X90482455Y-72292419D02*
X90339598Y-72292419D01*
X90339598Y-72292419D02*
X90196741Y-72340038D01*
X90196741Y-72340038D02*
X90101503Y-72435276D01*
X90101503Y-72435276D02*
X90053884Y-72530514D01*
X90053884Y-72530514D02*
X90006265Y-72720990D01*
X90006265Y-72720990D02*
X90006265Y-72863847D01*
X90006265Y-72863847D02*
X90053884Y-73054323D01*
X90053884Y-73054323D02*
X90101503Y-73149561D01*
X90101503Y-73149561D02*
X90196741Y-73244800D01*
X90196741Y-73244800D02*
X90339598Y-73292419D01*
X90339598Y-73292419D02*
X90434836Y-73292419D01*
X90434836Y-73292419D02*
X90577693Y-73244800D01*
X90577693Y-73244800D02*
X90625312Y-73197180D01*
X90625312Y-73197180D02*
X90625312Y-72863847D01*
X90625312Y-72863847D02*
X90434836Y-72863847D01*
X91053884Y-73292419D02*
X91053884Y-72292419D01*
X91053884Y-72292419D02*
X91625312Y-73292419D01*
X91625312Y-73292419D02*
X91625312Y-72292419D01*
X92101503Y-73292419D02*
X92101503Y-72292419D01*
X92101503Y-72292419D02*
X92339598Y-72292419D01*
X92339598Y-72292419D02*
X92482455Y-72340038D01*
X92482455Y-72340038D02*
X92577693Y-72435276D01*
X92577693Y-72435276D02*
X92625312Y-72530514D01*
X92625312Y-72530514D02*
X92672931Y-72720990D01*
X92672931Y-72720990D02*
X92672931Y-72863847D01*
X92672931Y-72863847D02*
X92625312Y-73054323D01*
X92625312Y-73054323D02*
X92577693Y-73149561D01*
X92577693Y-73149561D02*
X92482455Y-73244800D01*
X92482455Y-73244800D02*
X92339598Y-73292419D01*
X92339598Y-73292419D02*
X92101503Y-73292419D01*
X90137217Y-70598609D02*
X90280074Y-70646228D01*
X90280074Y-70646228D02*
X90327693Y-70693847D01*
X90327693Y-70693847D02*
X90375312Y-70789085D01*
X90375312Y-70789085D02*
X90375312Y-70931942D01*
X90375312Y-70931942D02*
X90327693Y-71027180D01*
X90327693Y-71027180D02*
X90280074Y-71074800D01*
X90280074Y-71074800D02*
X90184836Y-71122419D01*
X90184836Y-71122419D02*
X89803884Y-71122419D01*
X89803884Y-71122419D02*
X89803884Y-70122419D01*
X89803884Y-70122419D02*
X90137217Y-70122419D01*
X90137217Y-70122419D02*
X90232455Y-70170038D01*
X90232455Y-70170038D02*
X90280074Y-70217657D01*
X90280074Y-70217657D02*
X90327693Y-70312895D01*
X90327693Y-70312895D02*
X90327693Y-70408133D01*
X90327693Y-70408133D02*
X90280074Y-70503371D01*
X90280074Y-70503371D02*
X90232455Y-70550990D01*
X90232455Y-70550990D02*
X90137217Y-70598609D01*
X90137217Y-70598609D02*
X89803884Y-70598609D01*
X90756265Y-70836704D02*
X91232455Y-70836704D01*
X90661027Y-71122419D02*
X90994360Y-70122419D01*
X90994360Y-70122419D02*
X91327693Y-71122419D01*
X91518170Y-70122419D02*
X92089598Y-70122419D01*
X91803884Y-71122419D02*
X91803884Y-70122419D01*
X92422932Y-70741466D02*
X93184837Y-70741466D01*
X92803884Y-71122419D02*
X92803884Y-70360514D01*
D11*
G36*
X123598360Y-59326713D02*
G01*
X123613052Y-59422349D01*
X123615457Y-59521130D01*
X123615457Y-60521549D01*
X123615311Y-60556395D01*
X123612278Y-60662933D01*
X123598848Y-60765303D01*
X123523621Y-60816106D01*
X123449860Y-60771653D01*
X123443021Y-60740360D01*
X123435755Y-60641959D01*
X123434228Y-60537669D01*
X123434228Y-59521130D01*
X123437057Y-59421141D01*
X123458164Y-59318408D01*
X123527529Y-59284214D01*
X123598360Y-59326713D01*
G37*
G36*
X125008421Y-59315966D02*
G01*
X125109246Y-59335505D01*
X125153210Y-59398520D01*
X125161605Y-59494385D01*
X125162979Y-59592937D01*
X125162979Y-60460488D01*
X125162276Y-60526169D01*
X125156647Y-60632128D01*
X125134159Y-60734528D01*
X125081280Y-60772264D01*
X124980286Y-60784842D01*
X124980286Y-59315478D01*
X125008421Y-59315966D01*
G37*
G36*
X130829230Y-59317615D02*
G01*
X130926133Y-59349672D01*
X130951729Y-59398766D01*
X130961793Y-59496706D01*
X130961793Y-59677934D01*
X130959320Y-59740295D01*
X130930530Y-59839623D01*
X130917272Y-59852737D01*
X130820132Y-59878213D01*
X130777634Y-59876748D01*
X130777634Y-59315478D01*
X130829230Y-59317615D01*
G37*
G36*
X136699995Y-61413485D02*
G01*
X120643060Y-61413485D01*
X120643060Y-61160000D01*
X120865282Y-61160000D01*
X121370865Y-61160000D01*
X121370865Y-59692588D01*
X121583845Y-61160000D01*
X121942393Y-61160000D01*
X122144626Y-59661325D01*
X122144626Y-61160000D01*
X122650209Y-61160000D01*
X122650209Y-59862581D01*
X122855861Y-59862581D01*
X122855861Y-60237739D01*
X122855924Y-60279201D01*
X122856869Y-60394084D01*
X122858947Y-60494714D01*
X122863481Y-60606715D01*
X122871981Y-60711081D01*
X122884651Y-60777485D01*
X122920029Y-60872396D01*
X122975052Y-60961674D01*
X123034786Y-61027839D01*
X123112946Y-61087728D01*
X123204152Y-61134110D01*
X123231127Y-61144324D01*
X123325694Y-61171114D01*
X123427418Y-61186742D01*
X123525087Y-61191263D01*
X123559937Y-61190730D01*
X123659542Y-61182745D01*
X123761514Y-61162633D01*
X123854326Y-61130690D01*
X123929374Y-61092171D01*
X124008504Y-61033756D01*
X124079030Y-60955812D01*
X124116338Y-60897438D01*
X124156500Y-60804382D01*
X124160658Y-60784842D01*
X124401919Y-60784842D01*
X124401919Y-61160000D01*
X125131228Y-61160000D01*
X125239737Y-61158222D01*
X125340907Y-61152078D01*
X125441905Y-61137529D01*
X125531235Y-61108599D01*
X125614829Y-61057906D01*
X125671436Y-60994773D01*
X125713014Y-60900125D01*
X125727955Y-60817865D01*
X125736670Y-60710712D01*
X125740350Y-60605679D01*
X125741346Y-60500544D01*
X125741346Y-60245066D01*
X125941137Y-60245066D01*
X125941351Y-60334245D01*
X125942219Y-60434470D01*
X125944142Y-60538243D01*
X125947602Y-60636564D01*
X125954815Y-60734528D01*
X125960603Y-60770585D01*
X125992927Y-60868626D01*
X126044207Y-60955812D01*
X126105324Y-61023063D01*
X126184565Y-61081079D01*
X126272330Y-61125806D01*
X126311165Y-61141147D01*
X126414663Y-61170552D01*
X126515642Y-61186085D01*
X126624040Y-61191263D01*
X126635259Y-61191209D01*
X126742306Y-61184740D01*
X126840003Y-61167490D01*
X126863043Y-61160000D01*
X127479378Y-61160000D01*
X128409455Y-61160000D01*
X128544277Y-61160000D01*
X129547138Y-61160000D01*
X129547138Y-60722316D01*
X129122644Y-60722316D01*
X129122644Y-60222107D01*
X129484124Y-60222107D01*
X129484124Y-59876748D01*
X130199267Y-59876748D01*
X130199267Y-61160000D01*
X130777634Y-61160000D01*
X131604152Y-61160000D01*
X132182519Y-61160000D01*
X132409176Y-61160000D01*
X132892777Y-61160000D01*
X132892777Y-60150788D01*
X133193684Y-61160000D01*
X133700732Y-61160000D01*
X133700732Y-59727271D01*
X133909316Y-59727271D01*
X133909316Y-60367187D01*
X133909784Y-60426212D01*
X133913527Y-60535709D01*
X133922627Y-60649043D01*
X133936822Y-60746857D01*
X133962561Y-60849811D01*
X133973610Y-60879243D01*
X134024520Y-60968545D01*
X134097086Y-61044298D01*
X134180914Y-61100893D01*
X134201899Y-61111836D01*
X134292788Y-61148549D01*
X134394790Y-61173965D01*
X134493158Y-61186938D01*
X134600034Y-61191263D01*
X134615254Y-61191157D01*
X134717515Y-61184485D01*
X134825226Y-61164152D01*
X134837226Y-61160000D01*
X135474912Y-61160000D01*
X136477773Y-61160000D01*
X136477773Y-60722316D01*
X136053279Y-60722316D01*
X136053279Y-60222107D01*
X136414759Y-60222107D01*
X136414759Y-59784424D01*
X136053279Y-59784424D01*
X136053279Y-59378004D01*
X136439672Y-59378004D01*
X136439672Y-58940321D01*
X135474912Y-58940321D01*
X135474912Y-61160000D01*
X134837226Y-61160000D01*
X134923168Y-61130263D01*
X135011339Y-61082819D01*
X135031760Y-61069065D01*
X135112226Y-61003772D01*
X135179698Y-60924698D01*
X135227250Y-60829783D01*
X135243851Y-60768503D01*
X135260643Y-60664837D01*
X135270326Y-60553543D01*
X135274906Y-60442855D01*
X135276099Y-60339832D01*
X135276099Y-60253370D01*
X134697732Y-60253370D01*
X134697732Y-60533272D01*
X134697556Y-60566534D01*
X134693898Y-60668365D01*
X134677704Y-60766769D01*
X134593196Y-60816106D01*
X134506734Y-60767745D01*
X134504427Y-60761269D01*
X134490362Y-60664171D01*
X134487683Y-60560628D01*
X134487683Y-59548974D01*
X134487701Y-59538767D01*
X134490827Y-59433849D01*
X134506734Y-59334040D01*
X134509378Y-59328006D01*
X134597592Y-59284214D01*
X134679169Y-59325247D01*
X134682486Y-59334027D01*
X134695538Y-59432327D01*
X134697732Y-59530900D01*
X134697732Y-59909476D01*
X135276099Y-59909476D01*
X135276099Y-59701381D01*
X135275894Y-59663667D01*
X135272832Y-59558102D01*
X135264614Y-59449313D01*
X135249097Y-59343929D01*
X135223831Y-59249532D01*
X135216853Y-59231525D01*
X135162579Y-59139239D01*
X135089897Y-59065260D01*
X135005478Y-59006755D01*
X134984368Y-58994924D01*
X134892945Y-58955235D01*
X134790347Y-58927757D01*
X134691408Y-58913732D01*
X134583914Y-58909057D01*
X134548942Y-58909611D01*
X134448611Y-58917919D01*
X134345199Y-58938842D01*
X134250279Y-58972072D01*
X134173892Y-59011189D01*
X134093963Y-59068968D01*
X134023621Y-59144508D01*
X133995314Y-59185867D01*
X133949652Y-59277717D01*
X133925436Y-59372630D01*
X133919155Y-59430005D01*
X133912858Y-59531595D01*
X133910087Y-59629491D01*
X133909316Y-59727271D01*
X133700732Y-59727271D01*
X133700732Y-58940321D01*
X133217131Y-58940321D01*
X133217131Y-59939762D01*
X132892777Y-58940321D01*
X132409176Y-58940321D01*
X132409176Y-61160000D01*
X132182519Y-61160000D01*
X132182519Y-58940321D01*
X131604152Y-58940321D01*
X131604152Y-61160000D01*
X130777634Y-61160000D01*
X130777634Y-60253370D01*
X130932972Y-60253370D01*
X130944747Y-60253320D01*
X131044370Y-60248361D01*
X131141647Y-60233335D01*
X131239741Y-60202079D01*
X131261166Y-60191980D01*
X131344007Y-60134518D01*
X131401430Y-60054068D01*
X131404135Y-60047912D01*
X131431483Y-59947652D01*
X131442646Y-59844965D01*
X131445394Y-59746810D01*
X131445394Y-59555324D01*
X131443578Y-59447909D01*
X131437300Y-59348590D01*
X131422435Y-59250997D01*
X131392246Y-59164930D01*
X131335973Y-59082958D01*
X131323504Y-59070240D01*
X131238003Y-59012126D01*
X131144975Y-58976957D01*
X131084197Y-58962682D01*
X130979287Y-58948371D01*
X130880041Y-58942074D01*
X130782030Y-58940321D01*
X130199267Y-58940321D01*
X130199267Y-59876748D01*
X129484124Y-59876748D01*
X129484124Y-59784424D01*
X129122644Y-59784424D01*
X129122644Y-59378004D01*
X129509036Y-59378004D01*
X129509036Y-58940321D01*
X128544277Y-58940321D01*
X128544277Y-61160000D01*
X128409455Y-61160000D01*
X128409455Y-60722316D01*
X128057745Y-60722316D01*
X128057745Y-58940321D01*
X127479378Y-58940321D01*
X127479378Y-61160000D01*
X126863043Y-61160000D01*
X126936671Y-61136064D01*
X126999838Y-61105259D01*
X127082339Y-61047030D01*
X127150139Y-60974375D01*
X127169404Y-60947714D01*
X127218098Y-60862227D01*
X127247836Y-60765792D01*
X127254308Y-60714210D01*
X127260795Y-60615788D01*
X127263650Y-60516099D01*
X127264445Y-60413593D01*
X127264445Y-58940321D01*
X126686078Y-58940321D01*
X126686078Y-60563070D01*
X126683811Y-60669636D01*
X126669958Y-60772142D01*
X126599127Y-60816106D01*
X126535136Y-60776050D01*
X126522084Y-60691803D01*
X126519504Y-60591891D01*
X126519504Y-58940321D01*
X125941137Y-58940321D01*
X125941137Y-60245066D01*
X125741346Y-60245066D01*
X125741346Y-59723363D01*
X125740659Y-59612343D01*
X125738122Y-59501313D01*
X125732931Y-59398807D01*
X125721807Y-59300334D01*
X125717724Y-59280273D01*
X125681982Y-59185376D01*
X125625575Y-59104940D01*
X125582802Y-59064091D01*
X125494413Y-59010994D01*
X125401360Y-58978911D01*
X125360236Y-58969866D01*
X125252525Y-58955395D01*
X125149462Y-58947707D01*
X125048988Y-58943373D01*
X124935253Y-58940923D01*
X124834717Y-58940321D01*
X124401919Y-58940321D01*
X124401919Y-60784842D01*
X124160658Y-60784842D01*
X124177704Y-60704731D01*
X124183182Y-60646490D01*
X124188723Y-60547786D01*
X124191919Y-60441684D01*
X124193430Y-60336080D01*
X124193824Y-60237739D01*
X124193824Y-59862581D01*
X124193759Y-59821119D01*
X124192786Y-59706236D01*
X124190645Y-59605606D01*
X124185974Y-59493605D01*
X124177215Y-59389239D01*
X124164728Y-59322866D01*
X124129397Y-59228115D01*
X124074145Y-59139134D01*
X124014668Y-59072759D01*
X123936681Y-59012860D01*
X123845533Y-58966699D01*
X123827623Y-58959719D01*
X123733838Y-58931574D01*
X123632992Y-58914686D01*
X123525087Y-58909057D01*
X123490145Y-58909594D01*
X123390265Y-58917644D01*
X123287988Y-58937918D01*
X123194870Y-58970118D01*
X123120059Y-59008402D01*
X123041112Y-59066632D01*
X122970655Y-59144508D01*
X122933317Y-59202882D01*
X122892994Y-59295938D01*
X122871493Y-59395589D01*
X122866181Y-59453830D01*
X122862517Y-59521130D01*
X122860807Y-59552534D01*
X122857708Y-59658636D01*
X122856243Y-59764240D01*
X122855861Y-59862581D01*
X122650209Y-59862581D01*
X122650209Y-58940321D01*
X121895987Y-58940321D01*
X121764096Y-59976887D01*
X121684473Y-59408778D01*
X121677546Y-59358428D01*
X121661651Y-59246118D01*
X121646130Y-59141055D01*
X121630983Y-59043238D01*
X121614131Y-58940321D01*
X120865282Y-58940321D01*
X120865282Y-61160000D01*
X120643060Y-61160000D01*
X120643060Y-58686835D01*
X136699995Y-58686835D01*
X136699995Y-61413485D01*
G37*
D10*
G36*
X99693649Y-63640321D02*
G01*
X99693649Y-65860000D01*
X99115282Y-65860000D01*
X99115282Y-63640321D01*
X99693649Y-63640321D01*
G37*
G36*
X101211863Y-63640321D02*
G01*
X101211863Y-65860000D01*
X100704815Y-65860000D01*
X100403907Y-64850788D01*
X100403907Y-65860000D01*
X99920307Y-65860000D01*
X99920307Y-63640321D01*
X100403907Y-63640321D01*
X100728262Y-64639762D01*
X100728262Y-63640321D01*
X101211863Y-63640321D01*
G37*
G36*
X101409211Y-64578213D02*
G01*
X101902581Y-64578213D01*
X101902581Y-64078004D01*
X102237683Y-64078004D01*
X102237683Y-64578213D01*
X102733496Y-64578213D01*
X102733496Y-64922107D01*
X102237683Y-64922107D01*
X102237683Y-65422316D01*
X101902581Y-65422316D01*
X101902581Y-64922107D01*
X101409211Y-64922107D01*
X101409211Y-64578213D01*
G37*
G36*
X99693649Y-82890321D02*
G01*
X99693649Y-85110000D01*
X99115282Y-85110000D01*
X99115282Y-82890321D01*
X99693649Y-82890321D01*
G37*
G36*
X101211863Y-82890321D02*
G01*
X101211863Y-85110000D01*
X100704815Y-85110000D01*
X100403907Y-84100788D01*
X100403907Y-85110000D01*
X99920307Y-85110000D01*
X99920307Y-82890321D01*
X100403907Y-82890321D01*
X100728262Y-83889762D01*
X100728262Y-82890321D01*
X101211863Y-82890321D01*
G37*
G36*
X102100418Y-84015792D02*
G01*
X102100418Y-84390949D01*
X101370621Y-84390949D01*
X101370621Y-84015792D01*
X102100418Y-84015792D01*
G37*
D12*
G36*
X104587369Y-63113586D02*
G01*
X104587369Y-65786580D01*
X105114933Y-65786580D01*
X105114933Y-66490000D01*
X103672923Y-66490000D01*
X103672923Y-63113586D01*
X104587369Y-63113586D01*
G37*
G36*
X107994556Y-63113586D02*
G01*
X107994556Y-66490000D01*
X107189288Y-66490000D01*
X107212735Y-64218541D01*
X106929902Y-66490000D01*
X106351046Y-66490000D01*
X106052093Y-64265436D01*
X106075540Y-66490000D01*
X105270272Y-66490000D01*
X105270272Y-63113586D01*
X106436775Y-63113586D01*
X106463657Y-63276664D01*
X106487405Y-63429050D01*
X106511362Y-63590481D01*
X106532065Y-63736051D01*
X106545952Y-63836789D01*
X106641939Y-64691884D01*
X106819260Y-63113586D01*
X107994556Y-63113586D01*
G37*
G36*
X110097487Y-65974159D02*
G01*
X110097487Y-66490000D01*
X108218771Y-66490000D01*
X108218771Y-66084801D01*
X108318296Y-65913688D01*
X108412624Y-65750963D01*
X108501753Y-65596623D01*
X108585685Y-65450670D01*
X108664419Y-65313103D01*
X108737955Y-65183922D01*
X108838514Y-65005876D01*
X108927377Y-64846698D01*
X109004545Y-64706390D01*
X109089244Y-64548665D01*
X109165880Y-64398681D01*
X109187438Y-64353363D01*
X109246824Y-64216225D01*
X109296833Y-64076926D01*
X109332553Y-63928949D01*
X109339846Y-63842651D01*
X109322175Y-63696292D01*
X109298813Y-63644815D01*
X109175715Y-63582533D01*
X109052616Y-63650676D01*
X109017354Y-63794188D01*
X109011584Y-63937173D01*
X109011584Y-64285952D01*
X108218771Y-64285952D01*
X108218771Y-64143803D01*
X108221634Y-63982316D01*
X108231394Y-63830467D01*
X108248080Y-63705631D01*
X108290916Y-63564781D01*
X108360330Y-63435499D01*
X108394626Y-63386161D01*
X108500774Y-63270386D01*
X108629898Y-63180248D01*
X108697243Y-63147292D01*
X108847475Y-63098176D01*
X109002930Y-63073067D01*
X109142742Y-63066692D01*
X109294780Y-63073042D01*
X109461498Y-63097428D01*
X109611061Y-63140104D01*
X109763867Y-63213008D01*
X109893321Y-63310807D01*
X109909909Y-63326810D01*
X110011835Y-63446883D01*
X110088726Y-63580140D01*
X110140583Y-63726580D01*
X110167406Y-63886203D01*
X110171493Y-63983335D01*
X110162425Y-64134827D01*
X110135223Y-64290348D01*
X110089885Y-64449900D01*
X110035338Y-64592814D01*
X110026413Y-64613482D01*
X109953529Y-64762005D01*
X109864142Y-64923359D01*
X109773879Y-65077043D01*
X109695242Y-65206657D01*
X109607229Y-65348571D01*
X109509839Y-65502785D01*
X109403072Y-65669300D01*
X109286929Y-65848115D01*
X109204291Y-65974159D01*
X110097487Y-65974159D01*
G37*
G36*
X112227529Y-63113586D02*
G01*
X112227529Y-63629427D01*
X111195115Y-63629427D01*
X111195115Y-64146001D01*
X111309875Y-64046696D01*
X111455405Y-63984171D01*
X111612689Y-63959345D01*
X111670655Y-63957690D01*
X111817286Y-63967297D01*
X111964770Y-64001804D01*
X112105072Y-64070621D01*
X112207013Y-64158457D01*
X112295563Y-64299261D01*
X112344399Y-64447885D01*
X112372306Y-64602514D01*
X112385723Y-64750576D01*
X112390195Y-64916099D01*
X112390195Y-65393105D01*
X112388512Y-65540316D01*
X112382467Y-65686747D01*
X112368728Y-65837071D01*
X112355024Y-65920669D01*
X112309463Y-66064785D01*
X112233048Y-66199644D01*
X112205547Y-66236475D01*
X112097800Y-66343702D01*
X111971936Y-66422717D01*
X111886810Y-66459958D01*
X111736464Y-66503760D01*
X111581904Y-66527803D01*
X111428240Y-66536594D01*
X111392219Y-66536894D01*
X111233537Y-66529704D01*
X111084289Y-66508135D01*
X110927662Y-66466680D01*
X110814096Y-66421856D01*
X110684201Y-66348221D01*
X110566793Y-66245467D01*
X110477720Y-66120674D01*
X110456524Y-66078939D01*
X110405519Y-65931630D01*
X110374195Y-65768575D01*
X110357606Y-65601108D01*
X110351424Y-65439147D01*
X110351011Y-65381381D01*
X110351011Y-65176950D01*
X111230286Y-65176950D01*
X111230286Y-65418750D01*
X111231568Y-65574822D01*
X111236777Y-65733847D01*
X111249540Y-65880673D01*
X111250802Y-65889162D01*
X111335020Y-66012810D01*
X111386357Y-66021053D01*
X111469155Y-65986615D01*
X111503593Y-65908213D01*
X111507354Y-65756049D01*
X111509583Y-65602938D01*
X111510921Y-65495687D01*
X111510921Y-64793733D01*
X111503354Y-64641041D01*
X111476482Y-64537278D01*
X111365108Y-64473531D01*
X111283775Y-64507236D01*
X111240544Y-64579776D01*
X111230776Y-64728808D01*
X111230286Y-64801793D01*
X110358339Y-64801793D01*
X110394975Y-63113586D01*
X112227529Y-63113586D01*
G37*
G36*
X113767175Y-63072554D02*
G01*
X113914270Y-63090139D01*
X114061798Y-63123936D01*
X114163398Y-63160481D01*
X114302835Y-63234831D01*
X114418894Y-63328923D01*
X114504117Y-63431591D01*
X114580469Y-63566745D01*
X114628177Y-63706226D01*
X114644068Y-63801618D01*
X114654114Y-63956479D01*
X114658933Y-64105839D01*
X114661612Y-64260708D01*
X114662821Y-64408696D01*
X114663119Y-64539476D01*
X114663119Y-64997431D01*
X114662707Y-65171873D01*
X114661473Y-65327460D01*
X114658906Y-65489275D01*
X114654413Y-65643745D01*
X114646266Y-65788046D01*
X114617655Y-65936938D01*
X114557102Y-66080267D01*
X114498988Y-66172728D01*
X114398497Y-66287339D01*
X114276361Y-66380305D01*
X114146545Y-66446036D01*
X114001273Y-66493949D01*
X113842978Y-66524117D01*
X113689378Y-66536096D01*
X113635833Y-66536894D01*
X113485497Y-66531670D01*
X113328624Y-66512905D01*
X113171192Y-66475482D01*
X113048185Y-66427718D01*
X112917367Y-66350752D01*
X112802394Y-66245925D01*
X112717725Y-66119972D01*
X112660572Y-65968823D01*
X112631457Y-65823388D01*
X112618223Y-65658363D01*
X112617341Y-65599002D01*
X113496615Y-65599002D01*
X113497308Y-65745908D01*
X113502116Y-65895888D01*
X113502477Y-65899420D01*
X113545708Y-65987348D01*
X113650488Y-66021053D01*
X113739148Y-65987348D01*
X113777983Y-65895757D01*
X113782706Y-65744411D01*
X113783112Y-65648094D01*
X113783112Y-65218715D01*
X113670959Y-65315721D01*
X113632903Y-65338150D01*
X113488372Y-65393105D01*
X113337564Y-65411137D01*
X113314166Y-65411423D01*
X113158365Y-65396271D01*
X113015378Y-65350816D01*
X112896510Y-65283196D01*
X112778873Y-65179915D01*
X112693525Y-65051982D01*
X112665701Y-64976182D01*
X112636231Y-64825401D01*
X112622063Y-64674247D01*
X112617388Y-64518386D01*
X112617341Y-64499909D01*
X112617341Y-64233928D01*
X112619127Y-64068835D01*
X112625045Y-63918855D01*
X113496615Y-63918855D01*
X113496615Y-64587836D01*
X113504475Y-64734579D01*
X113544242Y-64849420D01*
X113639497Y-64895582D01*
X113747941Y-64836964D01*
X113779677Y-64693710D01*
X113783112Y-64587836D01*
X113783112Y-63940837D01*
X113778372Y-63791669D01*
X113749406Y-63647013D01*
X113641695Y-63582533D01*
X113547173Y-63632358D01*
X113502589Y-63777891D01*
X113496615Y-63918855D01*
X112625045Y-63918855D01*
X112625406Y-63909710D01*
X112639220Y-63753476D01*
X112645917Y-63707096D01*
X112688172Y-63558633D01*
X112758302Y-63429314D01*
X112793196Y-63381765D01*
X112904990Y-63270492D01*
X113034373Y-63187957D01*
X113121458Y-63148757D01*
X113273150Y-63102034D01*
X113424275Y-63076389D01*
X113571056Y-63067012D01*
X113605059Y-63066692D01*
X113767175Y-63072554D01*
G37*
G36*
X116070282Y-63071916D02*
G01*
X116226799Y-63090681D01*
X116384161Y-63128104D01*
X116507397Y-63175868D01*
X116638844Y-63252833D01*
X116753849Y-63357661D01*
X116837857Y-63483614D01*
X116894592Y-63634763D01*
X116923495Y-63780198D01*
X116936632Y-63945223D01*
X116937508Y-64004584D01*
X116057501Y-64004584D01*
X116056895Y-63857261D01*
X116052688Y-63706966D01*
X116052372Y-63703433D01*
X116010607Y-63616238D01*
X115905826Y-63582533D01*
X115817166Y-63616238D01*
X115776866Y-63708562D01*
X115771468Y-63859529D01*
X115771004Y-63955491D01*
X115771004Y-64388534D01*
X115884780Y-64288476D01*
X115922679Y-64266168D01*
X116067210Y-64210664D01*
X116216815Y-64192452D01*
X116239951Y-64192163D01*
X116395751Y-64207315D01*
X116538738Y-64252770D01*
X116657606Y-64320390D01*
X116775587Y-64423671D01*
X116860841Y-64551604D01*
X116888415Y-64627404D01*
X116918331Y-64778185D01*
X116932714Y-64929339D01*
X116937460Y-65085200D01*
X116937508Y-65103677D01*
X116937508Y-65369658D01*
X116935768Y-65534476D01*
X116929650Y-65693511D01*
X116916190Y-65849950D01*
X116909665Y-65896489D01*
X116868131Y-66045093D01*
X116797667Y-66174794D01*
X116762386Y-66222554D01*
X116650239Y-66333352D01*
X116520958Y-66415664D01*
X116434124Y-66454829D01*
X116283266Y-66501551D01*
X116132599Y-66527197D01*
X115985986Y-66536574D01*
X115951988Y-66536894D01*
X115788865Y-66531032D01*
X115640945Y-66513447D01*
X115492709Y-66479650D01*
X115390718Y-66443105D01*
X115251785Y-66368754D01*
X115136230Y-66274663D01*
X115051465Y-66171995D01*
X114975456Y-66036841D01*
X114927680Y-65897359D01*
X114911514Y-65801967D01*
X114901081Y-65646964D01*
X114896077Y-65497333D01*
X114893295Y-65342121D01*
X114892039Y-65193768D01*
X114891730Y-65062644D01*
X114891730Y-65015750D01*
X115771004Y-65015750D01*
X115771004Y-65662749D01*
X115775641Y-65812020D01*
X115803977Y-65957306D01*
X115912421Y-66021053D01*
X116006943Y-65971960D01*
X116051527Y-65825781D01*
X116057501Y-65684731D01*
X116057501Y-65015750D01*
X116048892Y-64862426D01*
X116023063Y-64770286D01*
X115913886Y-64708004D01*
X115806175Y-64767355D01*
X115773786Y-64919375D01*
X115771004Y-65015750D01*
X114891730Y-65015750D01*
X114891730Y-64606154D01*
X114892159Y-64431713D01*
X114893447Y-64276126D01*
X114896127Y-64114310D01*
X114900815Y-63959841D01*
X114909316Y-63815540D01*
X114938613Y-63666648D01*
X114999029Y-63523319D01*
X115056594Y-63430858D01*
X115156754Y-63316247D01*
X115278906Y-63223281D01*
X115409036Y-63157550D01*
X115554695Y-63109637D01*
X115713233Y-63079469D01*
X115866930Y-63067490D01*
X115920481Y-63066692D01*
X116070282Y-63071916D01*
G37*
D10*
G36*
X129876293Y-82864686D02*
G01*
X129977139Y-82881574D01*
X130070924Y-82909719D01*
X130088834Y-82916699D01*
X130179982Y-82962860D01*
X130257968Y-83022759D01*
X130317445Y-83089134D01*
X130372698Y-83178115D01*
X130408029Y-83272866D01*
X130420516Y-83339239D01*
X130429274Y-83443605D01*
X130433945Y-83555606D01*
X130436086Y-83656236D01*
X130437060Y-83771119D01*
X130437124Y-83812581D01*
X130437124Y-84187739D01*
X130436731Y-84286080D01*
X130435220Y-84391684D01*
X130432024Y-84497786D01*
X130426483Y-84596490D01*
X130421004Y-84654731D01*
X130399801Y-84754382D01*
X130359638Y-84847438D01*
X130322330Y-84905812D01*
X130251805Y-84983756D01*
X130172674Y-85042171D01*
X130097627Y-85080690D01*
X130004815Y-85112633D01*
X129902843Y-85132745D01*
X129803238Y-85140730D01*
X129768387Y-85141263D01*
X129670719Y-85136742D01*
X129568995Y-85121114D01*
X129474427Y-85094324D01*
X129447452Y-85084110D01*
X129356247Y-85037728D01*
X129278087Y-84977839D01*
X129218353Y-84911674D01*
X129163329Y-84822396D01*
X129127952Y-84727485D01*
X129115282Y-84661081D01*
X129106781Y-84556715D01*
X129102248Y-84444714D01*
X129100170Y-84344084D01*
X129099225Y-84229201D01*
X129099162Y-84187739D01*
X129099162Y-83812581D01*
X129099544Y-83714240D01*
X129101009Y-83608636D01*
X129104108Y-83502534D01*
X129105817Y-83471130D01*
X129677529Y-83471130D01*
X129677529Y-84487669D01*
X129679056Y-84591959D01*
X129686322Y-84690360D01*
X129693161Y-84721653D01*
X129766922Y-84766106D01*
X129842149Y-84715303D01*
X129855578Y-84612933D01*
X129858611Y-84506395D01*
X129858757Y-84471549D01*
X129858757Y-83471130D01*
X129856353Y-83372349D01*
X129841660Y-83276713D01*
X129770830Y-83234214D01*
X129701465Y-83268408D01*
X129680358Y-83371141D01*
X129677529Y-83471130D01*
X129105817Y-83471130D01*
X129109481Y-83403830D01*
X129114794Y-83345589D01*
X129136295Y-83245938D01*
X129176618Y-83152882D01*
X129213956Y-83094508D01*
X129284413Y-83016632D01*
X129363360Y-82958402D01*
X129438171Y-82920118D01*
X129531289Y-82887918D01*
X129633565Y-82867644D01*
X129733446Y-82859594D01*
X129768387Y-82859057D01*
X129876293Y-82864686D01*
G37*
G36*
X131960223Y-82890321D02*
G01*
X131960223Y-84363593D01*
X131959428Y-84466099D01*
X131956573Y-84565788D01*
X131950086Y-84664210D01*
X131943614Y-84715792D01*
X131913876Y-84812227D01*
X131865182Y-84897714D01*
X131845917Y-84924375D01*
X131778117Y-84997030D01*
X131695616Y-85055259D01*
X131632449Y-85086064D01*
X131535781Y-85117490D01*
X131438084Y-85134740D01*
X131331037Y-85141209D01*
X131319818Y-85141263D01*
X131211420Y-85136085D01*
X131110441Y-85120552D01*
X131006943Y-85091147D01*
X130968108Y-85075806D01*
X130880343Y-85031079D01*
X130801102Y-84973063D01*
X130739986Y-84905812D01*
X130688706Y-84818626D01*
X130656382Y-84720585D01*
X130650593Y-84684528D01*
X130643380Y-84586564D01*
X130639920Y-84488243D01*
X130637997Y-84384470D01*
X130637129Y-84284245D01*
X130636915Y-84195066D01*
X130636915Y-82890321D01*
X131215282Y-82890321D01*
X131215282Y-84541891D01*
X131217862Y-84641803D01*
X131230914Y-84726050D01*
X131294905Y-84766106D01*
X131365736Y-84722142D01*
X131379589Y-84619636D01*
X131381856Y-84513070D01*
X131381856Y-82890321D01*
X131960223Y-82890321D01*
G37*
G36*
X133340195Y-82890321D02*
G01*
X133340195Y-83328004D01*
X132996789Y-83328004D01*
X132996789Y-85110000D01*
X132418422Y-85110000D01*
X132418422Y-83328004D01*
X132076482Y-83328004D01*
X132076482Y-82890321D01*
X133340195Y-82890321D01*
G37*
G36*
X133941032Y-84015792D02*
G01*
X133941032Y-84390949D01*
X133211235Y-84390949D01*
X133211235Y-84015792D01*
X133941032Y-84015792D01*
G37*
G36*
X128876293Y-63614686D02*
G01*
X128977139Y-63631574D01*
X129070924Y-63659719D01*
X129088834Y-63666699D01*
X129179982Y-63712860D01*
X129257968Y-63772759D01*
X129317445Y-63839134D01*
X129372698Y-63928115D01*
X129408029Y-64022866D01*
X129420516Y-64089239D01*
X129429274Y-64193605D01*
X129433945Y-64305606D01*
X129436086Y-64406236D01*
X129437060Y-64521119D01*
X129437124Y-64562581D01*
X129437124Y-64937739D01*
X129436731Y-65036080D01*
X129435220Y-65141684D01*
X129432024Y-65247786D01*
X129426483Y-65346490D01*
X129421004Y-65404731D01*
X129399801Y-65504382D01*
X129359638Y-65597438D01*
X129322330Y-65655812D01*
X129251805Y-65733756D01*
X129172674Y-65792171D01*
X129097627Y-65830690D01*
X129004815Y-65862633D01*
X128902843Y-65882745D01*
X128803238Y-65890730D01*
X128768387Y-65891263D01*
X128670719Y-65886742D01*
X128568995Y-65871114D01*
X128474427Y-65844324D01*
X128447452Y-65834110D01*
X128356247Y-65787728D01*
X128278087Y-65727839D01*
X128218353Y-65661674D01*
X128163329Y-65572396D01*
X128127952Y-65477485D01*
X128115282Y-65411081D01*
X128106781Y-65306715D01*
X128102248Y-65194714D01*
X128100170Y-65094084D01*
X128099225Y-64979201D01*
X128099162Y-64937739D01*
X128099162Y-64562581D01*
X128099544Y-64464240D01*
X128101009Y-64358636D01*
X128104108Y-64252534D01*
X128105817Y-64221130D01*
X128677529Y-64221130D01*
X128677529Y-65237669D01*
X128679056Y-65341959D01*
X128686322Y-65440360D01*
X128693161Y-65471653D01*
X128766922Y-65516106D01*
X128842149Y-65465303D01*
X128855578Y-65362933D01*
X128858611Y-65256395D01*
X128858757Y-65221549D01*
X128858757Y-64221130D01*
X128856353Y-64122349D01*
X128841660Y-64026713D01*
X128770830Y-63984214D01*
X128701465Y-64018408D01*
X128680358Y-64121141D01*
X128677529Y-64221130D01*
X128105817Y-64221130D01*
X128109481Y-64153830D01*
X128114794Y-64095589D01*
X128136295Y-63995938D01*
X128176618Y-63902882D01*
X128213956Y-63844508D01*
X128284413Y-63766632D01*
X128363360Y-63708402D01*
X128438171Y-63670118D01*
X128531289Y-63637918D01*
X128633565Y-63617644D01*
X128733446Y-63609594D01*
X128768387Y-63609057D01*
X128876293Y-63614686D01*
G37*
G36*
X130960223Y-63640321D02*
G01*
X130960223Y-65113593D01*
X130959428Y-65216099D01*
X130956573Y-65315788D01*
X130950086Y-65414210D01*
X130943614Y-65465792D01*
X130913876Y-65562227D01*
X130865182Y-65647714D01*
X130845917Y-65674375D01*
X130778117Y-65747030D01*
X130695616Y-65805259D01*
X130632449Y-65836064D01*
X130535781Y-65867490D01*
X130438084Y-65884740D01*
X130331037Y-65891209D01*
X130319818Y-65891263D01*
X130211420Y-65886085D01*
X130110441Y-65870552D01*
X130006943Y-65841147D01*
X129968108Y-65825806D01*
X129880343Y-65781079D01*
X129801102Y-65723063D01*
X129739986Y-65655812D01*
X129688706Y-65568626D01*
X129656382Y-65470585D01*
X129650593Y-65434528D01*
X129643380Y-65336564D01*
X129639920Y-65238243D01*
X129637997Y-65134470D01*
X129637129Y-65034245D01*
X129636915Y-64945066D01*
X129636915Y-63640321D01*
X130215282Y-63640321D01*
X130215282Y-65291891D01*
X130217862Y-65391803D01*
X130230914Y-65476050D01*
X130294905Y-65516106D01*
X130365736Y-65472142D01*
X130379589Y-65369636D01*
X130381856Y-65263070D01*
X130381856Y-63640321D01*
X130960223Y-63640321D01*
G37*
G36*
X132340195Y-63640321D02*
G01*
X132340195Y-64078004D01*
X131996789Y-64078004D01*
X131996789Y-65860000D01*
X131418422Y-65860000D01*
X131418422Y-64078004D01*
X131076482Y-64078004D01*
X131076482Y-63640321D01*
X132340195Y-63640321D01*
G37*
G36*
X132437404Y-64578213D02*
G01*
X132930774Y-64578213D01*
X132930774Y-64078004D01*
X133265875Y-64078004D01*
X133265875Y-64578213D01*
X133761688Y-64578213D01*
X133761688Y-64922107D01*
X133265875Y-64922107D01*
X133265875Y-65422316D01*
X132930774Y-65422316D01*
X132930774Y-64922107D01*
X132437404Y-64922107D01*
X132437404Y-64578213D01*
G37*
D11*
X146633333Y-78179580D02*
X146585714Y-78227200D01*
X146585714Y-78227200D02*
X146442857Y-78274819D01*
X146442857Y-78274819D02*
X146347619Y-78274819D01*
X146347619Y-78274819D02*
X146204762Y-78227200D01*
X146204762Y-78227200D02*
X146109524Y-78131961D01*
X146109524Y-78131961D02*
X146061905Y-78036723D01*
X146061905Y-78036723D02*
X146014286Y-77846247D01*
X146014286Y-77846247D02*
X146014286Y-77703390D01*
X146014286Y-77703390D02*
X146061905Y-77512914D01*
X146061905Y-77512914D02*
X146109524Y-77417676D01*
X146109524Y-77417676D02*
X146204762Y-77322438D01*
X146204762Y-77322438D02*
X146347619Y-77274819D01*
X146347619Y-77274819D02*
X146442857Y-77274819D01*
X146442857Y-77274819D02*
X146585714Y-77322438D01*
X146585714Y-77322438D02*
X146633333Y-77370057D01*
X147014286Y-77370057D02*
X147061905Y-77322438D01*
X147061905Y-77322438D02*
X147157143Y-77274819D01*
X147157143Y-77274819D02*
X147395238Y-77274819D01*
X147395238Y-77274819D02*
X147490476Y-77322438D01*
X147490476Y-77322438D02*
X147538095Y-77370057D01*
X147538095Y-77370057D02*
X147585714Y-77465295D01*
X147585714Y-77465295D02*
X147585714Y-77560533D01*
X147585714Y-77560533D02*
X147538095Y-77703390D01*
X147538095Y-77703390D02*
X146966667Y-78274819D01*
X146966667Y-78274819D02*
X147585714Y-78274819D01*
X142440476Y-69284819D02*
X142440476Y-68284819D01*
X142440476Y-68284819D02*
X142773809Y-68999104D01*
X142773809Y-68999104D02*
X143107142Y-68284819D01*
X143107142Y-68284819D02*
X143107142Y-69284819D01*
X144107142Y-69284819D02*
X143535714Y-69284819D01*
X143821428Y-69284819D02*
X143821428Y-68284819D01*
X143821428Y-68284819D02*
X143726190Y-68427676D01*
X143726190Y-68427676D02*
X143630952Y-68522914D01*
X143630952Y-68522914D02*
X143535714Y-68570533D01*
X145416667Y-65157200D02*
X145559524Y-65204819D01*
X145559524Y-65204819D02*
X145797619Y-65204819D01*
X145797619Y-65204819D02*
X145892857Y-65157200D01*
X145892857Y-65157200D02*
X145940476Y-65109580D01*
X145940476Y-65109580D02*
X145988095Y-65014342D01*
X145988095Y-65014342D02*
X145988095Y-64919104D01*
X145988095Y-64919104D02*
X145940476Y-64823866D01*
X145940476Y-64823866D02*
X145892857Y-64776247D01*
X145892857Y-64776247D02*
X145797619Y-64728628D01*
X145797619Y-64728628D02*
X145607143Y-64681009D01*
X145607143Y-64681009D02*
X145511905Y-64633390D01*
X145511905Y-64633390D02*
X145464286Y-64585771D01*
X145464286Y-64585771D02*
X145416667Y-64490533D01*
X145416667Y-64490533D02*
X145416667Y-64395295D01*
X145416667Y-64395295D02*
X145464286Y-64300057D01*
X145464286Y-64300057D02*
X145511905Y-64252438D01*
X145511905Y-64252438D02*
X145607143Y-64204819D01*
X145607143Y-64204819D02*
X145845238Y-64204819D01*
X145845238Y-64204819D02*
X145988095Y-64252438D01*
X146321429Y-64204819D02*
X146559524Y-65204819D01*
X146559524Y-65204819D02*
X146750000Y-64490533D01*
X146750000Y-64490533D02*
X146940476Y-65204819D01*
X146940476Y-65204819D02*
X147178572Y-64204819D01*
X148083333Y-65204819D02*
X147511905Y-65204819D01*
X147797619Y-65204819D02*
X147797619Y-64204819D01*
X147797619Y-64204819D02*
X147702381Y-64347676D01*
X147702381Y-64347676D02*
X147607143Y-64442914D01*
X147607143Y-64442914D02*
X147511905Y-64490533D01*
X85916666Y-82204819D02*
X85916666Y-82919104D01*
X85916666Y-82919104D02*
X85869047Y-83061961D01*
X85869047Y-83061961D02*
X85773809Y-83157200D01*
X85773809Y-83157200D02*
X85630952Y-83204819D01*
X85630952Y-83204819D02*
X85535714Y-83204819D01*
X86916666Y-83204819D02*
X86345238Y-83204819D01*
X86630952Y-83204819D02*
X86630952Y-82204819D01*
X86630952Y-82204819D02*
X86535714Y-82347676D01*
X86535714Y-82347676D02*
X86440476Y-82442914D01*
X86440476Y-82442914D02*
X86345238Y-82490533D01*
X143238095Y-80754819D02*
X143238095Y-79754819D01*
X143238095Y-80231009D02*
X143809523Y-80231009D01*
X143809523Y-80754819D02*
X143809523Y-79754819D01*
X144809523Y-80754819D02*
X144238095Y-80754819D01*
X144523809Y-80754819D02*
X144523809Y-79754819D01*
X144523809Y-79754819D02*
X144428571Y-79897676D01*
X144428571Y-79897676D02*
X144333333Y-79992914D01*
X144333333Y-79992914D02*
X144238095Y-80040533D01*
%TO.C,DC1*%
D10*
X93150000Y-62250000D02*
X139650000Y-62250000D01*
X139650000Y-86650000D01*
X93150000Y-86650000D01*
X93150000Y-62250000D01*
D13*
%TO.C,C2*%
X146538748Y-78765000D02*
X147061252Y-78765000D01*
X146538748Y-80235000D02*
X147061252Y-80235000D01*
%TO.C,M1*%
X141920000Y-69830000D02*
X143250000Y-69830000D01*
X141920000Y-71160000D02*
X141920000Y-69830000D01*
X141920000Y-72430000D02*
X141920000Y-77570000D01*
X141920000Y-72430000D02*
X144580000Y-72430000D01*
X141920000Y-77570000D02*
X144580000Y-77570000D01*
X144580000Y-72430000D02*
X144580000Y-77570000D01*
%TO.C,SW1*%
X141920000Y-64705000D02*
X141920000Y-62105000D01*
X144580000Y-62105000D02*
X141920000Y-62105000D01*
X144580000Y-64705000D02*
X141920000Y-64705000D01*
X144580000Y-64705000D02*
X144580000Y-62105000D01*
X144580000Y-65975000D02*
X144580000Y-67305000D01*
X144580000Y-67305000D02*
X143250000Y-67305000D01*
%TO.C,J1*%
X82590000Y-67640000D02*
X82590000Y-68040000D01*
X82830000Y-67880000D02*
X82830000Y-81280000D01*
X83230000Y-67640000D02*
X82590000Y-67640000D01*
X83350000Y-67880000D02*
X83350000Y-81280000D01*
X88450000Y-67880000D02*
X88450000Y-81280000D01*
X89570000Y-67880000D02*
X82830000Y-67880000D01*
X89570000Y-67880000D02*
X89570000Y-81280000D01*
X89570000Y-81280000D02*
X82830000Y-81280000D01*
%TD*%
D14*
X95950000Y-64950000D03*
X95950000Y-83950000D03*
X136950000Y-64950000D03*
X136950000Y-83950000D03*
D15*
X87500000Y-63000000D03*
X143250000Y-71160000D03*
X143250000Y-73700000D03*
X143250000Y-76240000D03*
X143250000Y-65975000D03*
X143250000Y-63435000D03*
X86200000Y-69500000D03*
X86200000Y-72040000D03*
X86200000Y-74580000D03*
X86200000Y-77120000D03*
X86200000Y-79660000D03*
X144000000Y-84500000D03*
M02*
