M48
METRIC,TZ
T1C0.300
T2C1.000
T3C1.020
T4C1.100
%
G90
G05
T1
X105750Y-87250
X105750Y-88000
X105750Y-88750
X105750Y-89500
X105750Y-90250
X105750Y-91000
X105750Y-91750
X105750Y-92500
X105750Y-93250
X105750Y-94000
X106500Y-94000
X107250Y-94000
X108000Y-94000
X108250Y-125000
X108750Y-94000
X109500Y-86250
X109500Y-94000
X109500Y-107250
X109750Y-116250
X110250Y-86250
X110250Y-94000
X111000Y-86250
X111000Y-94000
X111750Y-86250
X111750Y-94000
X112500Y-86250
X112500Y-94000
X113250Y-86250
X113250Y-94000
X114000Y-86250
X114000Y-94000
X114750Y-86250
X114750Y-94000
X115500Y-86500
X115500Y-87250
X115500Y-88000
X115500Y-88750
X115500Y-89500
X115500Y-90250
X115500Y-91000
X115500Y-91750
X115500Y-92500
X115500Y-93250
X115500Y-94000
X123750Y-95750
X125500Y-84250
X126250Y-85000
X126500Y-101500
X127250Y-90500
X128750Y-84250
X132250Y-134500
X132250Y-135750
X132500Y-133250
X133250Y-85000
X134500Y-109750
X135750Y-108500
X138500Y-89000
X139250Y-89500
X139250Y-93400
X139500Y-137250
X140750Y-94600
X149600Y-79300
X149600Y-80200
X149600Y-81000
X149600Y-81700
X149600Y-82400
X149600Y-83100
X149600Y-83800
X149600Y-84500
X150300Y-79300
X150300Y-80200
X150300Y-81000
X150300Y-81700
X150300Y-82400
X150300Y-83100
X150300Y-83800
X150300Y-84500
X151000Y-79300
X151000Y-80000
X151000Y-80700
X151000Y-81400
X151600Y-125500
X151700Y-79300
X151700Y-80000
X151700Y-80700
X151700Y-81400
X153500Y-126750
X153750Y-120000
X154250Y-74250
X154300Y-79300
X154300Y-80000
X154300Y-80700
X154300Y-81400
X155000Y-79300
X155000Y-80000
X155000Y-80700
X155000Y-81400
X155125Y-74625
X155300Y-75500
X155500Y-106500
X155700Y-79300
X155700Y-80200
X155700Y-81000
X155700Y-81700
X155700Y-82400
X155700Y-83100
X155700Y-83800
X155700Y-84500
X156000Y-86000
X156400Y-79300
X156400Y-80200
X156400Y-81000
X156400Y-81700
X156400Y-82400
X156400Y-83100
X156400Y-83800
X156400Y-84500
X156500Y-92750
X156750Y-129250
X157000Y-77350
X157250Y-105750
X157750Y-77350
X158000Y-127250
X158400Y-77350
X159750Y-75500
X159750Y-131500
X162875Y-100125
X163000Y-91250
X167250Y-119750
X167500Y-106500
X169200Y-87138
X169300Y-84100
X169750Y-105750
X170000Y-88500
X172000Y-83000
X174000Y-99750
X174600Y-84700
X174600Y-85400
X174600Y-86100
X174600Y-86800
X174600Y-87500
X174600Y-88200
X174600Y-88900
X174600Y-89600
X174600Y-90300
X174750Y-91500
X175300Y-84700
X175300Y-85400
X175300Y-86100
X175300Y-86800
X175300Y-87500
X175300Y-88200
X175300Y-88900
X175300Y-89600
X175300Y-90300
X176000Y-84700
X176000Y-85400
X176000Y-86100
X176000Y-86800
X176000Y-87500
X176000Y-88200
X176000Y-88900
X176000Y-89600
X176000Y-90300
X176700Y-84700
X176700Y-85400
X176700Y-86100
X176700Y-86800
X176700Y-87500
X179500Y-84700
X179500Y-85400
X179500Y-86100
X179500Y-86800
X179500Y-87500
X180200Y-84700
X180200Y-85400
X180200Y-86100
X180200Y-86800
X180200Y-87500
X180250Y-106000
X180300Y-88100
X180300Y-88800
X180395Y-78350
X180800Y-89600
X180800Y-90300
X180900Y-84700
X180900Y-85400
X180900Y-86100
X180900Y-86800
X180900Y-87500
X180900Y-88200
X180900Y-88900
X181500Y-89600
X181500Y-90300
X181600Y-84700
X181600Y-85400
X181600Y-86100
X181600Y-86800
X181600Y-87500
X181600Y-88200
X181600Y-88900
X183750Y-80750
X184250Y-92750
X184500Y-97750
X186250Y-119750
X186900Y-94950
X188000Y-94150
X188500Y-130250
X189250Y-120250
X191750Y-119250
X192750Y-106000
T2
X150210Y-130750
X150210Y-133290
X150210Y-135830
X150210Y-138370
X152750Y-130750
X152750Y-133290
X152750Y-135830
X152750Y-138370
T3
X149870Y-104110
X149870Y-121890
X150100Y-110460
X150100Y-113000
X150100Y-115540
X152410Y-104110
X152410Y-121890
X154950Y-104110
X154950Y-121890
X157490Y-104110
X157490Y-121890
X160030Y-104110
X160030Y-121890
X162570Y-104110
X162570Y-121890
X165110Y-104110
X165110Y-121890
X167650Y-104110
X167650Y-121890
X170190Y-104110
X170190Y-121890
X172730Y-104110
X172730Y-121890
X175270Y-104110
X175270Y-121890
X177810Y-104110
X177810Y-121890
X180350Y-104110
X180350Y-121890
X182890Y-104110
X182890Y-121890
X185430Y-104110
X185430Y-121890
X187970Y-104110
X187970Y-121890
X190510Y-104110
X190510Y-121890
X193050Y-104110
X193050Y-121890
X195590Y-104110
X195590Y-121890
X198130Y-104110
X198130Y-121890
T4
X101750Y-101000
X101750Y-105500
X101750Y-109500
X101750Y-114000
X101750Y-118050
X101750Y-122550
X104000Y-73500
X104000Y-76040
X104000Y-78580
X104000Y-81120
X104000Y-83660
X104000Y-128920
X104000Y-131460
X104000Y-134000
X104000Y-136540
X104000Y-139080
X108250Y-101000
X108250Y-105500
X108250Y-109500
X108250Y-114000
X108250Y-118050
X108250Y-122550
X196000Y-73380
X196000Y-75920
X196000Y-78460
X196000Y-81000
X196000Y-83540
X196000Y-95600
X196000Y-98140
X196000Y-128920
X196000Y-131460
X196000Y-134000
X196000Y-136540
X196000Y-139080
M30
