%TF.GenerationSoftware,KiCad,Pcbnew,8.0.5*%
%TF.CreationDate,2025-02-14T12:54:28+01:00*%
%TF.ProjectId,main_board,6d61696e-5f62-46f6-9172-642e6b696361,rev?*%
%TF.SameCoordinates,Original*%
%TF.FileFunction,Paste,Top*%
%TF.FilePolarity,Positive*%
%FSLAX46Y46*%
G04 Gerber Fmt 4.6, Leading zero omitted, Abs format (unit mm)*
G04 Created by KiCad (PCBNEW 8.0.5) date 2025-02-14 12:54:28*
%MOMM*%
%LPD*%
G01*
G04 APERTURE LIST*
G04 Aperture macros list*
%AMRoundRect*
0 Rectangle with rounded corners*
0 $1 Rounding radius*
0 $2 $3 $4 $5 $6 $7 $8 $9 X,Y pos of 4 corners*
0 Add a 4 corners polygon primitive as box body*
4,1,4,$2,$3,$4,$5,$6,$7,$8,$9,$2,$3,0*
0 Add four circle primitives for the rounded corners*
1,1,$1+$1,$2,$3*
1,1,$1+$1,$4,$5*
1,1,$1+$1,$6,$7*
1,1,$1+$1,$8,$9*
0 Add four rect primitives between the rounded corners*
20,1,$1+$1,$2,$3,$4,$5,0*
20,1,$1+$1,$4,$5,$6,$7,0*
20,1,$1+$1,$6,$7,$8,$9,0*
20,1,$1+$1,$8,$9,$2,$3,0*%
G04 Aperture macros list end*
%ADD10RoundRect,0.250000X-0.250000X-0.475000X0.250000X-0.475000X0.250000X0.475000X-0.250000X0.475000X0*%
%ADD11RoundRect,0.250000X-1.500000X-0.550000X1.500000X-0.550000X1.500000X0.550000X-1.500000X0.550000X0*%
%ADD12RoundRect,0.375000X-0.375000X0.625000X-0.375000X-0.625000X0.375000X-0.625000X0.375000X0.625000X0*%
%ADD13RoundRect,0.500000X-1.400000X0.500000X-1.400000X-0.500000X1.400000X-0.500000X1.400000X0.500000X0*%
%ADD14RoundRect,0.250000X0.625000X-0.312500X0.625000X0.312500X-0.625000X0.312500X-0.625000X-0.312500X0*%
%ADD15RoundRect,0.250000X-0.625000X0.375000X-0.625000X-0.375000X0.625000X-0.375000X0.625000X0.375000X0*%
%ADD16RoundRect,0.250000X0.250000X0.475000X-0.250000X0.475000X-0.250000X-0.475000X0.250000X-0.475000X0*%
%ADD17RoundRect,0.250000X-0.625000X0.312500X-0.625000X-0.312500X0.625000X-0.312500X0.625000X0.312500X0*%
%ADD18RoundRect,0.250000X0.475000X-0.250000X0.475000X0.250000X-0.475000X0.250000X-0.475000X-0.250000X0*%
%ADD19RoundRect,0.100000X0.100000X-0.637500X0.100000X0.637500X-0.100000X0.637500X-0.100000X-0.637500X0*%
G04 APERTURE END LIST*
D10*
%TO.C,C10*%
X156750000Y-126750000D03*
X154850000Y-126750000D03*
%TD*%
D11*
%TO.C,C9*%
X118700000Y-101500000D03*
X124300000Y-101500000D03*
%TD*%
D12*
%TO.C,U5*%
X155300000Y-77350000D03*
X153000000Y-77350000D03*
D13*
X153000000Y-83650000D03*
D12*
X150700000Y-77350000D03*
%TD*%
D11*
%TO.C,C2*%
X118700000Y-90250000D03*
X124300000Y-90250000D03*
%TD*%
D10*
%TO.C,C7*%
X165550000Y-84750000D03*
X167450000Y-84750000D03*
%TD*%
D12*
%TO.C,U1*%
X180550000Y-82850000D03*
X178250000Y-82850000D03*
D13*
X178250000Y-89150000D03*
D12*
X175950000Y-82850000D03*
%TD*%
D14*
%TO.C,R1*%
X161500000Y-84462500D03*
X161500000Y-81537500D03*
%TD*%
%TO.C,R2*%
X183750000Y-89712500D03*
X183750000Y-86787500D03*
%TD*%
D10*
%TO.C,C8*%
X151050000Y-74250000D03*
X152950000Y-74250000D03*
%TD*%
D15*
%TO.C,D1*%
X161500000Y-76100000D03*
X161500000Y-78900000D03*
%TD*%
D16*
%TO.C,C6*%
X160200000Y-92750000D03*
X158300000Y-92750000D03*
%TD*%
D10*
%TO.C,C5*%
X120300000Y-96000000D03*
X122200000Y-96000000D03*
%TD*%
D17*
%TO.C,R3*%
X170500000Y-89825000D03*
X170500000Y-92750000D03*
%TD*%
D10*
%TO.C,C3*%
X177250000Y-78750000D03*
X179150000Y-78750000D03*
%TD*%
D15*
%TO.C,D2*%
X183750000Y-82100000D03*
X183750000Y-84900000D03*
%TD*%
D18*
%TO.C,C4*%
X172000000Y-85950000D03*
X172000000Y-84050000D03*
%TD*%
D19*
%TO.C,U2*%
X162075000Y-92862500D03*
X162725000Y-92862500D03*
X163375000Y-92862500D03*
X164025000Y-92862500D03*
X164675000Y-92862500D03*
X165325000Y-92862500D03*
X165975000Y-92862500D03*
X166625000Y-92862500D03*
X167275000Y-92862500D03*
X167925000Y-92862500D03*
X167925000Y-87137500D03*
X167275000Y-87137500D03*
X166625000Y-87137500D03*
X165975000Y-87137500D03*
X165325000Y-87137500D03*
X164675000Y-87137500D03*
X164025000Y-87137500D03*
X163375000Y-87137500D03*
X162725000Y-87137500D03*
X162075000Y-87137500D03*
%TD*%
D10*
%TO.C,C1*%
X152800000Y-86500000D03*
X154700000Y-86500000D03*
%TD*%
M02*
